<svg width="20" height="24" fill="none" xmlns="http://www.w3.org/2000/svg"><path d="M10 .25a3.75 3.75 0 013.745 3.55l.005.2h5.5a.75.75 0 01.102 1.493l-.102.007h-1.059l-1.22 15.053A3.75 3.75 0 0113.233 24H6.767a3.75 3.75 0 01-3.738-3.447L1.808 5.5H.75a.75.75 0 01-.743-.648L0 4.75a.75.75 0 01.648-.743L.75 4h5.5A3.75 3.75 0 0110 .25zm6.687 5.25H3.313l1.211 14.932A2.25 2.25 0 006.767 22.5h6.466a2.25 2.25 0 002.243-2.068L16.686 5.5h.001zM7.75 9.25a.75.75 0 01.743.648L8.5 10v8a.75.75 0 01-1.493.102L7 18v-8a.75.75 0 01.75-.75zm4.5 0a.75.75 0 01.743.648L13 10v8a.75.75 0 01-1.493.102L11.5 18v-8a.75.75 0 01.75-.75zM10 1.75a2.25 2.25 0 00-2.245 2.096L7.75 4h4.5l-.005-.154A2.25 2.25 0 0010 1.75z" fill="#000"/></svg>