<svg width="25" height="33" fill="none" xmlns="http://www.w3.org/2000/svg"><path fill-rule="evenodd" clip-rule="evenodd" d="M11.6 2.9c.9 0 1.4 0 2.3.2.3.1.5.2.7.2.6.2 1.4.6 2 1 .4.4.8.7 1.1 1l.5.5c.1.1.1.2.2.3 1.2 1.6 1.7 3.1 1.7 5.2 0 1.7-.7 3.4-1.7 4.7l-.2.2-.3.4c-.6.5-1 .9-1.7 1.4-1 .6-2.1 1.1-3.3 1.2-1.9.1-2.9-.2-4.4-.8-.4-.2-1-.6-1.4-.9l-.2-.2-.5-.3c-.2-.2-.7-.7-.9-1l-.6-.9c-.4-.6-.7-1.4-.9-2.2-.6-2.5 0-5 1.6-7 .9-1.1 2.1-2 3.5-2.5.7-.2 1.6-.5 2.5-.5zm-1.4-1.6C9 1.3 9.1 1.1 8 .9c-.7-.1-1.3 0-1.7.3-1.1.7-1 .9-1.3 2-.2.8-.8 1.7-1.3 2.2 0 .1-.1.1-.1.2l-.1.1c-.4.3-.4.4-.8.6-.5.3-1 .4-1.3.9-.3.5-.5 1.2-.5 1.9 0 1.3 1.9 2 1.1 4.9-.2.8-.4 1.2-.1 2 .1.2.2.5.3.7.2.3.3.6.6.8 1 .9 1.6.2 3.1 1.3l.7.7c.6.8.5 1.5 1.4 2 .5.3 1.6.7 2.3.7.6 0 .7 0 1.2-.4s.7-.7 1.5-.9c2.6-.7 2.6 1.2 4.8-.1 1.1-.6 1.2-1.2 1.5-2.2.3-1.3.9-2 2-2.6l.6-.3c.4-.3.7-.5.9-1 .3-.6.4-1.1.4-1.8s-.5-1.2-.8-1.7c-1-1.9-.2-3.3-.2-4.6 0-.5-.2-1.1-.4-1.4-.9-1.4-2.2-.8-3.8-2.1-.6-.5-.8-.9-1.2-1.5-.3-.5-.5-.9-1.1-1.2-.7-.3-1.2-.4-1.8-.4-.6 0-1.3.5-1.7.7-.5.3-1.3.6-2 .6z" fill="#148F0B"/><path fill-rule="evenodd" clip-rule="evenodd" d="M11 14.8l-3.3-3.3L9 10.1l2 1.9 4.7-4.7L17 8.7l-6 6.1zm.6 3.3c.8 0 1.3 0 2.2-.2 1-.3 1.5-.5 2.3-1.1l.5-.4c.8-.7 1.4-1.4 1.8-2.4 1.2-2.7.6-5.9-1.4-7.9l-.4-.4c-.2-.2-.8-.6-1-.7-.3-.2-.8-.4-1.2-.6-1.7-.6-3.8-.5-5.4.3-1.7.7-2.7 1.8-3.5 3.4-.3.6-.5 1.4-.6 2 0 .3 0 .5-.1.8v.8c.2 1.3.5 2.4 1.3 3.5l.3.4c.7.8 1.6 1.5 2.6 1.9.8.3 1.9.6 2.6.6zM13.8 24.8c0 .2.6 1.4.7 1.7l1.2 2.7c.2.5 1.8 4.2 1.9 4.4h.1c0-.1.1-.3.1-.4 0-.1.1-.2.1-.4.1-.3.1-.5.2-.7.1-.5.3-1 .4-1.4l.9-2.9 1 .5c.1.1.2.1.3.2l2.7 1.3c.2.1 1.2.6 1.4.6-.1-.3-3.1-7.1-3.4-8-.1-.2-.2-.4-.2-.6L19.4 23c-.8.5-1.6.8-2.4 1.1-.3.1-.6.2-1 .3-.3.1-.7.2-1.1.2-.2 0-.4.1-.5.1-.2.1-.4.1-.6.1zM0 30.4c.1 0 1.5-.7 1.7-.8.1-.1.2-.1.3-.2.1-.1.2-.1.3-.2.1-.1.2-.1.3-.2.2.1.3 0 .4 0 .1-.1.2-.1.3-.2l1.8-.8c.1-.1.2-.1.4-.1 0 .2.3 1.2.4 1.4l1.2 4c0 .1.1.2.1.4.1-.1.1-.1.1-.2l3.5-8c.3-.6.3-.1-2.4-.8-.2 0-.4-.1-.5-.2l-.5-.2c-.9-.3-2-.9-2.8-1.4-.1-.1-.1-.1-.2-.1l-.6-.4c-.1.2-.1.3-.2.5l-1.2 2.6c-.1.2-.1.3-.2.5s-.2.3-.2.5c-.1.2-.1.3-.2.5L0 30.4z" fill="#148F0B"/></svg>