<svg width="25" height="23" fill="none" xmlns="http://www.w3.org/2000/svg"><path d="M23.898 11.764c.518-.583.806-1.296.806-2.039 0-1.178-.775-2.293-2.023-2.915a2.378 2.378 0 00-1.06-.244h-7.404l.185-3.225c.043-.78-.28-1.52-.91-2.084-.31-.278-.683-.499-1.097-.65a3.8 3.8 0 00-1.31-.226c-1.605 0-3.025.918-3.452 2.233l-2.652 8.16H.988c-.546 0-.988.376-.988.84v9.552c0 .464.442.84.988.84h18.568c.284 0 .562-.048.818-.142 1.47-.533 2.418-1.753 2.418-3.107 0-.33-.055-.656-.167-.97.52-.583.806-1.297.806-2.04 0-.33-.055-.656-.166-.97.518-.583.806-1.297.806-2.04a3.09 3.09 0 00-.173-.973zM2.223 20.116v-7.452h2.502v7.452H2.223zm19.652-9.263l-.676.499.43.666c.14.22.214.467.212.717 0 .433-.222.845-.605 1.128l-.676.499.429.666c.141.22.215.466.213.717 0 .433-.222.845-.605 1.128l-.677.499.43.666c.141.22.214.466.213.716 0 .588-.408 1.118-1.038 1.36H6.701V12.58l3.072-9.46c.08-.242.25-.456.485-.609.235-.153.522-.237.819-.238.234 0 .466.058.651.176.306.194.47.488.45.8l-.296 5.206h9.709c.55.286.89.769.89 1.27 0 .433-.223.842-.606 1.128z" fill="#fff"/></svg>