<svg width="131" height="97" fill="none" xmlns="http://www.w3.org/2000/svg"><g clip-path="url(#clip0_2_302)"><path fill-rule="evenodd" clip-rule="evenodd" d="M20.651 70.068h28.364V53.847H23.103a52.386 52.386 0 00-2.45 15.913V69.773c-.002.099-.002.196-.002.295zm44.86-52.734c26.644 0 48.249 23.462 48.249 52.407 0 .105-.006.215-.006.327h-1.562v-.32c0-28.005-20.9-50.701-46.681-50.701-25.782 0-46.69 22.696-46.69 50.7 0 .112.007.216.007.32h-1.562c0-.11-.006-.221-.006-.326 0-28.945 21.599-52.407 48.25-52.407zm7.463 47.649h1.777v-1.784h-1.777v1.784zM70 63.199v.594h1.19v1.19h.594v-1.19h.594V63.2H70v-.588h-.594v.588H70zm-1.19 2.38h1.784v-1.19h-1.19v-.595h-.594v1.784zm5.941-4.753h.594v-1.19h-.594v1.19zm-19.005-5.94h.595v-.594h-.594v.595zm-2.378-7.13h4.156V43.6h-4.156v4.156zm.594-.595h2.967v-2.967h-2.967v2.967zm-.594 20.796h4.156v-4.164h-4.156v4.164zm.594-.595h2.967V64.39h-2.967v2.973zm23.763-23.73h-4.157v4.124h4.157v-4.124zm-3.568 3.529h2.973v-2.967h-2.973v2.967zm-2.373.595h.594v-1.19h-.594v1.19zm2.967-1.19h1.784V44.79h-1.784v1.778zm-20.194 0h1.784V44.79h-1.784v1.778zm0 20.201h1.784v-1.784h-1.784v1.784zm11.88-7.725h-1.783v-.594h1.19v-.594h-1.19v-.588h-.595v-.594h-1.19v.594h.595v.588h1.19v.594h-5.346v-.594h-.595v1.19h-2.372v-.595h1.183v-.594h-.594v-.588h1.19V55.483h-.595v-.594h-.594v.594h-.59v.594h.588v.595h.594v-.595h1.189V54.293h-.594v.595h1.188v.594h.595v1.19h.594v.594h.595v.588h1.19v-.588h-.595v-.594h.594v-.595h-.594v.595h-.595v-1.784h-.594v.594h-.594v-1.19h-.595v-.594h-.594v-.595h.594V51.92h1.19v-.594h.594v-.594h.595v-.595h-.595v.595h-.594v-.595h-.594v-.594h-.595v-.594h.595v-.595h.594v1.19h2.373v.594h-.588v.595h-.594v.594h-.595v1.183h-1.19v.595h.595v1.19h.594v.593h.595v-.594h.594V53.7h.588v-.595h.594v-1.183h-1.777v-.594h1.183v-1.19h.594v.595h.595v-.595h.594v-.594h.594v-.594h.595v-1.784h-.595v1.19h-2.379v-.595h.594v-.594h-.594v.594h-.588v-.594h-.594v-.595h.594v-.588h-.594v-.594h1.183v.594h.594v.588h1.784v-.588h.595v.588h1.19v.595h-.595v.594h.594v.594h1.778v-.594h.594v-1.19h1.19v.595h-.595v1.19h.595v.594h-2.38v1.19h-.587v-1.19h-.595v1.19h.595v.594h-.595v.594h1.183v-1.19h1.189v-.594h-.594v1.189h.594v.594h.594v-.594h1.19v.594h.594v-.594h.595v.594h.594v-.594h.594v1.19h-.594v1.182h-.594v-1.183l-.595.027v1.156h.595v.595H70.59v1.189h-.595v.594h1.19v.594h.594v-1.19h-.594v-.594h-1.189v-1.19h.595v-.594h-.595v-.562l-1.19-.033v1.19h-1.182v-.595h.587v-.588H67.03v1.184h-.594v.594h-.594v-1.192h.594v-.587h-.594v-.595h-.595v-.594h-.594v.594h-.594v1.183h1.19v1.19h-1.785v.594h-.594v1.19h.594v-.594h1.784v-.595h1.19V53.7h.594v-.594h.594v1.19h-.594v1.189h1.183v1.19h.595v-1.785h.594v2.38h-.594v1.183h-.595v-.595h-.588V56.08h-1.188v-1.19h-.595v.595h-.594v.594h-.594v-.594h-.595v.594h.595v.594h.594v-.594h1.19v.594h-.595v.595h.595v.587h.594v.595h-.594v.592h-.001zm5.347-8.312h-.594v-.594h-.595v-.595h1.784v-.594h1.19v-.595h-.594v-2.966h-.595v-1.19h-1.19v.594h.595v1.19h-.594v-.594h-.595v-1.19h-.594v.594h-.594v.595h1.19v.594h-1.785v1.777h-.594v-1.19h-1.183v-1.182h.594v.594h.588v-.594h-.588v-.595h.588v-.594h-.588v.594h-.594v.595h-.594v-.595h-.595v.595h-.594v.594h-1.784v-.594h1.19v-.595h.594v-.594h-.595v-.563h-.594v.563h-1.189v.594h.595v-1.157h-2.967v.563h-.595v.594h-.594v-.594h-.594v-.563l-.595-.039v1.79h.595v.595h-.595v.588h.595v.594h-.595v.594h.595v-.594h.594v1.19l-4.157.032v1.157h-.594v-.594h-.594v-.563l-.595-.032v.594h.595v.594h-.595v.595h1.784v.594h-.594v1.19h.594v-1.19h1.183v.594h-.594v.595h.594v-.595h1.183v-.594h1.784v1.19h-1.19v1.777H56.93v.594h.594V53.1h-.594v-.595h.594v-.587h-.594v.587h-1.183v.595h.594v.594h-1.19V53.1h-.594v-.595h-.594v-1.777h-.594v1.777h.594v.595h-.594v1.19h.594v1.19h-.594v.593h.594v.595h-.594v.594h.594v-.594h.594v-.595h1.189v-.594h-.594v2.967h-.595v.595h-.594v1.783h.594v1.19h.595v.594h.594v.588h.595v-.588h.588v.588h1.19v2.974h1.19v.594h-.595v.595h-.594v.594h2.973v-.594h.595v.594h.594v-.594h-.594v-.595h.594v-1.19h.588v1.19h.594v.595h.594v.594h1.19v-.594h-1.19v-.595h1.784v-.594h-1.19v-.594h-1.188v.594h.594V64.98h.595v-.594h-.595v.594h-.594v-1.19h.594v-1.183h-1.19v-.594h1.19v-.594h.595v-.595h-.595v.595h-.594v-1.188h-.594v-.594h-.588v-.595h1.183v.595h.594v-.595h.595v.595h.594v2.379h1.19v-.595h-.595V59.64h.595v-.595h1.19v-.594h.587v.594h.594v-.594h.595v1.19h.594v-1.785h-.594v-.587h.594v-1.19h.594v.594h1.784V54.89h2.373v.594h-1.777v1.19h.594v.594h-.594v.588h-1.19v-.588h-1.19v.588h.595v.594h-.594v1.19h.594v-.595h1.189v-.594h-.595v3.568h1.784v.594h-2.973v-.594h.594v-.595H70v.595h-2.373v-.595h1.183v-1.191h-.594v-.594h-1.183v.594h1.183v.594h-1.183v1.19h.594v.594h1.183v.588h-.594v2.974h.594v1.19h.595v.594h.594v-.595h-.594v-.594h.594v-.594h1.784v-.595h.594v.595h.595v.594h.594v.594h.588v-.594h.594v1.19h.595v-.595h1.19v-1.19h.594v1.19h.594v-1.19h-.594v-.594h.594v-.594h-1.19v.594H74.747v.595h.595v.594h.594V63.793h-.594v.595H77.126v-.595h-.595v-1.777h1.19v-.594h-1.19v-.595h.595v-.594h.594v-1.784h-.594v-1.183h-.595v-.594h-1.19v-.595h-.594v-.594h.595v-1.19h.594v1.784h.594v-1.784h.595v1.19h.594v-1.19h-.594V53.7h-.595v.594h-.594V53.7h-1.19v.594h-1.183v-1.786h.588v.595h.595v-.595h.594v.595h1.19v-.595h-.595v-1.183h-1.784V49.54h1.19v-1.157l-.595-.032v.594h-.594v.594h-.588v.595H71.78v.596h.004zm1.784 5.94v-.594h1.183v.595h-1.183zm1.183 0h.594v1.184h-.594v.594h-.594v-1.183h.594v-.594zm-18.41 1.778h-.594v-1.777h.594v1.777zm-.595 0v.594h-.594v-.594h.594zm2.967-13.064v-.595h.594v.595h-.594zM71.19 67.957h1.784v-.595H71.19v.595zm6.535-19.573H75.94v.562h1.784v-.563zM68.81 67.362h-1.183v-.594h-.594v-.594h.594V63.2h-1.19v.594h-.594v.595h-.594v.594h.594v.594h.595v1.784h1.19v.595h1.182v-.594zm-6.528-7.724v.594h-1.19v-.594h1.19zm0 .594h.588v.594h-.588v-.594zm0 .594v.595h-1.19v-.595h1.19zm-1.19.596v.594h1.19v.594h-.594v.588h-.595v.594H60.5v.595h-.594v-.595h-.595v.595h.595v1.19h-1.192v-2.38h-.594v-.588h-1.19v-.594h1.784v-.594h-.594v-.595h1.784v-1.19h.594v1.785h-.594v.594h.594v-.594h.595zm-4.163.594h-1.183v-.594h-.594v-1.19h-.595v-.594h1.19v.594h.594v-.594h2.373v.594H56.93v.594h.594v.595h-.594v.595zm-.588-2.378h-.594v-.595h.594v.595zm5.346 3.561h1.777v.594h-.594v1.19h-.588v.594h-.594v.595h-.595v1.19H60.5v-.595h-.594v-.594h.594v-.595h.594v-1.19h.595V63.2h-.001zm-1.784 3.568v.594h-.595v-.594h.595zm10.691-18.416v-1.19h.595v1.19h-.595zm-10.691-3.562h.594v2.967h-.594v-1.19h-.595v-.587h.595v-1.19zm.595 0v-.594h.594v.594h-.594zm.594 0h.595v.595h-.595v-.595zm11.286 4.157h-1.19v-.594h1.19v.594zm4.157 12.476v.594h-.594v-.594h.594zM57.525 50.73H56.34v-.594h1.778v-.595h.594v-.594h-.594v.594h-.595v-.594h-.594v.594h.594v1.189zm-1.184-.595h-1.19v-.595h.595v-.594h.595v1.189zm5.941 11.88v-.593h.588v.594h-.588zm8.312-15.448v-.588h.595v.588h-.595zm6.536 16.632h.595v-.588h-.595v.588zm-23.168-7.124v-.594h.594v.594h-.594zm14.848-2.973h.595v1.19h-1.19v-.595h.594v-.595h.001zm.595 0v-.595h.594v.595h-.594zm3.569 7.13h.594v-.594h-.594v-1.784h.594v1.19h.588v2.379h.594v1.188h.594v-.594H73.567v-.595h-.594v-1.19zm0-.594v.594h-.595v-.594h.595zm3.561-2.373v1.183h-.594v-1.183h.594zm-.594 1.183v.594h-.595v-.594h.595zm0 .594h.594v-.594h.594v1.784h-.594v-.594h-.594v-.596zm.594 1.19v.594h-.594v-.594h.594zM65.25 63.199h.594v-.588h-.594v.588zm-4.751-12.47v.595h-.594v-.594h.594zm5.345-5.345h.595v.594h-.595v-.594zm-4.156.595v.588h-.595v-.588h.595zm0 1.182v.594h.594v.595h.588v.594h-1.183v-.594h-.595v-1.19h.596v.001zm-2.379 16.038h.595v-.588h-.595v.588zm-5.346-8.908v-1.19h.594v.595h.595v1.19h-.595v-.595h-.594zM65.843 64.39h.595v-.595h.594v1.19h-1.19v-.595h.001zm.595-7.124v-.594h.594v.594h-.594zm7.719 9.502h-.588v-.594h-.594v-.595h1.183v1.189h-.001zm-.589-2.378h.588v-.595h-.588v.595zm-6.535-16.633v-.594h.594v.594h-.594zm8.908 2.379h.594v1.784h.594v.587h.595v-2.372h-1.19v-.595h-.594v.596h-.595v.594h.595v-.594zm-11.882-2.379h.595v-.594h-.595v.594zm.595 1.784h-.595v.595h-.594v-1.19h1.19v.595h-.001zm1.784-5.908h-.595v.563h.595v-.563zm2.967 0h-.595v.563h.595v-.563zm-5.346.562h.595v.594h-.595v-.594zm-15.044 7.3V24.438c-11.398 4.901-20.508 14.724-25.109 27.056h25.11zm3.033 18.574h26.925v-28.71H52.048v28.71zm26.924-31.063v-8.751H52.048v8.751h26.924zm0-11.103v-4.627A41.576 41.576 0 0065.51 21.04a41.57 41.57 0 00-13.463 2.235v4.627h26.925zm3.033 42.166h28.364v-.308c0-5.575-.863-10.927-2.451-15.913H82.005v16.22zm25.102-18.574c-4.594-12.332-13.704-22.155-25.102-27.056v27.056h25.102z" fill="url(#paint0_linear_2_302)"/><path d="M10.482 79.151h4.738v-4.005H.457v4.005h4.744V92.32h5.281V79.15zm7-4.005V92.32h13.442v-4.006h-8.169v-2.692h6.647V81.61h-6.647v-2.457h7.856v-4.006h-13.13v-.002zm16.011 0V92.32h5.28V79.15h4.987V92.32h5.28V75.146H33.494zm20.266 0v8.848c0 .803-.026 1.478-.072 2.02-.053.542-.117.973-.21 1.3-.091.333-.202.58-.34.752a.968.968 0 01-.457.333c-.176.06-.366.086-.581.086-.196 0-.366-.007-.51-.02a4.841 4.841 0 01-.38-.053 2.89 2.89 0 01-.313-.098v4.006c.346.092.666.156.96.215.302.053.602.086.903.112.307.02.633.033 1 .033.6.006 1.163-.073 1.68-.236a3.479 3.479 0 001.398-.81c.419-.378.772-.901 1.065-1.561.295-.654.517-1.483.673-2.47.157-.994.236-2.176.236-3.555v-4.896h3.783v13.169h5.274V75.146h-14.11zm27.84 0L75.79 85l.268-4.392v-5.463H71V92.32h4.947l5.81-9.85-.268 4.386v5.464h5.058V75.146H81.6zm13.352 0h-5.274V92.32h11.894v3.96h5.058v-7.966h-1.411v-13.17h-5.275v13.169h-4.992V75.146zm19.102 9.998h1.32c.418-.006.81.007 1.163.04.353.026.66.092.922.19.262.104.464.267.607.483.137.216.216.51.216.882-.006.425-.105.752-.301.98-.202.23-.47.386-.816.471-.341.092-.726.13-1.164.124h-1.947v-3.17zm0-9.999h-5.281v17.176h7.719c1.405 0 2.601-.203 3.594-.601 1.007-.405 1.771-1.014 2.307-1.83.536-.81.803-1.83.81-3.053-.007-.94-.157-1.764-.471-2.476a4.605 4.605 0 00-1.326-1.778c-.582-.483-1.274-.843-2.092-1.084-.816-.242-1.731-.366-2.758-.366h-2.503v-5.987h.001zm16.711 0h-5.28v17.176h5.28V75.146zM0 64.186l4.248.752c.594.098 1.137.111 1.627.032.49-.085.928-.235 1.307-.45.385-.216.712-.478.994-.792.274-.314.503-.647.666-1.013a4.07 4.07 0 00.353-1.091 29.381 29.381 0 00.287-1.921c.02-.222.033-.425.04-.595a5.77 5.77 0 000-.477c-.007-.15-.02-.294-.033-.444l5.549.98.712-4.058-13.724-2.417-.713 4.058 4.876.856c.04.196.053.464.046.791a9.176 9.176 0 01-.117 1.091c-.085.497-.281.85-.588 1.072-.3.222-.726.287-1.267.196l-3.55-.628L0 64.186zm3.268-16.861l12.829 5.444 4.098-9.654-2.994-1.267-2.49 5.862-2.012-.856 2.026-4.77-2.994-1.268-2.026 4.764-1.836-.778 2.392-5.633-2.993-1.274-4 9.43zm11.293-15.443l.653-.974c.124-.183.268-.372.438-.563.17-.189.359-.345.569-.483.209-.124.431-.196.673-.203.248-.006.503.073.771.249.328.229.55.464.674.712.117.255.15.51.098.778-.053.262-.17.53-.353.798l-.954 1.418-2.57-1.732zm5.267 3.548l1.157-1.725c.666-1 1.052-1.928 1.157-2.784.098-.862-.046-1.654-.445-2.366-.405-.712-1.02-1.353-1.856-1.909-.797-.543-1.588-.843-2.392-.915-.798-.065-1.582.124-2.34.57-.765.437-1.483 1.156-2.164 2.157L9.56 33.477l11.554 7.79 2.307-3.412-3.593-2.425zm-.45-15.207l9.501 10.188 7.672-7.15-2.215-2.38-4.66 4.347-1.49-1.601 3.79-3.535-2.221-2.38-3.79 3.535-1.36-1.457 4.483-4.177-2.222-2.379-7.489 6.989zM32.153 9.479L38.264 22l3.7-1.803-4.68-9.6 3.497-1.707 4.686 9.6 3.698-1.803-6.11-12.528-10.901 5.32zm23.2-5.405c.444-.085.85-.046 1.21.105.352.15.66.392.927.713.268.327.484.706.66 1.13.176.432.314.882.405 1.353.112.57.163 1.098.17 1.595 0 .497-.06.94-.183 1.333-.13.385-.327.712-.6.967-.269.255-.621.425-1.06.51-.384.072-.731.06-1.038-.046a2.09 2.09 0 01-.816-.503 3.444 3.444 0 01-.608-.83 5.817 5.817 0 01-.438-1.013 8.443 8.443 0 01-.274-1.072 8.108 8.108 0 01-.137-1.071 5.223 5.223 0 01.046-1.065c.046-.346.137-.66.268-.955.13-.294.32-.542.562-.738.24-.204.54-.341.906-.413zm-.62-3.353c-.962.19-1.804.53-2.523 1.013a5.886 5.886 0 00-1.765 1.83c-.45.732-.745 1.562-.888 2.49-.137.928-.105 1.935.098 3.013.229 1.163.588 2.17 1.072 3.013.477.85 1.064 1.53 1.757 2.046A5.681 5.681 0 0054.8 15.15c.85.17 1.764.157 2.738-.026a6.913 6.913 0 002.013-.713 6.078 6.078 0 001.608-1.26 6.026 6.026 0 001.097-1.752c.282-.666.445-1.398.51-2.202.066-.803.007-1.68-.17-2.608a8.944 8.944 0 00-.666-2.078c-.3-.66-.68-1.26-1.137-1.797a6.085 6.085 0 00-1.588-1.333c-.607-.36-1.28-.601-2.026-.726-.746-.124-1.563-.098-2.445.065zM70.796 8.61l1.3.176c.32.046.62.098.889.163.274.06.503.143.692.255a.98.98 0 01.412.45c.085.19.111.432.072.733-.052.34-.17.594-.346.758a1.175 1.175 0 01-.68.288 3.35 3.35 0 01-.914-.026l-1.784-.248.359-2.55zm.68-4.817l1.43.203c.223.026.425.065.621.111.196.04.366.105.517.196a.836.836 0 01.32.379c.073.163.086.372.046.64-.039.268-.13.484-.274.647a1.09 1.09 0 01-.55.334c-.222.059-.47.072-.745.032l-1.692-.241.326-2.301zm-5.568 10.012l6.064.85c.81.117 1.555.15 2.235.091.673-.052 1.267-.209 1.784-.464a3.204 3.204 0 001.267-1.137c.328-.497.543-1.124.654-1.896.072-.503.059-.98-.04-1.431a3.096 3.096 0 00-.542-1.21 2.723 2.723 0 00-1.046-.816 3.827 3.827 0 001.274-1.026 3.2 3.2 0 00.49-.784c.138-.294.23-.614.282-.967.092-.687.04-1.268-.15-1.758a2.908 2.908 0 00-.922-1.216 5.215 5.215 0 00-1.522-.772 10.545 10.545 0 00-1.94-.43L67.849.001l-1.94 13.803zm18.9-10.784l-5.444 12.83 9.653 4.097 1.267-2.993-5.861-2.49.855-2.013 4.771 2.026 1.267-2.993-4.764-2.026.779-1.83 5.633 2.393 1.274-2.994-9.43-4.006zm17.704 9.274l-3.288-2.477-8.391 11.13 7.417 5.587-1.935 2.568 3.15 2.373 3.888-5.162-.875-.667 6.424-8.529-3.287-2.477-6.431 8.53-3.104-2.34 6.432-8.536zm13.449 13.084l-2.476-3.288-11.13 8.391 2.477 3.288 3.523-2.66 1.503.099-2.622 5.751 2.974 3.941 3.882-9.28 6.953.504-2.908-3.856-5.777-.17 3.601-2.72zm10.535 19.227l-9.129-1.052 3.358-1.203 4.078-1.731-1.535-3.627-12.829 5.444 1.502 3.548 9.13 1.052-3.359 1.203-4.077 1.731 1.542 3.627 12.829-5.444-1.51-3.548zm2.719 9.038l-13.724 2.418 1.823 10.326 3.202-.563-1.104-6.273 2.151-.379.901 5.105 3.203-.563-.902-5.104 1.967-.346 1.065 6.032 3.202-.569-1.784-10.084z" fill="#DE1F25"/></g><defs><linearGradient id="paint0_linear_2_302" x1="65.501" y1="70.056" x2="65.501" y2="21.038" gradientUnits="userSpaceOnUse"><stop stop-color="#E31E24"/><stop offset="1" stop-color="#9D3C43"/></linearGradient><clipPath id="clip0_2_302"><path fill="#fff" d="M0 0h131v96.282H0z"/></clipPath></defs></svg>