<svg width="35" height="34" fill="none" xmlns="http://www.w3.org/2000/svg"><path fill-rule="evenodd" clip-rule="evenodd" d="M2.4 9.8c.3.2.6.3.8.4.3.1.6.2.9.4.2.1.3.1.4.2l.5.1c.9.3 1.7.5 2.6.7.9.1 1.7.2 2.7.2h.6c.5-.1 1.2-.1 1.8-.1.9-.1 1.8-.3 2.7-.5.9-.2 1.8-.5 2.6-.9l.1-.1c.1-.1.3-.1.4-.2l.3-.1v2.8l-.2.1c-.1 0-.2.1-.3.1h-.1c-.6.3-1.2.5-1.8.7-.6.2-1.2.3-1.9.5-.5.1-.9.1-1.4.2-1.2.1-2.3.1-3.3 0-1.1-.1-2.1-.3-3.3-.5-.8-.2-1.4-.3-2-.5-.5-.1-1.1-.3-1.8-.5-.1 0-.1-.1-.2-.1s-.2-.1-.3-.1l-.2-.1V9.6l.4.2zM9.8 0h-.3C9 0 8.6 0 8.1.1c-.5 0-.9.1-1.4.2-1.2.1-2.2.4-3.2.7-1 .3-1.9.8-2.9 1.3-.1.1-.3.2-.4.3-.1.1-.2.2-.2.4v3c0 1.3 0 2.5.1 3.8 0 2.2.1 4.4.1 6.5v6.6c0 .1 0 .3.1.4 0 .1.1.2.1.3l.5.5c.4.3 1 .7 1.2.8l1.4.8c.2.1.4.2.6.2.3.1.5.2 1 .4.3.1.6.2.8.3.3.1.5.2.9.2 1.1.3 2.1.4 3.1.5 1 .1 2 0 3.2-.2.1 0 .2 0 .3-.1h.2v-.1c-.1-.2-.1-.4-.2-.8v-.2c-.1-.3-.1-.5-.1-.8-.8.2-1.8.2-2.8.2-1.1 0-2.3-.1-3.1-.3-.7-.2-1.3-.3-1.8-.6-.6-.2-1.1-.5-1.7-.8-.5-.2-.9-.4-1.3-.8-.6-.1-.5-.4-.5-.8v-2.4l.4.2c.3.2.7.3 1.1.5.5.2 1.1.4 1.5.5 1.3.4 2.4.7 3.5.8 1.1.1 2.2.1 3.6 0 .2 0 .4 0 .6-.1.1 0 .3 0 .4-.1.1-.7.5-1.5.7-2.1l-1.1.2c-1 .2-2 .2-3 .2-1-.1-2.1-.2-3.1-.5-.6-.1-1-.3-1.4-.4-.4-.2-.9-.3-1.4-.6-.2-.1-.5-.2-.8-.4-.4-.2-.7-.4-.8-.4l-.3.1v-2.9l2.3.7c1 .3 2.1.5 3.3.7 1.1.2 2.2.3 3.3.3.9 0 1.7 0 2.5-.1s1.6-.2 2.5-.4l.2-.1c.2 0 .3-.1.4-.2.7-.6 1.2-.9 1.9-1.3l.1-.1c.2-.1.8-.4 1.3-.6.3-.1.5-.2.7-.2v-1.4-4c0-.3 0-1 .1-1.7.1-.9.1-1.9.1-2v-.5c0-.2 0-.3-.2-.6-.4-.6-1.4-1.1-2.5-1.5-1-.3-2.2-.6-2.8-.8L12.5.2C11.6.1 10.7 0 9.8 0zM2.2 5.5c.2 0 .3.1.4.2l.1.1.2.1 1.1.4c1.8.7 3.7 1.1 5.6 1.2 1.8.1 3.7-.1 5.4-.6l.9-.3c.3-.1.6-.2.9-.4l.2-.1c.2-.1.5-.2.7-.3l1.2-.7v2.6l-.2.1c-1.1.6-2.1 1-3.1 1.4-1 .3-2.1.6-3.4.7H9.6c-1.5-.1-2.4-.2-3.9-.7l-1.5-.6c-.4-.2-.9-.4-1.3-.7l-.2-.1c-.2-.1-.5-.3-.5-.3h-.3v-.3-.7-1.1l.3.1zm1-2.3l.7-.2c1.6-.6 3.3-.9 5-1 1.7-.1 3.5.1 5.1.5.5.1 1.1.3 1.7.5.1 0 .3.1.4.1.1 0 .3.1.4.2l.5.2c.1 0 .2.1.2.1l.5.1c-1.2.8-1.3 1.1-3.4 1.6-1.3.4-2.6.5-3.9.5-1.3 0-2.6-.2-3.9-.6-.5-.2-.9-.4-1.3-.5-.5-.2-.9-.4-1.3-.5-.2-.2-.5-.3-.7-.4l-.1-.1v-.1c-.1 0-.1-.1-.1-.1l-.1-.2.3-.1zM21.7 2.6c.2.3.3.6.3.9 0 .2 0 .3.1.5h.1c1.1-.3 2.3-.5 3.5-.5 1.3 0 2.5.1 3.8.4l.9.3.4.1c.1 0 .2.1.3.1l.5.2c.2.1.3.1.5.2l.3.2-.2.3c-.1.2-.5.3-.9.5-.6.2-1.3.5-1.5.6-1 .2-1.9.4-2.9.4-.9 0-1.9-.1-2.9-.3-.4-.1-.7-.2-1-.3l-.9-.3v.4c-.1.1-.1.6-.1.9l.4.2c1.5.4 2.8.6 4.1.6 1.3 0 2.6-.2 4.1-.6.2-.1.6-.2 1-.4.3-.1.7-.3.8-.4l1-.6v2.1l-.8.4c-.8.4-1.9.8-3 1-1 .2-2.1.4-3 .3h-.4c-.4 0-.9-.1-1.4-.1-.7-.1-1.3-.3-1.8-.4L21.9 9v1.5l.9.3c1.1.3 2.4.5 3.6.5 1.3 0 2.5-.1 3.7-.4.6-.1.9-.2 1.3-.4.4-.1.7-.2 1.2-.5l.1-.1c.1 0 .2-.1.3-.1l.3-.1V12l-.2.1c-.1.1-.3.1-.4.2h-.1c-.7.3-1.5.6-2.3.7-.8.2-1.6.3-2.3.3h-1.4c.7.2 1.4.6 1.9.9l.1.1c.1.1.2.1.4.2.1.1.2.1.2.2h.1c.6-.1 1.3-.2 1.9-.3.5-.1 1-.3 1.5-.4h.1c.1 0 .2-.1.3-.1h.3v1.8l-.1.1c-.5.4-.9.5-1.4.8l-.2.1-.3.1c.3.3.6.8.8 1.1.1 0 .1-.1.2-.1h.1l.2-.1c.1-.1.3-.1.4-.2l.4-.1v2.3c0 .2 0 .2-.1.3.1.4.3.9.4 1.3l.1-.1c.8-.5 1-.6 1-1.7 0-3.7-.2-8.8.1-12.4V5.6c0-.4 0-.7-.1-.8-.1-.3-.5-.5-.9-.8-.4-.3-.9-.5-1.3-.6-.8-.3-2-.7-3.3-.9-1.1-.2-2.1-.4-3-.4-.9 0-1.7 0-2.4.1s-1.4.2-2.3.4zM23.1 13c-.4-.1-.8-.2-1.3-.3v.4h.1c.4-.1.8-.1 1.2-.1z" fill="#148F0B"/><path fill-rule="evenodd" clip-rule="evenodd" d="M15.9 24.2c0-.7.1-1.2.2-1.8.1-.5.3-1 .5-1.5.1-.3.3-.7.5-1l.6-.9v-.1c.1-.1.1-.2.2-.2l.1-.1c0-.1.1-.1.1-.2.3-.3.7-.6 1-.9.4-.3.8-.5 1.2-.8 1.1-.5 2.2-.8 3.2-.8 1.1 0 2.2.3 3.2.8.2.1.4.3.6.4.2.1.4.3.6.4l.5.5c.2.2.4.4.5.6.2.2.3.4.4.6.1.2.3.4.4.6l.2.3c.1.1.1.2.2.3.6 1.2 1 2.4 1 3.7.1 1.2-.1 2.3-.7 3.4-.3.6-.6 1.1-1 1.5-.4.4-.8.8-1.4 1.2-.3.2-.5.3-.7.5l-.8.4c-1 .5-2.1.8-3.1.8s-2.1-.2-3.1-.8c-.3-.1-.7-.4-1-.6-.3-.2-.6-.4-.7-.6l-.1-.1c-.1-.1-.2-.2-.4-.3l-.4-.5c-.1-.1-.2-.2-.2-.3l-.2-.3c-.4-.7-.8-1.4-1-2.2-.3-.4-.4-1.2-.4-2zm6.8 9.4c.4 0 .7.1 1.1.1.7 0 1.4-.1 2-.3 2-.5 3.8-1.7 5-3.3 1.2-1.6 1.9-3.6 1.9-5.7 0-.7-.1-1.3-.3-2-.1-.2-.1-.5-.2-.7-.1-.2-.1-.4-.2-.7-.1-.3-.3-.7-.5-1.1-.2-.3-.3-.6-.5-.9l-.2-.4-.2-.3-.3-.3c-.1-.1-.4-.4-.6-.7l-.5-.5c-.2-.2-.4-.3-.5-.4-.3-.2-.4-.4-1.2-.8-.5-.3-1.1-.5-1.8-.7-.6-.2-1.3-.3-1.8-.3h-.7c-.9 0-1.7.2-2.6.5-1 .4-1.9.9-2.6 1.5-.2.2-.5.4-.7.7-.2.2-.5.5-.6.7-.3.4-.5.7-.7 1-.2.3-.3.6-.6 1.1-.1.1-.1.2-.2.3-.1.1-.1.3-.2.4-.2.5-.3 1-.4 1.5-.1.4-.1.9-.1 1.3V25c0 .4.1.8.3 1.3 0 .1.1.3.1.5 0 .1.1.3.1.4l.1.2.3.6c.2.4.4.8.6 1.1.2.3.4.6.7 1l.1.1.4.5c.3.3.6.6.9.8.3.2.6.5 1 .7l.6.3c.2.1.6.3.9.4.4.1.7.2 1 .3.3.3.7.3 1.1.4z" fill="#148F0B"/><path fill-rule="evenodd" clip-rule="evenodd" d="M21.1 29.6v-1.8h-2v-1.1h2v-1.1h-2v-1.1h2v-4.7h3.7c.7 0 1.2 0 1.5.1.5.1.9.2 1.2.5.3.2.6.5.8 1 .2.4.3.9.3 1.3 0 .8-.3 1.5-.8 2.1-.5.6-1.5.9-2.9.9h-2.5v1.1h2.1v1.1h-2.1v1.8h-1.3v-.1zm1.3-5.1H25c.8 0 1.4-.2 1.8-.5.4-.3.5-.8.5-1.3 0-.4-.1-.8-.3-1.1-.2-.3-.5-.5-.8-.6-.2 0-.6-.1-1.2-.1h-2.5v3.6h-.1z" fill="#148F0B"/></svg>