<svg width="31" height="31" fill="none" xmlns="http://www.w3.org/2000/svg"><path fill-rule="evenodd" clip-rule="evenodd" d="M28.9 27.9c-.8 0-1.5.7-1.5 1.5s.7 1.5 1.5 1.5 1.5-.7 1.5-1.5-.6-1.5-1.5-1.5zm0 2c-.3 0-.5-.2-.5-.5s.2-.5.5-.5.5.2.5.5-.2.5-.5.5zM3 1.5C3 .7 2.3 0 1.5 0S0 .7 0 1.5.7 3 1.5 3C2.3 2.9 3 2.3 3 1.5zm-2 0c0-.3.2-.5.5-.5s.5.2.5.5c0 .2-.2.5-.5.5S1 1.7 1 1.5zM26.4 19.4l-1-1.9c.2-.4.4-.8.5-1.3l2-.7V9.9l-2-.7c-.1-.4-.3-.8-.5-1.2l1-1.9-4-4-1.9 1c-.4-.2-.8-.4-1.3-.5l-.7-2h-5.6l-.7 2c-.4.1-.8.3-1.3.5L9 2.1l-4 4L6 8c-.2.4-.3.8-.5 1.2l-2 .7v5.6l2 .7c.1.4.3.8.5 1.2l-.6 1.1H2.5v9.8h3.4v-1.5h3.7l1.5 1.5h2.7v.5c0 1.1.9 2 2 2s2-.9 2-2v-.5h3.4c.8 0 1.5-.7 1.5-1.5 0-.4-.1-.7-.4-1 .2-.3.4-.6.4-1s-.1-.7-.4-1c.2-.2.3-.5.4-.8l3.7-3.6zM7 17.2c-.3-.5-.5-1-.7-1.6l-.1-.2-1.8-.6v-4.2l1.9-.6.1-.2c.2-.5.4-1 .7-1.6V8l-.8-1.7 3-3 1.7.9.2-.2c.5-.3 1-.5 1.6-.7l.2-.1.6-1.8h4.2l.6 1.8.2.1c.5.2 1 .4 1.6.7l.2.1 1.7-.9 3 3-.8 1.8.1.2c.3.5.5 1 .7 1.6l.1.2 1.8.6v4.2l-1.8.6-.1.2c-.2.5-.4 1-.7 1.6l-.1.2.9 1.8-2.9 2.9-.1-.1c.2-.3.4-.6.4-1 0-.8-.6-1.4-1.3-1.5 2.1-1.7 3.3-4.2 3.3-6.9 0-4.9-4-8.8-8.8-8.8-4.9 0-8.8 4-8.8 8.8 0 2.7 1.2 5.2 3.3 6.9H6l1.2-2.1-.2-.2zM21.6 25c0 .3-.2.5-.5.5h-3.9c-.3 0-.5-.2-.5-.5s.2-.5.5-.5h3.9c.3 0 .5.2.5.5zm-7.1-12.3h2.4l.8-.8V9.8c.5 0 1 .4 1 1V13L17 14.7h-2.5L12.8 13v-2.2c0-.5.4-1 1-1V12l.7.7zm.2 3h2v2h-2v-2zm3-.3l2-2v-2.7c0-1.1-.9-2-2-2h-1v2.7l-.2.2h-1.6l-.2-.2V8.8h-1c-1.1 0-2 .9-2 2v2.7l2 2v2.2h-1.2c-1.7-1.1-2.7-2.9-2.7-4.9 0-3.2 2.6-5.9 5.9-5.9 3.2 0 5.9 2.6 5.9 5.9 0 2-1 3.8-2.7 4.9h-1.3v-2.3h.1zm4.9-2.7c0-3.8-3.1-6.9-6.9-6.9-3.8 0-6.9 3.1-6.9 6.9 0 2.3 1.1 4.4 3 5.6l-.7.7c-2-1.5-3.2-3.8-3.2-6.3 0-4.3 3.5-7.8 7.8-7.8s7.8 3.5 7.8 7.8c0 2.4-1.1 4.7-3 6.1-.1-.3-.2-.7-.5-.9 1.7-1.2 2.6-3.1 2.6-5.2zm-1.5 7.9c.3 0 .5.2.5.5s-.2.5-.5.5h-3.9c-.3 0-.5-.2-.5-.5s.2-.5.5-.5h3.9zm-3.9 2.9c-.3 0-.5-.2-.5-.5s.2-.5.5-.5h3.9c.3 0 .5.2.5.5s-.2.5-.5.5h-3.9zM4.9 27.4H3.5v-7.8H5v7.8h-.1zm6.6 0L10 26H5.9v-5.4H11l2-2h6.2c.3 0 .5.2.5.5s-.2.5-.5.5h-5.1L12 21.7l.7.7 1.1-1.1v6.2h-2.3v-.1zm4.2 2.5c-.5 0-1-.4-1-1v-8.3h1.1c-.1.2-.1.3-.1.5 0 .4.1.7.4 1-.2.3-.4.6-.4 1s.1.7.4 1c-.2.3-.4.6-.4 1s.1.7.4 1c-.2.3-.4.6-.4 1 0 .6.4 1.2 1 1.4v.6c0 .3-.4.8-1 .8zm5.4-2.5h-3.9c-.3 0-.5-.2-.5-.5s.2-.5.5-.5h3.9c.3 0 .5.2.5.5s-.2.5-.5.5z" fill="#148F0B"/></svg>