<svg width="33" height="32" fill="none" xmlns="http://www.w3.org/2000/svg"><path fill-rule="evenodd" clip-rule="evenodd" d="M16.2.02c-.9.3-1.9.8-2.8 1.3-.9.4-3.8 2-4.8 2.7l-2.6 2c-.5.4-1.1.8-1.6 1.3l-1.1 1c-.2.1-.3.3-.5.5l-2 2-.7.8c-.1.1-.1.2-.1.4.1 1.2.3 2.4.5 3.6.8 4.3 2.2 8.6 4 12.1.5 1.1 1 1.9 1.6 2.9.1.2.1.2.3.2 5.9 1.5 13.1 1.5 19.1.2.2 0 .7-.1.8-.2.3-.1 1.7-3 1.8-3.2 1.8-3.6 3.2-7.7 3.9-12.2.1-.7.4-2.9.4-3.6 0-.2-.1-.3-.4-.6-.1-.1-.1-.2-.2-.3-.4-.5-1.8-1.9-2.3-2.3l-.7-.6c-.1-.1-.2-.1-.3-.2-.3-.3-.7-.7-1.1-.9-.1-.1-.2-.2-.3-.2-.1-.1-.2-.1-.3-.2-2.4-2-5.1-3.7-8-5.1l-2.1-1c0-.2-.4-.5-.5-.4zm1.1 18c.1.2.1.4.1.6 0 .3-.1.7-.4.9.5.6 1.1 1.3 1.2 1.4.4.5 1.3 1.6 1.7 2.1l2 2.4c.2.2.4.5.6.7l2.8 3.5c-.2-.1-.4-.2-.6-.4-1.7-1.1-3.5-2.4-5.1-3.5l-3.5-2.3-3.5 2.3c-.4.3-.7.5-1.1.8-.8.5-1.5 1-2.3 1.5l-2.3 1.5 2.3-2.8c.1-.1.2-.2.3-.4l1.4-1.7c.4-.5 1.4-1.6 1.7-2.1l.9-1.1.3-.3 1.1-1.4s.1-.1.1-.2c-.3-.2-.5-.6-.5-1.1 0-.3.1-.5.2-.7l-.3-.1c-.5-.2-1.1-.5-1.6-.7-1.1-.5-2.1-.9-3.2-1.4-.4-.2-6.2-2.7-6.4-2.8.4 0 1 .2 1.4.2 8.4 1.3 12.7 1.5 21.2.3.6-.1 2.7-.5 3.1-.5l-3.2 1.4c-1.1.5-2.2.9-3.2 1.4l-5.2 2.5zM6 9.42c.4-.1.7 0 .8.3.1.3-.2.5-.5.6-.4.1-.7 0-.8-.3-.1-.2.2-.5.5-.6zm3.4.2c0-.5.2-.9.6-.9.3 0 .6.4.7.8 0 .5-.2.9-.6.9-.4.1-.7-.3-.7-.8zm17-.2c.4.1.6.3.6.6s-.4.4-.7.4c-.4-.1-.6-.3-.6-.6s.4-.4.7-.4zm-10.3-8.1c-2.3 1-4.5 2.2-6.6 3.6-.2.1-.4.3-.5.4-.7.4-1.6 1.1-2.2 1.6L5 8.32c0 .1-.1.2-.2.3l-1 .9c-.5.4-1.8 1.7-2.3 2.3-.2.3-.3.1-.2.6.5 5.2 1.9 10 4.1 14.4.4.8.8 1.7 1.3 2.4.3.5 0 .4 1.2.6 5 1 10.2 1.1 15.3.3.2 0 2.2-.4 2.3-.5.2-.1 1.5-2.7 1.6-3 1.6-3.4 2.9-7.1 3.6-11.2.1-.4.5-3 .4-3.2 0-.2-1.6-1.7-1.8-1.9-.6-.6-1.2-1.2-1.9-1.8-.1-.2-.2-.3-.4-.5-.5-.5-1.1-.9-1.5-1.3l-1.1-.8c-1.2-.8-2-1.4-3.4-2.2-.8-.4-1.6-.9-2.4-1.3l-1.9-.9c-.1-.1-.4-.3-.6-.2zm-.1 8.4c-.1-.1-.8-.2-1-.3-.1.2-.1.7-.8.7-.5 0-.6-.3-.7-.8-.1-.5 0-.8.4-1 .4-.2.8-.1.9.3l1-.2c-.1-.4-.4-.7-.7-.8-.7-.3-1.9-.2-2.4.4-.7.7-.5 2.7 1.2 2.8 1.2.2 1.9-.2 2.1-1.1zm3.9.2c-.1-.1-.8-.3-1-.4-.1.4-.3.6-.8.6-.4-.1-.6-.4-.6-.9 0-1.3 1.2-1.1 1.4-.5l1-.1c-.1-.9-1.2-1.2-2-1.2-1 .1-1.6.6-1.6 1.6-.1 1.9 2 2 2.7 1.7.5-.1.8-.4.9-.8zm-15.6-.5l1 3.1 1.1-.3-.3-1.1c.2-.1.5-.1.7-.2.2-.1.5-.2.6-.4.4-.4.3-1.1 0-1.5-.6-.6-2.3.3-3.1.4zm17.3.2l.2-1.7-1.1-.1-.4 3.2 1.1.1c.3-.4.8-.8 1.1-1.1l.4-.4-.3 1.7c0 .1 0 0 .1.1h.1l.8.1.7-3.2c-.9-.1-1-.3-1.3 0l-.9.8-.5.5zm3.8.9c-.4.1-.4.1-.8.5-.1.2-.5.5-.6.7l1.2.3c.4-.3 1.1-1.2 1.4-1l-.3 1.3 1 .3 1-3.1c-.7-.1-1.9-.7-2.7-.7-.9 0-1.1.9-.8 1.4.3.1.3.2.6.3zm-15.1-2.5c-.6 0-1 .1-1.4.4-1.2.9-.6 3.1 1.2 3 1.1-.1 1.9-.5 2-1.6 0-1.1-.7-1.9-1.8-1.8z" fill="#148F0B"/></svg>