<svg width="30" height="30" fill="none" xmlns="http://www.w3.org/2000/svg"><path fill="#C4E3C2" d="M0 0h30v30H0z"/><path fill-rule="evenodd" clip-rule="evenodd" d="M28.125 3.75a1.875 1.875 0 00-1.875-1.875H3.75A1.875 1.875 0 001.875 3.75v22.5a1.875 1.875 0 001.875 1.875h22.5a1.875 1.875 0 001.875-1.875V3.75zM0 3.75A3.75 3.75 0 013.75 0h22.5A3.75 3.75 0 0130 3.75v22.5A3.75 3.75 0 0126.25 30H3.75A3.75 3.75 0 010 26.25V3.75zm10.976 5.899a.938.938 0 10-1.327 1.327l7.682 7.68h-5.19a.938.938 0 000 1.875h7.453a.938.938 0 00.937-.937V12.14a.937.937 0 10-1.875 0v5.19l-7.68-7.682z" fill="#fff"/></svg>