<svg width="30" height="30" fill="none" xmlns="http://www.w3.org/2000/svg"><path fill-rule="evenodd" clip-rule="evenodd" d="M12.7 9.3c-.8 0-1.5.7-1.5 1.5h1c0-.3.2-.5.5-.5s.5.2.5.5h1c0-.8-.6-1.5-1.5-1.5zM16.7 9.3c-.8 0-1.5.7-1.5 1.5h1c0-.3.2-.5.5-.5s.5.2.5.5h1c-.1-.8-.7-1.5-1.5-1.5zM14.7 22.5c-1.1 0-2 .9-2 2s.9 2 2 2 2-.9 2-2-.9-2-2-2zm0 3c-.5 0-1-.4-1-1 0-.5.4-1 1-1 .5 0 1 .4 1 1 0 .5-.5 1-1 1z" fill="#148F0B"/><path fill-rule="evenodd" clip-rule="evenodd" d="M26.5 28.4V22c0-4.1-3.3-7.4-7.4-7.4h-.5l.5-.5h.5c1.4 0 2.4-1.1 2.4-2.5v-.9c.6-.4 1-1.1 1-1.8 0-.8-.4-1.4-1-1.8C22 3.2 18.7 0 14.7 0S7.4 3.2 7.4 7.2c-.6.4-1 1.1-1 1.8 0 1.2 1 2.2 2.2 2.2h.3c.2 1.4.9 2.6 1.9 3.4h-.5c-4.1 0-7.4 3.3-7.4 7.4v6.4H0v1H29.4v-1h-2.9zm-5.4-16.6c0 .7-.6 1.4-1.3 1.4.3-.6.6-1.2.7-1.9h.5v.5h.1zm1-2.7c0 .7-.5 1.2-1.2 1.2h-.2V7.8h.2c.6 0 1.2.6 1.2 1.3zM8.8 10.3h-.2c-.7 0-1.2-.5-1.2-1.2s.5-1.2 1.2-1.2h.2v2.4zm-.2-3.4h-.2c.2-3.3 3-5.9 6.3-5.9 3.4 0 6.1 2.6 6.3 5.9h-.5C20 4.1 17.6 2 14.7 2S9.4 4.1 8.9 6.9h-.3zm11 .9c-3.5-.1-5.9-1.6-5.9-2.9 0-.3-.2-.5-.5-.5s-.5.2-.5.5c0 1.2-1.3 2.2-2.9 2.4.3-2.5 2.3-4.4 4.9-4.4 2.7 0 4.9 2.2 4.9 4.9zm-9.8 2.5v-2c1.5-.1 2.8-.9 3.5-1.9 1 1.4 3.4 2.3 6.3 2.4v1.5c0 1.1-.4 2.1-1 2.9h-3.9v1h2.9c-.3.2-.6.4-.9.5-1.3.6-2.8.6-4 0-1.7-.7-2.9-2.4-2.9-4.4zm3.4 5.7c.5.1 1 .2 1.5.2s1-.1 1.5-.2l-1.5 3-1.5-3zm.7 3.6H13l-2-3.9h.9l2 3.9zm3.6-3.9h.9l-2 3.9h-.9l2-3.9zM5.4 22.1v6.4H3.9v-6.4c0-3.4 2.7-6.2 6.1-6.4l2 3.9H7.8c-1.3 0-2.4 1.1-2.4 2.5zM23 28.4H6.4V22c0-.8.7-1.5 1.5-1.5h13.8c.8 0 1.5.7 1.5 1.5v6.4H23zm2.5 0H24V22c0-1.4-1.1-2.5-2.5-2.5h-4.1l2-3.9c3.4.2 6.1 2.9 6.1 6.4v6.4z" fill="#148F0B"/><path fill-rule="evenodd" clip-rule="evenodd" d="M22.1 24h-1v3.4h1V24zM22.1 22.1h-1v.9h1v-.9zM26.5 4.4h-1v1h1v-1zM26.5 6.4h-1v1h1v-1zM26.5 8.3h-1v1h1v-1zM3.9 10.3h-1v1h1v-1zM3.9 12.3h-1v.9h1v-.9zM3.9 14.2h-1v1h1v-1z" fill="#148F0B"/></svg>