<?xml version="1.0" encoding="utf-8"?><svg viewBox="0 0 62 62" xmlns="http://www.w3.org/2000/svg" xmlns:xlink="http://www.w3.org/1999/xlink"><style>:root>svg{display:none}:root>svg:target{display:block}</style><svg viewBox="0 0 60 50" id="basket" xmlns="http://www.w3.org/2000/svg"><path d="M.935.046C.925.07.892.092.859.092c-.083 0-.401.18-.508.29C.244.49.06.807.06.887.06.917.047.954.03.963c-.04.025-.04.587 0 .612.018.01.03.043.03.076 0 .16.31.557.536.692.266.152.143.15 3.532.168 1.758.009 3.244.027 3.302.04.239.045.361.085.597.186.492.211.887.508 1.235.927.202.244.42.608.465.786.025.088.058.214.12.428.018.058.045.159.064.22.04.147.085.303.122.428.015.055.043.15.058.208.018.058.046.156.061.214.019.058.043.153.058.205.015.055.074.245.126.422l.125.419.055.199c.015.055.073.244.125.422.052.177.11.367.126.419l.055.198c.015.055.073.245.125.422.052.178.11.37.126.429.052.186.082.281.18.611l.122.413c.016.049.055.187.092.306.037.116.08.263.095.321.052.187.083.281.18.612.052.177.11.37.126.428.052.186.082.281.18.611.052.178.11.367.126.42l.055.198c.015.055.073.245.125.422l.122.413c.016.049.055.187.092.306.037.116.08.263.095.32.052.187.082.282.18.612.052.178.11.367.126.42l.055.198c.015.055.073.245.125.422.052.178.11.367.126.42l.054.198.126.422c.052.177.11.37.125.428.052.187.083.282.18.612l.126.419.055.199c.015.055.086.293.156.529.07.235.14.477.156.535.052.186.083.281.18.611l.126.42.058.207c.018.058.046.156.061.214.018.058.043.153.058.205.015.055.086.294.156.53l.156.525c.015.055.043.15.058.208.019.058.046.16.065.22.058.208.082.294.21.728.07.236.141.477.156.535.019.059.043.153.062.205.036.129.08.285.122.428.015.065.043.156.058.208l.058.2c.015.057.043.155.061.213.016.058.043.156.062.214.015.058.042.156.06.214.016.058.047.16.062.22l.067.23c.015.064.043.162.061.214.015.055.043.15.058.208.019.058.046.156.061.214.019.058.046.159.065.22.015.064.043.162.06.214l.062.214c.015.065.043.156.058.208.046.16.095.334.122.444a35.34 35.34 0 00.123.458c.015.059.055.218.091.352.037.135.08.3.092.367.016.067.04.177.058.245.028.113.043.171.126.458.018.059.043.153.058.205.156.566.514 1.425.865 2.083.823 1.529 2.043 2.703 3.404 3.278.067.028.15.064.183.08.034.012.16.055.276.091.119.037.241.077.275.092.092.034.404.098.78.16.174.027 3.192.036 12.4.036H47.6l.208-.098c.614-.294.89-1.037.602-1.645a1.291 1.291 0 00-.7-.67c-.126-.049-.863-.052-11.958-.052-10.15.003-11.877-.003-12.204-.043-.432-.049-.68-.1-.857-.174a3.757 3.757 0 01-1.407-.911c-.226-.23-.642-.734-.642-.783 0-.01-.04-.074-.088-.144a7.426 7.426 0 01-.74-1.535.651.651 0 00-.07-.162c-.016-.022-.019-.046-.01-.058.012-.01 6.061-.016 13.444-.013 13.367.006 13.984.003 14.712-.094 1.217-.162 2.018-.581 2.651-1.395.438-.556 1.166-1.853 1.713-3.049.07-.153.184-.394.25-.544.325-.691.37-.792.37-.801a118.594 118.594 0 00.52-1.147c.157-.346.35-.77.429-.948.186-.407.718-1.603 1.602-3.593.383-.86.734-1.646.786-1.753.05-.107.089-.198.089-.208 0-.006.055-.131.122-.275a765.859 765.859 0 012.018-4.55c0-.007.056-.135.126-.285.122-.269.147-.324.272-.605.064-.15.129-.29.284-.627.184-.404.236-.523.236-.56 0-.021.012-.052.025-.07.015-.015.058-.132.094-.257.04-.125.083-.257.095-.29.058-.157.092-.285.092-.346 0-.034.012-.07.027-.08.016-.009.034-.07.043-.131.01-.064.034-.193.052-.285.083-.412.104-.663.104-1.177 0-.303-.015-.627-.034-.719-.076-.354-.097-.437-.165-.605l-.058-.144A1.992 1.992 0 0059.406 5a2.693 2.693 0 00-1.067-.963c-.386-.196-.603-.263-1.2-.367-.232-.04-39.039-.046-39.173-.006a1.26 1.26 0 00-.802.672c-.104.205-.116.263-.128.505-.006.223.003.306.058.459.086.23.205.41.367.547.11.098.196.144.474.272.077.037 3.11.043 19.578.05l19.49.005.14.07c.226.114.306.328.275.762a4.12 4.12 0 01-.165.976 7.457 7.457 0 01-.235.688c-.098.223-.205.458-.303.663-.055.123-.138.3-.18.392-.04.092-.12.263-.175.382-.055.116-.177.392-.275.612-.098.217-.214.48-.26.58-.046.102-.101.224-.122.276-.025.049-.098.214-.166.36-.07.15-.125.28-.125.285 0 .01-.055.132-.122.275-.068.144-.123.27-.123.276 0 .006-.033.082-.073.17-.04.09-.104.23-.14.316l-.108.245c-.024.048-.4.902-.84 1.896-.441.99-.839 1.89-.89 1.997a2.252 2.252 0 00-.09.207c0 .007-.054.132-.122.276-.067.143-.122.269-.122.275 0 .01-.055.132-.122.275-.067.144-.123.27-.123.275 0 .006-.042.104-.094.218-.052.116-.257.571-.456 1.018-.398.893-.477 1.07-.63 1.4-.058.126-.104.23-.104.236 0 .006-.061.138-.135.297-.073.156-.177.388-.232.513-.086.193-.37.823-.713 1.56-.593 1.29-1.027 2.11-1.48 2.789-.269.407-.52.553-1.128.664-.131.024-4.242.033-14.343.033H19.067l-.037-.082a1.302 1.302 0 01-.052-.178 13.146 13.146 0 00-.11-.428 35.34 35.34 0 01-.123-.458 35.61 35.61 0 01-.122-.46 30.095 30.095 0 01-.122-.458 28.924 28.924 0 01-.135-.514l-.171-.618-.07-.26c-.028-.091-.07-.25-.098-.351a150.01 150.01 0 01-.245-.887c-.024-.092-.067-.245-.092-.336a33.452 33.452 0 00-.094-.346c-.028-.095-.058-.217-.074-.266l-.073-.27c-.028-.094-.07-.253-.098-.35-.028-.096-.061-.22-.076-.276-.016-.052-.04-.144-.056-.199l-.08-.281c-.027-.101-.076-.281-.11-.398-.033-.119-.073-.269-.09-.336l-.059-.199a14.774 14.774 0 01-.153-.55 14.9 14.9 0 00-.153-.55c-.012-.044-.04-.132-.058-.2-.018-.067-.073-.275-.125-.458l-.187-.673-.15-.535c-.128-.465-.174-.627-.217-.78-.015-.052-.07-.245-.12-.428-.14-.517-.158-.575-.183-.658a14.774 14.774 0 01-.152-.55c-.11-.407-.129-.474-.153-.55-.013-.043-.04-.132-.058-.2-.019-.067-.09-.32-.156-.565l-.156-.566-.059-.199c-.012-.042-.04-.131-.058-.198l-.156-.566-.156-.566c-.018-.067-.045-.156-.058-.199-.012-.043-.04-.131-.055-.198-.018-.068-.06-.22-.095-.337-.033-.12-.091-.318-.125-.443-.12-.44-.128-.474-.153-.55-.012-.044-.04-.132-.055-.2-.018-.067-.061-.22-.095-.336-.033-.12-.091-.318-.125-.443-.12-.44-.129-.474-.153-.55l-.061-.215-.061-.214c-.012-.043-.04-.131-.058-.199-.019-.067-.059-.22-.092-.336a52.71 52.71 0 01-.11-.398c-.074-.26-.107-.385-.138-.489l-.058-.199a16.943 16.943 0 00-.095-.336c-.033-.125-.091-.333-.125-.459-.064-.235-.101-.37-.153-.544l-.147-.526-.128-.459c-.101-.358-.11-.4-.168-.611-.162-.621-.64-1.282-1.184-1.646-.239-.159-.722-.403-.795-.403-.028 0-.058-.016-.067-.031-.01-.018-.058-.03-.107-.03-.05 0-.098-.016-.107-.031-.01-.019-.058-.03-.104-.03-.046 0-.095-.013-.114-.028A.417.417 0 009.48.202a21.103 21.103 0 00-.336-.05A7.143 7.143 0 008.58.099C8.348.08 8.21.058 8.201.037 8.191.009 7.3 0 4.571 0 1.385 0 .951.006.935.046zM22.569 37.554a1.04 1.04 0 01-.19.027c-.131.003-.398.061-.743.16a5.81 5.81 0 00-3.64 3.057c-.262.545-.409 1.022-.537 1.753-.05.29-.05 1.253 0 1.578.21 1.355.755 2.443 1.681 3.364a5.77 5.77 0 001.991 1.29c.043.018.101.043.129.058.03.016.082.028.113.028.034 0 .07.012.08.03.009.016.058.031.107.031.048 0 .094.012.104.028.009.015.06.033.116.042.055.01.17.034.253.052.35.077.646.101 1.224.098.663 0 .978-.033 1.483-.159.076-.018.174-.043.223-.052.046-.009.092-.027.101-.043.01-.015.043-.027.076-.027.031 0 .083-.012.114-.028a4.38 4.38 0 01.29-.122c.731-.29 1.535-.869 2.101-1.508a5.845 5.845 0 001.382-2.899c.05-.26.05-1.666 0-1.926-.235-1.337-.877-2.499-1.856-3.37a6.694 6.694 0 00-.963-.71c-.263-.153-.835-.416-.902-.416-.022 0-.052-.015-.062-.03-.009-.019-.052-.031-.091-.031-.04 0-.08-.012-.089-.028-.01-.015-.055-.033-.1-.042-.05-.01-.148-.034-.224-.052a6.348 6.348 0 00-.596-.126c-.233-.04-1.474-.06-1.575-.027zm1.306 2.419c.287.067.39.095.443.122.03.015.067.028.085.028.019 0 .15.055.294.122.908.425 1.627 1.287 1.872 2.248.085.34.098.446.098.856s-.013.517-.098.856c-.263 1.03-1.061 1.939-2.058 2.343-.114.046-.429.14-.597.18-.22.055-1.091.058-1.3.003-.354-.089-.4-.1-.449-.128a.247.247 0 00-.086-.028c-.033 0-.403-.174-.568-.269-.499-.284-1.11-.948-1.337-1.453a3.124 3.124 0 01-.23-.617 10.746 10.746 0 01-.066-.26c-.05-.184-.05-1.05 0-1.257.045-.196.143-.538.18-.624a3.702 3.702 0 011.605-1.789c.01 0 .101-.04.208-.089.251-.113.392-.159.744-.244.174-.04 1.085-.04 1.26 0zM46.357 37.539c-.012.009-.116.03-.23.046a5.043 5.043 0 00-.608.116 7.496 7.496 0 00-.673.217 9.25 9.25 0 00-.862.437.82.82 0 01-.15.086c-.052 0-.633.465-.896.719-.801.773-1.278 1.599-1.624 2.813-.012.049-.04.187-.058.306-.021.116-.049.29-.064.385-.04.22-.04 1.15 0 1.37.015.095.043.266.064.386.04.256.05.287.211.792.153.47.468 1.107.759 1.516.235.337.923 1.04 1.26 1.29.532.395 1.241.75 1.834.915.636.18.93.217 1.682.217.59 0 .823-.018 1.223-.097.092-.019.215-.04.27-.052.055-.01.107-.028.116-.043.009-.016.049-.028.089-.028.04 0 .082-.015.091-.03.01-.019.052-.031.092-.031s.083-.012.092-.03c.009-.016.046-.031.08-.031.03 0 .082-.012.112-.028.028-.018.196-.098.373-.18.64-.303 1.086-.624 1.637-1.18.776-.78 1.3-1.74 1.54-2.832.099-.45.11-.57.11-1.239 0-.67-.011-.789-.11-1.238-.336-1.514-1.299-2.896-2.565-3.682-.437-.272-.914-.505-1.232-.606a8.901 8.901 0 00-1.077-.257c-.174-.024-1.465-.052-1.486-.027zm1.27 2.434l.247.064c.37.095.62.211.994.45.59.38 1.091 1 1.336 1.654.061.162.08.23.168.566.052.208.052 1.12-.003 1.3l-.07.26c-.254.978-1.08 1.905-2.028 2.269-.235.088-.3.11-.642.195-.202.052-1.091.055-1.263.003a7.84 7.84 0 00-.257-.07c-.226-.061-.306-.092-.62-.245a3.388 3.388 0 01-1.633-1.724c-.144-.343-.15-.355-.172-.459a6.305 6.305 0 00-.055-.26c-.046-.223-.046-1.043 0-1.254.022-.091.046-.21.055-.26.013-.052.03-.119.046-.153l.095-.244c.208-.548.633-1.086 1.168-1.486.23-.172.765-.456.86-.456.024 0 .054-.015.064-.03.009-.019.049-.031.082-.031a.698.698 0 00.16-.028 3.09 3.09 0 01.201-.058c.15-.043 1.113-.043 1.266-.003z"/></svg><svg fill="none" viewBox="0 0 62 62" id="vk" xmlns="http://www.w3.org/2000/svg"><path d="M62 31c0 17.118-13.882 31-31 31C13.882 62 0 48.118 0 31 0 13.882 13.882 0 31 0c17.118 0 31 13.882 31 31z" fill="#2A2A2A"/><path d="M12.362 21.49h6.731c.258 0 .494.155.605.391 1.548 3.362 3.435 6.407 5.706 9.09.191.317.663.28.81-.066.708-1.726 2.02-5.92-.515-8.906a.523.523 0 01.184-.818c2.566-1.07 5.072-1.224 7.52-.133.516.229.847.737.847 1.305l.575 8.64c0 .383.354.693.73.612 2.816-.597 4.475-4.814 6.112-9.215a1.375 1.375 0 011.29-.907h6.2c.509 0 .914.45.826.951-.583 3.126-3.723 7.173-5.367 9.127a1.806 1.806 0 00-.008 2.33l5.544 6.598a.733.733 0 01-.56 1.201h-7.018a2.081 2.081 0 01-1.52-.663l-4.909-4.085c-.258-.28-.737-.376-.973-.088-.612.737-.56 1.651-.848 3.723-.088.649-.67 1.113-1.327 1.113h-4.8c-.685 0-1.356-.14-1.975-.435-2.75-1.305-10.277-5.934-14.501-18.88a.674.674 0 01.641-.885z" fill="#fff"/></svg><svg fill="none" viewBox="0 0 52 52" id="vk_footer" xmlns="http://www.w3.org/2000/svg"><path d="M51.175 25.587c0 14.13-11.458 25.588-25.588 25.588C11.458 51.175 0 39.717 0 25.587 0 11.458 11.458 0 25.587 0c14.13 0 25.588 11.458 25.588 25.587z" fill="#fff"/><path d="M10.207 17.738h5.556c.213 0 .407.128.499.322 1.277 2.775 2.835 5.288 4.71 7.503a.377.377 0 00.669-.055c.584-1.424 1.667-4.886-.426-7.35a.432.432 0 01.152-.676c2.117-.882 4.186-1.01 6.207-.11.425.19.7.61.7 1.078l.474 7.131c0 .317.292.572.602.505 2.325-.493 3.694-3.973 5.045-7.606.164-.45.59-.748 1.065-.748h5.117c.42 0 .755.37.682.785-.481 2.58-3.073 5.92-4.43 7.533a1.491 1.491 0 00-.006 1.923l4.576 5.446a.605.605 0 01-.463.992h-5.793c-.474 0-.93-.201-1.253-.548l-4.053-3.371c-.213-.231-.608-.31-.803-.073-.505.608-.462 1.363-.7 3.073-.073.535-.553.919-1.095.919h-3.961c-.566 0-1.12-.116-1.631-.36-2.27-1.077-8.483-4.898-11.97-15.583a.556.556 0 01.53-.73z" fill="#2A2A2A"/></svg><svg fill="none" viewBox="0 0 62 62" id="watsap" xmlns="http://www.w3.org/2000/svg"><path d="M62 31c0 17.118-13.882 31-31 31C13.882 62 0 48.118 0 31 0 13.882 13.882 0 31 0c17.118 0 31 13.882 31 31z" fill="#169B00"/><path d="M14.17 49.4l2.934-9.111c-4.313-6.355-3.686-14.98 1.578-20.68a16.639 16.639 0 0111.61-5.374c4.476-.17 8.73 1.386 12.01 4.416a16.638 16.638 0 015.374 11.611 16.581 16.581 0 01-4.416 12.01c-5.241 5.684-13.778 7.01-20.472 3.25l-8.618 3.879zm16.816-33.403c-.207 0-.413.008-.62.015a14.845 14.845 0 00-10.38 4.8c-4.791 5.197-5.285 13.107-1.179 18.813l.258.361-1.983 6.163 5.824-2.617.398.236c6.038 3.62 13.882 2.484 18.659-2.698a14.84 14.84 0 003.944-10.734 14.845 14.845 0 00-4.8-10.38 14.852 14.852 0 00-10.121-3.959z" fill="#fff"/><path d="M29.54 32.43c.605.605 1.83 1.755 2.662 1.962.833.206 1.453-.258 2.101-.819.34-.294.494-.634 1.327-.781.863-.155 3.288 1.46 3.87 2.145 1.77 2.101.185 4.446-2.21 4.652-2.957.25-6.901-2.447-9.68-5.227-2.78-2.78-5.47-6.723-5.227-9.68.199-2.388 2.55-3.98 4.651-2.211.693.582 2.3 3.008 2.146 3.87-.148.833-.487.98-.782 1.327-.56.656-1.024 1.268-.818 2.101.206.833 1.356 2.057 1.96 2.662z" fill="#fff"/></svg><svg fill="none" viewBox="0 0 52 52" id="watsap__footer" xmlns="http://www.w3.org/2000/svg"><path d="M51.21 26.413C51.21 40.541 39.752 52 25.622 52 11.493 52 .035 40.542.035 26.413.035 12.283 11.493.825 25.622.825c14.13 0 25.588 11.458 25.588 25.588z" fill="#fff"/><path d="M11.73 41.6l2.422-7.52c-3.56-5.246-3.042-12.366 1.303-17.07a13.733 13.733 0 019.583-4.435c3.694-.14 7.205 1.144 9.913 3.645a13.734 13.734 0 014.436 9.584 13.686 13.686 0 01-3.645 9.912c-4.327 4.691-11.373 5.787-16.898 2.683L11.73 41.6zm13.88-27.57a12.253 12.253 0 00-9.079 3.974c-3.955 4.288-4.362 10.818-.973 15.527l.213.299-1.637 5.087 4.807-2.16.329.194c4.983 2.988 11.458 2.05 15.4-2.227a12.249 12.249 0 003.256-8.86 12.253 12.253 0 00-3.961-8.567 12.26 12.26 0 00-8.355-3.268z" fill="#2A2A2A"/><path d="M24.417 27.593c.5.5 1.51 1.448 2.197 1.619.688.17 1.199-.213 1.734-.676.28-.243.408-.523 1.095-.645.712-.127 2.714 1.205 3.195 1.771 1.46 1.734.152 3.67-1.825 3.84-2.44.207-5.696-2.02-7.99-4.315-2.294-2.294-4.515-5.549-4.314-7.99.164-1.97 2.105-3.285 3.84-1.825.571.481 1.898 2.483 1.77 3.195-.122.688-.401.81-.645 1.095-.462.542-.846 1.047-.675 1.735.17.687 1.12 1.697 1.618 2.196z" fill="#2A2A2A"/></svg></svg>