<svg width="30" height="36" fill="none" xmlns="http://www.w3.org/2000/svg"><path d="M29.052 9.273L20.225.867A1.344 1.344 0 0019.298.5H1.875C1.149.5.562 1.059.562 1.75v32.5c0 .691.587 1.25 1.313 1.25h26.25c.726 0 1.313-.559 1.313-1.25V10.16c0-.332-.14-.652-.386-.887zm-2.642 1.461h-7.719V3.383l7.72 7.351zm.074 21.953H3.516V3.314h12.386v8.437c0 .435.182.852.505 1.16.323.308.761.48 1.218.48h8.86v19.297zm-10.172-16.25a.322.322 0 00-.328-.312h-1.968c-.18 0-.329.14-.329.313v4.218h-4.43c-.18 0-.327.14-.327.313v1.875c0 .172.147.312.328.312h4.43v4.219c0 .172.147.313.328.313h1.968c.18 0 .329-.141.329-.313v-4.219h4.43c.18 0 .327-.14.327-.312v-1.875a.322.322 0 00-.328-.313h-4.43v-4.218z" fill="#000"/></svg>