<svg width="23" height="29" fill="none" xmlns="http://www.w3.org/2000/svg"><path fill-rule="evenodd" clip-rule="evenodd" d="M2.144.044c-1 .2-1.5.7-1.9 1.4-.3.7-.2 2-.2 2.9v19.1c0 1-.1 2.2 0 3.1.1 1 .6 1.6 1.2 1.9.7.4 1.9.3 2.9.3h12.7c2.1 0 4 .4 5-1.4.4-.7.2-2.1.2-2.9v-17.4c0-.8.1-.9-.3-1.3l-3.2-3.2c-.5-.5-1.8-1.9-2.3-2.3-.3-.3-1-.2-1.4-.2h-9.6c-.9 0-2.3-.1-3.1 0zm14.5 5.7c1.1.1 2.4 0 3.6 0 .3 0 .1 0 .1-.1h-.1c-.1 0-.1 0 0 0-.1 0-.1 0 0 0-.1 0-.1 0 0 0-.1 0-.1 0 0 0-.1 0-.1 0 0 0-.1 0-.1 0 0 0-.1 0-.1 0 0 0-.1 0-.1 0 0 0-.1 0-.1 0 0 0-.1 0-.1 0 0 0-.1 0-.1 0 0 0-.1 0-.1 0 0 0-.1 0-.1 0 0 0-.1 0-.1 0 0 0-.1 0-.1 0 0 0-.1 0-.1 0 0 0-.1 0-.1 0 0 0-.1 0-.1 0 0 0-.1 0-.1 0 0 0-.1 0-.1 0 0 0-.1 0-.1 0 0 0-.1 0-.1 0 0 0-.1 0-.1 0 0 0-.1 0-.1 0 0 0-.1 0-.1 0 0 0-.1 0-.1 0 0 0-.1 0-.1 0 0 0-.1 0-.1 0 0 0-.1 0-.1 0 0 0-.1 0-.1 0 0 0-.1 0-.1 0 0 0-.1 0-.1 0 0 0-.1 0-.1 0 0 0-.1 0-.1 0 0 0-.1 0-.1 0 0 0-.1 0-.1 0 0 0-.1 0-.1 0 0 0-.1 0-.1 0 0 0-.1 0-.1 0 0 0-.1 0-.1 0 0 0-.1 0-.1 0 0 0-.1 0-.1 0 0 0-.1 0-.1 0 0 0-.1 0-.1 0 0 0-.1 0-.1 0 0 0-.1 0-.1 0 0 0-.1 0-.1 0 0 0-.1 0-.1 0 0 0-.1 0-.1 0 0 0-.1 0-.1 0 0 0-.1 0-.1 0 0 0-.1 0-.1 0 0 0-.1 0-.1 0 0 0-.1 0-.1 0 0 0-.1 0-.1 0 0 0-.1 0-.1 0 0 0-.1 0-.1 0 0 0-.1 0-.1 0 0 0-.1 0-.1 0 0 0-.1 0-.1 0 0 0-.1 0-.1 0 0 0-.1 0-.1 0 0 0-.1 0-.1 0 0 0-.1 0-.1 0 0 0-.1 0-.1 0 0 0-.1 0-.1 0 0 0-.1 0-.1 0 0 0-.1 0-.1 0 0 0-.1 0-.1 0 0 0-.1 0-.1 0 0 0-.1 0-.1 0 0 0-.1 0-.1 0 0 0-.1 0-.1 0 0 0-.1 0-.1 0 0 0-.1 0-.1 0 0 0-.1 0-.1 0 0 0-.1 0-.1 0 0 0-.1 0-.1 0 0 0-.1 0-.1 0 0 0-.1 0-.1 0 0 0-.1 0-.1 0 0 0-.1 0-.1 0 0 0-.1 0-.1 0 0 0-3.9-3.1-4.2-.4-3.6.1zm4.5 20.8v-19.7h-4.2c-.2 0-.1 0-.1-.1-.6.1-1.1-.5-1.3-1l-.1-.1c-.1-.3 0-4.4 0-4.6h-13.2c-.4 0-.8.3-1 .5-.3.5-.2.7-.2 1.3v21.7c0 .9-.2 2.1.3 2.8.5.7 1.5.5 2.6.5h15.5c.6 0 .8 0 1.2-.3.2-.2.5-.6.5-1z" fill="#148F0B"/><path fill-rule="evenodd" clip-rule="evenodd" d="M10.445 7.144l-.7-.7-.3.3c-.1.1-.1.2-.3.2 0-.5-.1-.8-.5-1-.3-.2-.9-.1-1.3-.1-3.8 0-3.9-.5-3.9 2.1 0 .5-.1 2.6 0 3 .3.9 1.3.7 2.3.7.6 0 2.5.1 2.9-.1.3-.2.5-.5.5-1v-1.5c0-.6-.1-.4.5-1 .3-.4.5-.7.8-.9zm-3.3 3s-.1-.1-.2-.1c-.2-.1-1.4-1.4-1.5-1.5l.7-.7.1.1 1.1 1c.2-.3.4-.5.7-.8.2-.2.2-.2.2-.6v-.8c-.3-.1-3.6-.1-3.8 0v3.7h3.8v-1.1l-1.1.8zM9.044 24.445c.2-.6.1-1.9.1-2.6l.6-.6.7-.6c-.1-.2-.5-.6-.7-.7-.1.1-.2.1-.3.2l-.1.1-.1.1c-.1-.1 0-.3-.1-.7-.4-.6-.8-.5-1.7-.5h-2.3c-1.9 0-1.6.5-1.6 2.9 0 .4-.1 1.9 0 2.2.2.7.8.7 1.6.7h3.4c.2 0 .3-.1.4-.2 0-.1 0-.2.1-.3zm-4.7-.4h3.8v-1.2c-.5.2-.6 1.2-1.4.4l-.6-.6-.4-.4c-.2-.2-.3-.2-.3-.4.2-.2.5-.5.7-.6l1.1 1.1.9-.9c.1-.3 0-.9 0-1.2h-3.8v3.8zM3.444 17.644c.3.4.3.4.6.6.6.1 2.2.1 2.9.1.9 0 2.1.2 2.2-.8 0-.4 0-2.3.1-2.5.1-.1 1-.9 1.2-1.2l-.1-.2-.2-.2c-.1-.1-.2-.2-.4-.3 0 .1 0 .1-.1.1l-.5.5c0-.3 0-.4-.1-.7-.6-.7-.9-.5-2.3-.5-.5 0-2.4-.1-2.8.1-.8.4-.6 1.3-.6 2.3.1.5 0 2.4.1 2.7zm1-.3h3.8v-1.2l-.6.6c-.4.3-.7 0-.9-.2-.3-.3-1-1-1.2-1.3l.7-.6c.2 0 .8.9 1.1 1l.9-.9v-1.2h-3.8v3.8zM12.945 15.344h4.8v-.9h-4.7l-.1.9zM13.045 11.544h4.7v-.9h-4.8l.1.9zM12.945 18.245h4.8v-.9h-4.7l-.1.9zM13.045 8.644h4.7v-.9h-4.8l.1.9zM12.945 24.945h4.8v-.9h-4.7l-.1.9zM13.045 22.044h4.7v-.9h-4.7v.9z" fill="#148F0B"/><path fill-rule="evenodd" clip-rule="evenodd" d="M4.045 18.244c-.3-.2-.3-.2-.5-.5l-.1-.1.2.3c.2.2.2.2.4.3z" fill="#148F0B"/></svg>