<?xml version="1.0" standalone="no"?>
<!DOCTYPE svg PUBLIC "-//W3C//DTD SVG 20010904//EN"
 "http://www.w3.org/TR/2001/REC-SVG-20010904/DTD/svg10.dtd">
<svg version="1.0" xmlns="http://www.w3.org/2000/svg"
 width="1048.000000pt" height="1048.000000pt" viewBox="0 0 1048.000000 1048.000000"
 preserveAspectRatio="xMidYMid meet">
<metadata>
Created by potrace 1.14, written by Peter Selinger 2001-2017
</metadata>
<g transform="translate(0.000000,1048.000000) scale(0.100000,-0.100000)"
fill="#000000" stroke="none">
<path d="M5429 9118 c-4 -18 -9 -49 -25 -178 -4 -25 -8 -54 -10 -64 -2 -11 -8
-55 -14 -98 -6 -43 -13 -92 -15 -110 -3 -18 -8 -53 -11 -78 -2 -25 -7 -52 -9
-60 -3 -8 -8 -44 -11 -80 -3 -36 -8 -68 -10 -72 -2 -3 -6 -28 -9 -55 -3 -26
-7 -59 -10 -72 -2 -13 -7 -49 -11 -80 -3 -31 -8 -65 -11 -76 -9 -43 -9 -77 1
-80 6 -2 29 -6 51 -8 22 -3 76 -10 120 -16 44 -7 98 -14 120 -17 22 -3 54 -7
70 -10 81 -14 118 -17 220 -18 127 -1 155 3 215 34 42 22 111 89 116 113 2 7
10 32 19 56 44 123 10 269 -77 327 -30 21 -36 34 -14 34 27 0 115 109 131 162
49 166 -20 287 -201 347 -51 17 -246 51 -374 66 -72 8 -131 17 -217 31 -18 3
-33 4 -34 2z m361 -313 c25 -3 57 -8 72 -10 49 -7 86 -33 90 -62 10 -87 -43
-131 -141 -117 -31 4 -59 7 -63 6 -4 -1 -19 3 -33 8 -19 7 -25 15 -21 28 3 9
8 37 11 62 8 75 16 99 28 95 7 -2 32 -7 57 -10z m-5 -391 c120 -19 161 -57
144 -133 -13 -58 -39 -75 -111 -73 -35 1 -88 5 -118 9 l-55 8 -1 40 c0 38 12
125 21 153 4 10 16 12 48 7 23 -4 56 -9 72 -11z"/>
<path d="M4457 9074 c-1 -1 -21 -4 -45 -8 -168 -23 -300 -106 -380 -239 -19
-31 -35 -61 -36 -69 -2 -7 -6 -20 -9 -28 -8 -20 -25 -99 -26 -125 -5 -138 3
-196 47 -340 29 -96 113 -216 189 -271 92 -67 153 -87 273 -88 135 -1 173 6
266 48 178 83 283 258 285 476 0 107 -7 156 -38 250 -61 187 -180 316 -342
370 -50 17 -174 33 -184 24z m97 -306 c76 -50 135 -190 140 -337 4 -94 -11
-155 -46 -196 -63 -73 -175 -79 -246 -12 -38 35 -88 138 -97 200 -2 15 -7 32
-10 38 -4 5 -7 49 -7 97 0 66 5 98 20 133 20 47 69 93 107 101 39 9 106 -3
139 -24z"/>
<path d="M6771 8846 c-7 -17 -19 -44 -26 -61 -7 -16 -63 -149 -125 -295 -105
-249 -121 -287 -156 -366 -7 -17 -34 -80 -60 -140 -25 -60 -48 -114 -50 -120
-4 -9 32 -28 131 -69 30 -13 154 -66 210 -90 17 -7 91 -39 165 -70 74 -31 159
-67 188 -81 65 -30 78 -30 87 -1 4 12 8 24 9 27 1 3 9 21 18 40 29 65 59 142
56 144 -7 5 -104 49 -128 58 -60 22 -316 132 -324 139 -5 4 -5 16 -1 26 4 10
9 23 10 28 4 15 47 105 50 105 2 0 16 -5 32 -11 15 -6 29 -10 31 -9 1 0 15 -6
30 -14 45 -25 263 -116 276 -116 7 0 21 19 31 43 10 23 29 66 41 94 37 84 39
99 12 108 -28 9 -24 8 -70 25 -21 8 -38 18 -38 22 0 4 -6 8 -13 8 -20 0 -221
88 -225 99 -2 5 6 27 16 48 11 21 20 40 21 43 1 3 4 15 7 27 6 23 20 21 79 -7
27 -13 376 -160 380 -160 2 0 5 6 8 13 3 6 26 60 50 118 l45 107 -66 28 c-37
15 -89 37 -117 50 -27 12 -95 41 -150 64 -55 23 -118 50 -141 61 -22 10 -63
27 -91 38 -28 11 -70 28 -94 39 -99 43 -94 43 -108 8z"/>
<path d="M3265 8700 c-88 -43 -280 -137 -426 -208 l-267 -130 58 -119 c32 -65
106 -217 165 -338 214 -439 267 -545 273 -542 4 2 69 34 145 70 75 37 137 71
137 77 0 5 -52 117 -116 247 -64 131 -147 301 -184 378 l-68 140 27 10 c14 6
76 36 136 66 l110 57 18 -24 c9 -12 22 -35 28 -51 20 -56 34 -83 41 -83 5 0 8
-4 8 -10 0 -5 50 -112 111 -237 61 -126 124 -256 141 -290 16 -35 36 -63 44
-63 11 0 270 124 282 135 2 2 -37 87 -87 190 -50 103 -91 191 -91 196 0 5 -4
9 -10 9 -5 0 -10 5 -10 11 0 6 -41 95 -92 198 -50 102 -92 188 -93 191 -4 25
-100 200 -108 199 -7 0 -84 -35 -172 -79z"/>
<path d="M7820 8178 c-63 -84 -117 -155 -120 -158 -3 -3 -23 -30 -45 -60 -22
-30 -42 -57 -45 -60 -3 -3 -17 -21 -30 -40 -13 -19 -27 -37 -30 -40 -3 -3 -59
-77 -124 -165 -66 -88 -123 -162 -126 -165 -4 -3 -12 -15 -18 -27 -13 -23 -17
-18 93 -101 27 -20 56 -43 63 -49 7 -7 17 -13 20 -13 4 0 18 -10 32 -23 14
-12 95 -74 180 -137 214 -159 194 -137 162 -180 -34 -46 -71 -94 -99 -130 -13
-15 -23 -31 -23 -34 0 -11 54 -55 67 -56 6 0 13 -4 15 -8 2 -4 40 -36 85 -70
l81 -61 89 120 c48 66 95 129 104 139 8 10 24 31 35 45 10 15 31 43 47 62 26
35 35 63 20 63 -5 1 -19 10 -32 21 l-24 20 22 22 c11 13 21 28 21 34 0 6 4 13
9 15 5 2 50 59 101 128 51 69 97 127 102 128 4 2 8 10 8 17 0 7 4 15 8 17 11
4 245 318 241 322 -2 2 -42 31 -89 66 -47 34 -87 65 -90 69 -10 12 -69 51 -78
51 -5 0 -45 -48 -88 -106 -44 -58 -84 -111 -89 -117 -6 -7 -58 -75 -115 -152
-120 -160 -105 -141 -170 -225 -28 -36 -54 -66 -59 -68 -4 -1 -16 6 -26 15
-25 23 -182 140 -202 152 -13 7 -11 14 10 47 22 36 58 84 105 140 9 12 26 34
37 50 11 15 79 105 150 200 72 95 137 183 145 194 8 12 23 31 33 42 9 12 17
22 17 23 0 4 -257 195 -262 195 -2 0 -56 -69 -118 -152z"/>
<path d="M2069 7987 c-42 -40 -127 -119 -189 -177 -62 -58 -130 -121 -150
-140 -20 -19 -69 -65 -108 -101 l-72 -66 57 -63 c32 -34 81 -86 108 -114 28
-29 95 -101 150 -161 55 -60 116 -125 135 -145 19 -20 80 -85 135 -145 145
-156 175 -188 180 -184 2 2 47 45 100 94 54 50 118 109 143 133 25 23 49 42
54 42 4 0 8 5 8 11 0 6 14 22 32 37 18 15 62 55 98 89 36 33 89 84 119 112
l55 51 -36 38 c-19 20 -59 63 -89 94 l-54 58 -66 -63 c-156 -148 -291 -272
-300 -276 -9 -3 -44 30 -103 98 l-20 22 50 46 c27 25 95 88 151 141 l102 95
-47 50 c-26 27 -66 70 -90 95 l-43 45 -47 -44 c-25 -24 -60 -57 -77 -74 -17
-16 -64 -60 -104 -98 l-72 -67 -55 57 -54 58 73 70 c40 39 119 113 175 165 56
52 102 98 102 102 0 4 -15 23 -32 42 -18 18 -54 56 -79 83 -25 27 -50 52 -55
55 -5 4 -43 -26 -85 -65z"/>
<path d="M5197 7734 c-1 -1 -65 -4 -142 -8 -77 -4 -153 -8 -170 -10 -16 -2
-59 -7 -95 -11 -57 -6 -216 -34 -290 -50 -14 -3 -38 -8 -55 -11 -16 -3 -54
-12 -84 -21 -29 -8 -59 -16 -65 -17 -83 -17 -351 -110 -464 -162 -29 -13 -55
-24 -58 -24 -12 0 -313 -155 -352 -181 -24 -16 -45 -29 -47 -29 -7 0 -109 -63
-115 -71 -3 -3 -16 -12 -29 -18 -19 -11 -167 -116 -221 -158 -563 -437 -1003
-1017 -1288 -1698 -51 -122 -130 -340 -138 -384 -3 -14 -7 -28 -10 -32 -6 -11
-69 -243 -79 -294 -5 -22 -9 -42 -10 -45 -5 -18 -15 -70 -20 -95 -3 -16 -7
-40 -9 -51 -2 -12 -7 -37 -10 -55 -3 -19 -7 -43 -10 -54 -26 -138 -48 -402
-50 -605 l-1 -135 60 0 60 -1 4 131 c2 71 4 149 4 173 1 23 6 42 11 42 4 0 3
6 -3 13 -6 8 -9 16 -6 19 3 2 7 31 10 64 3 32 8 75 10 94 16 129 27 205 31
211 2 4 6 26 9 50 6 54 56 281 80 364 9 33 18 69 21 79 8 43 79 249 131 381
47 120 207 458 245 520 41 64 78 126 78 131 0 15 252 374 292 415 7 8 23 26
34 41 82 106 314 346 444 459 76 66 243 198 286 225 16 10 31 21 34 25 11 12
129 89 139 89 5 0 11 4 13 8 4 10 176 112 188 112 5 0 15 6 22 13 16 15 141
77 156 77 6 0 17 6 24 13 7 7 27 18 43 25 17 6 64 25 105 42 112 47 338 125
425 146 208 51 340 76 510 98 189 25 646 26 770 2 11 -2 45 -7 75 -10 30 -4
69 -9 85 -12 77 -13 142 -25 165 -30 14 -3 36 -7 50 -10 288 -55 724 -226
1013 -398 43 -25 82 -46 87 -46 5 0 10 -3 12 -7 2 -5 48 -38 103 -74 103 -68
294 -213 381 -291 119 -105 372 -366 434 -448 14 -18 30 -38 35 -44 25 -26
144 -190 215 -296 168 -250 323 -551 427 -830 51 -137 136 -409 148 -475 2
-11 8 -38 14 -60 5 -22 12 -51 15 -65 35 -174 48 -241 51 -275 2 -22 6 -50 9
-62 4 -20 9 -58 22 -193 7 -78 14 -201 18 -320 l3 -115 59 0 59 0 -1 170 c-2
154 -7 243 -19 345 -19 152 -34 259 -41 294 -3 11 -7 30 -8 41 -3 17 -17 89
-21 105 -1 3 -5 23 -10 45 -4 22 -19 83 -32 135 -13 52 -25 101 -25 108 -1 6
-5 12 -9 12 -5 0 -6 7 -3 15 4 8 2 21 -3 28 -6 6 -18 41 -28 77 -66 245 -247
649 -418 935 -72 120 -215 332 -262 387 -11 13 -31 40 -45 59 -27 38 -43 56
-152 180 -147 166 -335 345 -504 479 -106 84 -270 200 -284 200 -4 0 -10 3
-12 8 -3 6 -135 92 -142 92 -2 0 -41 22 -87 48 -162 93 -502 243 -604 268 -16
4 -34 9 -40 13 -5 3 -13 6 -17 7 -5 1 -9 2 -10 4 -2 1 -12 3 -22 5 -10 2 -40
10 -65 19 -25 8 -57 17 -71 20 -14 3 -50 11 -80 19 -56 15 -123 29 -150 33 -8
0 -42 7 -75 14 -33 7 -73 14 -90 15 -16 2 -30 4 -30 4 0 1 -22 4 -50 7 -27 3
-63 7 -80 9 -57 8 -402 24 -408 19z"/>
<path d="M5077 7434 c-1 -1 -42 -5 -92 -8 -49 -3 -103 -8 -120 -10 -16 -2 -54
-7 -83 -10 -66 -9 -337 -61 -337 -66 0 -1 -9 -3 -20 -4 -36 -5 -240 -68 -250
-78 -6 -5 -10 -83 -11 -188 -1 -158 1 -180 15 -181 21 -1 2101 -1 2122 0 14 1
16 24 16 181 0 119 -4 183 -11 188 -10 8 -129 47 -172 57 -11 2 -44 11 -74 19
-30 8 -66 17 -80 20 -14 2 -46 9 -71 15 -25 6 -65 13 -88 16 -24 3 -46 7 -50
9 -7 5 -80 14 -251 32 -60 6 -437 13 -443 8z"/>
<path d="M9015 7305 c-33 -25 -71 -53 -84 -62 -13 -10 -29 -23 -35 -28 -6 -6
-90 -69 -186 -140 -96 -71 -179 -135 -183 -142 -4 -7 -14 -13 -22 -13 -7 0
-15 -4 -17 -8 -1 -4 -68 -57 -148 -116 -80 -60 -147 -110 -148 -112 -5 -3 178
-246 191 -256 6 -3 72 41 147 98 l137 105 57 -3 c31 -2 56 -8 56 -13 1 -6 -14
-41 -32 -80 -18 -38 -33 -72 -33 -75 -1 -3 -11 -25 -24 -50 -13 -25 -23 -45
-22 -45 2 0 -15 -38 -37 -85 -52 -110 -54 -123 -24 -156 9 -10 60 -76 112
-146 68 -91 97 -123 103 -113 4 8 7 17 7 20 0 3 7 20 17 38 9 17 18 34 18 37
1 3 6 16 12 30 27 64 169 404 199 478 55 134 45 125 127 117 87 -7 153 -12
272 -20 50 -3 116 -8 147 -10 l58 -4 -18 27 c-17 27 -27 41 -69 90 -13 15 -23
30 -23 34 0 4 -6 13 -13 20 -7 7 -34 41 -60 76 -48 62 -48 62 -100 63 -29 0
-92 2 -142 4 -49 2 -127 4 -173 4 -46 1 -81 5 -78 10 3 5 67 55 141 110 98 75
132 105 125 114 -30 35 -51 63 -115 150 -38 53 -72 96 -75 96 -3 1 -32 -19
-65 -44z"/>
<path d="M3870 7141 c-25 -10 -54 -22 -65 -28 -11 -6 -49 -26 -85 -43 -123
-62 -431 -249 -460 -280 -3 -3 -30 -23 -60 -45 -30 -22 -60 -44 -67 -50 -7 -5
-19 -16 -28 -23 -9 -8 -44 -36 -78 -64 -96 -79 -363 -351 -459 -469 -48 -58
-123 -157 -168 -220 -44 -63 -84 -118 -88 -124 -51 -66 -310 -545 -295 -545 3
0 1 -6 -5 -12 -11 -14 -92 -213 -92 -227 0 -7 71 -15 108 -12 25 2 68 3 92 2
31 -2 131 -3 148 -2 28 2 69 3 92 2 30 -2 130 -3 148 -2 15 1 38 1 55 0 6 0
28 0 47 0 19 1 43 1 53 1 9 0 29 1 45 1 15 1 38 0 52 0 31 -2 131 -3 148 -2
28 2 69 3 92 2 30 -2 130 -3 148 -2 15 1 38 1 55 0 6 0 28 0 47 0 19 1 43 1
53 1 9 0 29 1 45 1 15 1 38 0 52 0 31 -2 131 -3 148 -2 28 2 69 3 92 2 30 -2
130 -3 148 -2 6 1 19 1 27 1 93 0 105 2 106 19 3 65 1 2132 -2 2135 -2 2 -24
-4 -49 -13z"/>
<path d="M6565 7151 c-4 -8 -5 -45 -4 -173 0 -37 0 -115 -1 -178 -1 -36 -1
-71 0 -77 0 -20 0 -41 -1 -130 0 -46 2 -87 5 -92 4 -5 2 -12 -4 -16 -6 -4 -8
-11 -4 -16 3 -6 6 -32 5 -57 -3 -184 -2 -222 3 -231 4 -5 2 -12 -4 -16 -6 -4
-8 -11 -4 -16 3 -6 6 -32 5 -57 -3 -184 -2 -222 3 -231 4 -5 2 -12 -4 -16 -6
-4 -8 -11 -4 -16 3 -6 6 -32 5 -57 -3 -184 -2 -222 3 -231 4 -5 2 -12 -4 -16
-6 -4 -8 -11 -4 -16 3 -6 6 -32 5 -57 -3 -184 -2 -222 3 -231 4 -5 2 -12 -4
-16 -6 -4 -7 -11 -4 -17 4 -6 6 -51 6 -100 -1 -57 2 -87 8 -83 5 3 10 1 10 -6
0 -9 3 -10 11 -2 6 6 23 8 44 3 18 -4 38 -4 44 -1 5 4 29 5 53 3 24 -2 50 -3
58 -3 8 0 44 1 80 0 36 0 72 0 80 0 8 0 71 0 140 0 69 0 131 0 138 0 20 2 65
2 97 2 17 0 45 -1 63 -1 17 0 40 -1 50 -1 9 -1 33 -1 52 0 19 0 43 1 53 1 9 0
31 0 47 0 59 1 105 1 125 0 11 -1 27 -1 35 -1 8 0 44 1 80 0 63 0 77 0 103 2
21 1 121 0 142 -1 11 -1 26 -1 33 -1 33 2 69 3 92 2 31 -2 131 -3 148 -2 43 3
72 3 105 -1 21 -3 40 -1 43 4 3 4 10 6 15 2 6 -3 21 -3 34 0 l24 6 -28 63
c-16 35 -32 74 -36 88 -8 27 -130 285 -145 309 -6 8 -20 35 -33 60 -12 25 -25
47 -28 50 -3 3 -8 10 -10 16 -9 24 -145 236 -212 330 -139 195 -276 354 -447
520 -105 101 -219 202 -264 234 -12 8 -27 20 -34 27 -24 23 -214 155 -307 214
-109 68 -172 103 -304 169 -124 62 -149 72 -156 61z"/>
<path d="M1281 7049 c-49 -15 -130 -69 -177 -120 -40 -44 -334 -472 -334 -486
1 -5 40 -34 88 -65 48 -31 147 -98 221 -147 73 -50 137 -91 141 -91 5 0 10 -4
12 -8 3 -7 182 -132 226 -157 9 -5 33 -21 52 -35 19 -14 42 -30 51 -35 10 -6
37 -24 60 -40 24 -17 49 -34 56 -38 11 -7 83 82 83 102 0 5 3 11 8 13 10 4
106 148 101 151 -64 47 -111 77 -118 77 -5 0 -11 4 -13 8 -1 5 -36 31 -75 57
-40 26 -73 50 -73 52 0 4 72 115 80 123 30 30 89 163 98 222 20 133 -30 240
-158 339 -38 30 -121 74 -140 74 -3 0 -9 3 -15 6 -17 10 -138 8 -174 -2z m112
-313 c67 -28 97 -92 72 -153 -21 -49 -98 -159 -103 -145 -2 7 -8 12 -13 12 -9
0 -129 78 -139 90 -3 4 -13 9 -22 13 -19 7 -25 37 -8 37 6 0 10 6 10 13 0 6
10 24 23 39 12 15 29 36 38 48 15 20 84 60 101 60 5 0 23 -6 41 -14z"/>
<path d="M4165 6356 c0 -189 3 -347 6 -350 9 -9 109 -12 109 -4 0 4 6 5 14 2
21 -8 106 -10 106 -2 0 4 6 5 14 2 23 -9 106 -10 106 -1 0 5 4 6 8 3 7 -4 50
-6 115 -6 9 0 37 0 62 0 25 0 52 0 60 0 8 0 35 0 60 0 25 0 52 0 60 0 8 0 35
0 60 0 25 0 53 0 63 0 9 0 53 0 97 0 44 1 87 0 95 0 8 0 26 0 40 1 14 0 32 0
40 0 8 -1 26 -1 40 0 14 0 32 0 40 0 8 -1 26 -1 40 0 14 0 32 0 40 0 8 -1 26
-1 40 0 14 0 32 0 40 0 8 -1 26 -1 40 0 14 0 32 0 40 0 8 -1 26 -1 40 0 14 0
31 0 38 0 13 -1 14 -1 102 -2 133 -1 170 0 180 6 5 3 10 3 10 -2 0 -9 83 -8
106 1 8 3 14 2 14 -2 0 -8 85 -6 106 2 8 3 14 2 14 -2 0 -4 16 -7 35 -7 19 0
35 3 35 7 0 3 8 4 18 1 18 -4 19 10 18 344 l-1 348 -1075 3 -1076 2 1 -344z"/>
<path d="M9830 6149 c-8 -5 -154 -68 -325 -140 -170 -71 -323 -136 -340 -144
-60 -29 -294 -125 -303 -125 -20 0 -21 -32 -1 -77 34 -78 42 -98 44 -103 0 -3
11 -27 23 -54 12 -27 22 -52 22 -57 0 -5 8 -9 18 -10 23 -1 56 -5 127 -13 70
-9 100 -12 176 -21 31 -3 65 -7 75 -9 11 -2 51 -7 89 -10 121 -12 228 -26 233
-30 1 -2 -44 -20 -100 -40 -123 -44 -287 -111 -433 -176 l-45 -20 26 -57 c14
-32 39 -92 56 -133 41 -99 43 -101 76 -85 56 27 221 95 231 95 6 0 11 3 11 8
0 4 18 13 39 19 36 12 80 30 198 84 24 10 45 19 48 19 3 0 24 9 48 19 23 11
103 45 177 76 250 105 253 106 232 130 -5 6 -30 62 -57 125 -26 63 -51 118
-54 122 -8 9 -51 17 -121 24 -58 5 -105 11 -105 14 0 0 -25 3 -55 5 -30 3 -71
7 -90 9 -19 3 -60 8 -90 11 -30 3 -71 8 -90 10 -19 3 -61 7 -92 11 -32 4 -58
10 -58 15 0 7 41 25 48 20 1 -1 16 6 32 14 16 8 31 15 32 14 2 0 17 5 33 11
17 7 37 13 46 15 15 3 161 64 254 105 22 10 57 25 78 34 30 12 37 20 33 34
-17 52 -114 266 -122 268 -5 2 -16 -2 -24 -7z"/>
<path d="M573 6072 c-3 -9 -19 -45 -34 -80 -15 -34 -28 -65 -28 -67 0 -3 -9
-26 -21 -51 -11 -26 -20 -48 -20 -49 0 -1 -12 -29 -27 -61 -15 -33 -27 -61
-28 -64 -6 -19 -33 -84 -60 -142 -8 -18 -32 -76 -53 -128 -45 -108 -54 -92 73
-144 39 -16 88 -37 110 -47 22 -9 159 -68 305 -129 146 -62 290 -123 320 -137
30 -14 60 -26 65 -27 6 -1 32 -12 59 -24 27 -12 52 -19 56 -15 3 5 20 42 37
83 40 96 86 204 109 255 9 22 18 42 18 45 2 9 98 234 127 298 16 34 29 67 29
72 0 8 -33 31 -50 35 -6 2 -49 20 -95 39 -64 28 -88 37 -89 34 -1 -2 -15 -32
-30 -68 -15 -36 -34 -78 -41 -95 -7 -16 -30 -70 -50 -120 -21 -49 -42 -96 -47
-102 -6 -7 -8 -13 -4 -13 4 0 0 -13 -9 -30 -16 -32 -33 -38 -53 -18 -7 7 -12
9 -12 5 0 -4 -10 -2 -22 5 -13 7 -25 13 -28 13 -3 1 -18 7 -33 13 -34 14 -37
3 54 215 38 89 69 166 69 173 0 10 -208 104 -230 104 -5 0 -14 -17 -21 -37 -6
-21 -15 -43 -20 -49 -5 -6 -6 -14 -2 -17 3 -4 1 -7 -5 -7 -7 0 -11 -3 -10 -7
1 -5 -8 -29 -20 -55 -12 -26 -22 -54 -22 -62 0 -9 -5 -16 -10 -16 -6 0 -9 -4
-8 -8 5 -13 -45 -112 -55 -112 -8 0 -124 48 -135 56 -2 1 3 17 11 36 30 65
139 320 174 404 2 6 -13 18 -34 27 -21 8 -75 31 -121 51 -74 32 -83 34 -89 18z"/>
<path d="M4220 5810 l-55 -5 1 -1135 c1 -624 2 -1140 3 -1145 1 -7 345 -11
1074 -10 l1072 0 1 1148 1 1147 -46 0 c-523 4 -2011 4 -2051 0z m376 -183 c4
-4 8 -228 5 -299 l-1 -28 -165 0 -165 0 0 164 c0 163 0 165 23 168 34 5 298 1
303 -5z m104 -23 c0 -20 4 -25 22 -22 15 2 23 -2 24 -12 2 -35 4 -41 13 -35 5
3 16 -1 23 -9 12 -11 14 -30 9 -79 -1 -5 -11 -7 -23 -5 -22 3 -24 -2 -19 -42
0 -6 7 -10 14 -9 30 4 34 -2 30 -46 -3 -35 -1 -45 11 -45 22 0 46 11 41 19 -5
9 -6 77 -3 156 3 55 5 60 27 63 21 3 23 1 19 -23 -5 -23 -3 -26 20 -23 18 2
26 9 27 26 1 18 -3 22 -19 20 -15 -2 -22 3 -24 20 -2 12 -8 23 -13 23 -5 1
-15 2 -21 3 -7 0 -14 11 -16 24 -3 22 -2 22 113 22 115 0 116 0 125 -26 6 -14
14 -23 19 -20 5 3 13 0 19 -7 10 -12 12 -17 12 -38 0 -5 5 -7 10 -4 15 9 40
-14 33 -31 -3 -9 -21 -14 -53 -14 -45 0 -47 -1 -43 -25 5 -23 8 -24 72 -22 64
2 66 1 66 -23 0 -24 -3 -25 -67 -26 -59 -1 -68 2 -68 17 0 19 -33 43 -44 32
-3 -3 -6 6 -6 20 0 26 -3 27 -49 27 -44 0 -48 -2 -47 -22 1 -15 8 -24 23 -26
25 -4 38 -28 20 -39 -22 -13 -49 -14 -44 -1 7 20 -12 48 -28 42 -8 -4 -15 -17
-15 -31 0 -18 4 -24 14 -20 18 7 38 -14 28 -29 -4 -6 -16 -14 -27 -18 -17 -5
-20 -13 -17 -51 3 -36 8 -45 23 -45 10 0 20 -4 20 -10 1 -5 2 -16 3 -22 1 -8
17 -13 46 -13 39 0 45 3 48 23 3 21 -6 27 -36 23 -7 -1 -12 2 -11 6 5 30 -2
45 -21 40 -13 -3 -21 1 -25 14 -8 25 1 39 26 39 13 0 19 -7 19 -24 0 -15 7
-26 19 -29 25 -6 31 0 31 30 0 18 5 22 23 19 32 -4 34 -34 3 -46 -16 -6 -26
-17 -26 -30 0 -19 6 -20 95 -20 l95 0 0 48 c0 40 3 48 20 49 10 1 21 -6 23
-15 9 -31 6 -122 -4 -123 -5 -1 -15 -2 -21 -3 -7 0 -14 -11 -16 -23 -2 -15
-10 -23 -23 -23 -12 0 -21 -9 -25 -25 -4 -18 -13 -25 -29 -25 -19 0 -23 -5
-20 -25 2 -20 -2 -25 -21 -25 -16 0 -24 7 -26 23 -2 14 -11 23 -25 25 -20 3
-22 -2 -25 -45 l-3 -48 -47 -3 c-45 -2 -48 -1 -45 20 3 14 12 24 25 26 21 3
26 12 23 40 -1 7 9 12 24 12 20 0 25 5 25 24 0 23 -1 24 -91 22 -96 -2 -113 2
-100 22 13 21 0 70 -19 75 -24 6 -30 0 -30 -30 0 -13 -6 -23 -12 -22 -27 3
-36 -2 -33 -18 2 -10 4 -21 4 -25 1 -3 10 -4 21 -1 16 4 20 0 20 -21 0 -21 5
-26 25 -26 20 0 25 -5 25 -25 0 -18 -4 -23 -15 -19 -8 4 -15 1 -15 -6 0 -6 -5
-8 -11 -4 -7 4 -9 -2 -7 -16 4 -30 48 -39 48 -11 0 24 22 42 39 32 7 -5 11
-17 9 -27 -2 -13 3 -19 15 -19 19 0 39 -24 31 -37 -6 -9 0 -10 81 -12 l60 -1
1 -47 c2 -44 0 -48 -21 -48 -17 0 -25 -7 -27 -22 -2 -15 -11 -24 -26 -26 -18
-3 -23 -9 -19 -22 3 -14 -3 -19 -25 -24 -24 -5 -29 -10 -25 -25 4 -15 -1 -21
-21 -23 -24 -3 -25 -6 -24 -58 1 -90 0 -89 22 -83 18 5 24 15 21 36 0 4 12 7
28 7 18 0 28 -5 27 -12 -3 -25 -16 -36 -36 -31 -16 4 -20 1 -17 -13 4 -29 16
-44 31 -38 8 3 16 -3 19 -15 5 -22 -6 -27 -60 -30 -26 -1 -32 3 -35 21 -2 15
-11 24 -25 26 -14 2 -23 11 -25 25 -2 14 -11 23 -26 25 -18 3 -23 9 -22 30 4
55 1 62 -26 62 -14 0 -23 4 -20 9 4 5 3 16 0 25 -7 19 -44 22 -45 4 -1 -7 -2
-29 -2 -48 -2 -29 -6 -35 -24 -34 -21 1 -23 -4 -23 -48 0 -31 -4 -48 -12 -49
-7 0 -29 -1 -48 -2 -28 -2 -35 -6 -35 -22 0 -13 8 -21 23 -23 12 -2 22 -10 22
-18 0 -8 0 -17 0 -21 0 -4 -20 -8 -45 -8 l-45 -2 -1 36 c-1 20 -1 50 -1 68 1
24 -4 33 -19 38 -30 10 -32 5 -30 -87 1 -51 3 -56 21 -53 24 5 39 -33 19 -46
-20 -13 -33 -6 -39 22 -8 32 -44 33 -48 2 -2 -13 1 -24 7 -24 6 -1 17 -2 24
-3 6 0 13 -11 15 -23 3 -21 -1 -23 -45 -23 -46 0 -49 -2 -49 -25 0 -19 5 -25
23 -25 21 0 23 -5 23 -45 0 -43 5 -50 36 -46 6 1 11 -6 12 -14 1 -8 3 -21 4
-27 1 -8 18 -13 48 -13 42 0 46 2 45 25 0 14 6 26 13 26 6 1 18 2 25 3 8 0 13
11 12 23 -1 17 -8 23 -26 23 -17 0 -24 6 -24 20 0 18 8 21 70 25 62 4 70 7 73
26 3 21 -2 22 -90 23 -51 1 -93 3 -94 4 -1 1 -4 11 -6 22 -3 19 3 20 82 21
113 2 111 2 109 17 -1 6 -1 27 0 45 1 24 5 32 20 32 11 0 21 -9 24 -23 6 -22
7 -22 212 -22 130 0 210 -4 215 -10 12 -14 -3 -36 -26 -39 -10 -2 -20 -8 -20
-14 -1 -7 -2 -16 -3 -22 -2 -21 -39 -10 -45 14 -5 21 -11 24 -38 21 -18 -2
-39 -4 -45 -4 -7 -1 -13 -10 -13 -21 0 -15 7 -20 26 -20 20 0 25 -4 22 -22 -2
-16 3 -23 22 -28 19 -5 25 -13 26 -35 3 -61 4 -66 13 -61 15 10 39 -4 37 -21
-3 -20 -33 -37 -41 -23 -4 7 -12 7 -24 0 -10 -5 -21 -6 -25 -3 -3 3 -6 -5 -6
-20 0 -24 4 -26 48 -29 46 -3 47 -3 48 -38 0 -49 -4 -59 -27 -53 -19 5 -21 0
-21 -57 0 -38 2 -41 25 -38 14 2 22 10 22 23 0 23 34 33 45 14 13 -20 0 -39
-26 -39 -21 0 -24 -4 -20 -26 4 -19 1 -25 -12 -23 -33 3 -39 -1 -35 -25 3 -13
10 -23 16 -22 20 3 38 17 32 26 -3 4 1 13 9 19 11 9 18 8 30 -4 9 -9 14 -20
11 -25 -7 -11 14 -17 56 -14 32 1 37 -1 37 -22 0 -23 -3 -24 -73 -24 -71 0
-72 0 -70 -25 3 -21 -1 -25 -24 -25 -25 0 -28 3 -23 26 4 22 2 25 -19 22 -22
-3 -24 1 -29 46 -4 43 -8 50 -28 51 -17 1 -22 -3 -21 -19 5 -54 -1 -74 -24
-80 -33 -8 -34 -46 -1 -46 19 0 24 -5 24 -25 0 -14 -6 -25 -12 -25 -16 0 -40
15 -39 24 3 20 -1 26 -19 26 -20 0 -22 4 -22 40 0 49 3 61 15 59 30 -4 38 2
32 21 -4 11 -2 21 4 21 35 4 51 16 45 34 -4 8 3 15 18 17 20 3 23 9 26 50 3
42 6 47 25 45 16 -1 21 3 22 22 0 23 -4 24 -63 26 -67 2 -81 -6 -77 -45 3 -34
-12 -61 -30 -54 -9 4 -15 0 -16 -7 0 -8 -1 -30 -2 -49 -2 -30 -6 -35 -24 -34
-19 1 -23 -4 -23 -27 0 -24 -3 -27 -24 -23 -20 3 -23 0 -23 -21 0 -24 7 -29
35 -26 7 1 12 -9 12 -24 0 -20 5 -25 25 -25 27 0 34 -23 13 -37 -7 -4 -61 -8
-120 -8 -106 -1 -108 0 -108 22 0 18 6 23 25 23 14 0 24 3 24 8 -5 30 3 43 24
40 16 -2 22 -9 21 -25 -1 -18 4 -23 22 -23 34 0 35 47 2 52 -13 2 -24 9 -24
16 -1 6 -2 16 -3 21 0 5 -16 9 -33 9 -18 0 -39 0 -45 1 -10 1 -13 32 -13 122
0 106 2 120 16 115 9 -3 19 -6 24 -6 5 0 9 -35 8 -77 -1 -116 -4 -108 49 -108
45 0 47 1 46 28 -3 70 -2 70 -23 64 -19 -5 -21 -2 -24 35 -1 6 9 13 22 14 17
3 22 -1 22 -19 0 -30 6 -36 31 -30 12 3 19 14 19 28 0 17 5 22 23 21 17 -1 23
5 25 27 3 23 7 26 28 23 21 -4 24 -2 20 20 -4 20 -1 24 20 24 19 0 24 5 24 26
0 23 -3 26 -25 22 -14 -3 -28 -1 -31 4 -3 4 -10 6 -15 3 -5 -4 -14 -3 -19 0
-17 11 9 46 33 45 44 -4 56 0 59 23 2 14 10 22 23 22 13 0 21 8 23 23 3 18 -1
22 -22 22 -18 0 -25 -6 -28 -22 -3 -19 -9 -23 -43 -23 -33 -1 -41 -4 -43 -22
-2 -11 -12 -23 -22 -26 -21 -5 -47 17 -31 27 5 4 6 18 2 34 -4 15 -4 39 0 55
7 25 5 27 -21 27 -28 0 -29 -2 -27 -45 1 -25 -2 -46 -8 -46 -5 -1 -37 -2 -70
-3 -57 -1 -60 -3 -60 -26 0 -18 5 -25 20 -25 14 0 20 -7 21 -22 1 -20 -4 -23
-40 -24 -84 -2 -91 -4 -101 -26 -6 -14 -19 -23 -31 -23 -15 0 -20 -6 -20 -22
1 -32 -38 -32 -42 0 -3 16 -10 22 -28 22 -19 0 -24 5 -24 24 0 18 -6 25 -22
28 -18 2 -23 10 -24 36 -2 58 -4 63 -14 57 -23 -14 -35 14 -34 77 0 51 4 63
17 63 9 0 22 6 29 13 6 6 8 12 4 12 -5 0 -3 6 4 14 6 8 18 12 26 9 11 -4 14
12 14 90 0 71 -3 96 -14 100 -17 7 -36 -11 -30 -28 3 -7 -2 -15 -10 -18 -17
-7 -49 20 -41 34 6 9 -8 13 -32 10 -8 -1 -13 9 -13 23 0 18 6 25 23 28 18 2
22 10 24 38 0 19 2 40 2 46 1 6 11 11 24 10 16 -1 22 -7 21 -23 -1 -18 4 -23
23 -23 23 0 24 3 21 48 -2 37 -6 46 -19 44 -17 -2 -33 23 -24 38 2 4 14 10 25
13 16 4 20 0 20 -23 0 -26 2 -27 43 -25 23 2 45 3 50 4 4 1 7 10 7 20 0 13 -8
21 -22 23 -15 2 -24 11 -26 25 -3 20 2 22 45 25 39 2 48 6 48 22 0 22 35 32
47 13 9 -15 -10 -37 -31 -37 -11 0 -17 -9 -19 -25 -1 -21 3 -25 23 -25 14 0
25 -3 26 -7 0 -5 2 -16 4 -26 2 -13 -1 -16 -14 -12 -22 7 -44 -17 -36 -38 8
-20 39 -11 50 16 6 12 17 22 25 22 12 0 16 16 18 72 l3 72 47 -3 47 -3 0 49
c0 53 5 50 -85 50 -56 0 -60 -2 -60 -25 0 -21 -4 -23 -40 -22 -44 2 -55 8 -55
32 0 12 -10 16 -36 16 -49 0 -59 -8 -55 -49 2 -24 -3 -38 -14 -44 -25 -13 -36
1 -36 48 1 37 3 42 23 42 15 0 23 7 25 23 3 19 10 22 51 25 45 3 47 2 47 -23
0 -23 3 -25 45 -23 73 2 70 44 -4 50 l-45 3 0 44 c-1 38 -4 44 -23 46 -19 1
-23 -4 -23 -25 0 -19 -5 -26 -20 -26 -23 0 -30 16 -28 64 l1 32 151 1 c83 1
158 1 166 0 12 -1 15 8 14 41 -2 59 -1 56 -26 60 -17 2 -22 9 -20 25 3 19 -1
21 -25 17 -15 -3 -24 -2 -20 2 4 4 2 13 -4 20 -9 11 -6 16 12 23 13 5 27 7 32
4 4 -2 7 7 7 21 0 21 -5 26 -25 26 -24 0 -25 2 -25 70 0 68 1 70 25 70 20 0
25 -5 25 -26z m472 -2 c-3 -19 0 -22 22 -18 22 4 26 1 26 -18 0 -17 -7 -25
-24 -28 -21 -4 -25 -1 -28 21 -2 18 -9 26 -23 26 -11 0 -20 7 -21 15 -1 24 7
31 29 28 17 -2 21 -9 19 -26z m144 6 c1 -10 -1 -18 -4 -19 -4 0 -15 -2 -24 -4
-13 -2 -18 3 -18 22 0 19 4 24 22 21 11 -2 22 -11 24 -20z m237 2 c3 -11 1
-21 -4 -21 -5 -1 -15 -2 -21 -3 -17 -2 -27 14 -21 31 8 20 40 16 46 -7z m664
-146 l0 -164 -166 0 -166 0 1 163 c1 89 2 163 3 165 1 1 75 2 165 1 l163 -1 0
-164z m-1379 98 c2 -12 -1 -22 -6 -22 -6 0 -17 -3 -26 -6 -12 -5 -16 0 -16 18
0 30 6 37 28 34 9 -2 18 -13 20 -24z m622 -2 c0 -12 -9 -20 -22 -22 -15 -2
-24 -11 -26 -25 -3 -18 1 -23 20 -23 19 0 24 -5 24 -25 0 -19 -5 -24 -23 -23
-17 2 -23 9 -23 25 0 18 -6 23 -24 23 -22 0 -24 -4 -21 -42 1 -24 3 -46 4 -49
0 -3 20 -5 44 -4 l44 1 -1 -45 c0 -40 3 -46 24 -51 16 -4 25 -13 25 -25 0 -18
-7 -20 -70 -20 -63 0 -70 2 -70 20 0 13 -8 22 -25 25 -29 6 -38 35 -14 44 9 3
19 4 24 1 4 -3 10 4 13 15 7 25 -7 33 -57 34 -36 1 -41 4 -38 23 2 16 -3 22
-20 25 -15 2 -24 11 -26 26 -3 18 1 22 23 22 21 0 26 4 23 22 -2 18 2 23 22
23 20 0 25 -4 23 -23 -3 -20 1 -23 25 -20 19 2 27 9 27 23 0 11 6 21 13 21 6
1 17 2 22 3 6 0 10 10 10 20 0 21 17 31 38 23 6 -2 12 -12 12 -22z m176 22 c6
-4 11 -25 10 -47 l-1 -40 -47 -3 c-46 -3 -48 -2 -46 22 2 20 7 25 20 20 11 -3
20 1 23 10 3 9 7 23 10 31 5 16 14 19 31 7z m147 -1 c4 -1 7 -21 7 -45 0 -39
3 -45 23 -48 21 -3 22 -6 22 -116 l0 -114 26 -5 c19 -3 26 -11 25 -26 -1 -17
-8 -21 -48 -23 -43 -2 -47 -1 -50 22 -2 14 -6 24 -10 24 -5 0 -25 0 -46 0 -31
0 -38 -4 -39 -20 -2 -20 1 -21 47 -25 14 -1 31 -3 38 -3 6 -1 12 -11 12 -22 0
-22 -2 -23 -82 -22 -55 1 -58 0 -58 -23 0 -18 5 -25 20 -25 19 0 24 -10 21
-38 -2 -9 4 -12 17 -8 24 8 44 -14 32 -34 -10 -16 -39 -23 -41 -9 -1 5 -2 14
-3 20 -3 31 -96 29 -96 -2 0 -37 -46 -34 -52 4 -2 16 -9 21 -24 19 -18 -2 -21
2 -18 23 2 23 -1 26 -24 23 -22 -3 -26 -8 -27 -38 -3 -59 -3 -58 -47 -57 -36
2 -44 6 -46 25 -3 18 1 22 22 22 21 0 26 5 26 25 0 20 5 25 25 25 22 0 24 4
23 38 0 20 0 42 1 47 1 6 39 10 95 9 52 0 95 2 94 5 -3 26 5 40 25 43 18 2 22
10 23 38 0 47 -5 61 -23 58 -9 -2 -19 7 -24 20 -6 15 -5 22 4 23 7 1 19 2 27
3 17 1 21 25 7 43 -12 17 -42 0 -42 -24 0 -14 -8 -18 -35 -19 -19 -1 -41 -2
-48 -3 -9 -1 -13 -13 -12 -33 3 -55 1 -60 -22 -56 -21 3 -23 8 -23 70 0 61 1
67 23 71 12 2 25 0 28 -5 3 -5 11 -5 17 0 7 5 27 7 45 5 28 -2 32 0 32 22 0
35 37 35 46 0 4 -17 13 -25 28 -25 18 0 21 6 21 45 0 25 -3 46 -7 46 -5 1 -12
3 -18 4 -5 1 -14 3 -19 4 -11 1 -9 34 3 42 7 5 42 5 79 0z m-1083 -257 c0 -19
-5 -24 -25 -24 -18 0 -25 5 -25 18 0 23 4 27 30 29 15 1 20 -4 20 -23z m470
14 c0 -5 0 -15 0 -23 0 -9 -9 -15 -23 -15 -19 0 -23 5 -21 23 3 27 0 24 24 23
11 0 20 -4 20 -8z m479 -39 c1 -45 -1 -49 -22 -49 -21 0 -24 5 -26 49 -2 45 0
49 22 49 22 0 25 -5 26 -49z m-1331 -73 c1 -18 -3 -23 -16 -21 -9 2 -20 4 -24
4 -5 1 -8 10 -8 21 0 31 45 27 48 -4z m1709 -23 l-2 -48 -45 1 c-41 1 -45 3
-45 25 0 17 6 24 20 24 13 0 21 8 23 23 2 15 10 22 27 22 21 0 23 -4 22 -47z
m193 27 c0 -21 0 -21 -75 -24 -71 -3 -78 1 -66 42 1 1 33 2 71 2 63 0 70 -2
70 -20z m-1860 -32 c0 -29 17 -49 36 -41 10 4 14 -2 14 -21 0 -26 -1 -26 -71
-26 -67 0 -70 1 -67 23 2 13 10 22 20 22 10 0 18 5 19 10 2 21 19 42 33 42 9
0 16 -4 16 -9z m1050 -43 c0 -28 -5 -45 -15 -48 -19 -8 -29 10 -32 55 -1 27 3
38 15 41 27 6 32 -2 32 -48z m521 -33 c0 -20 1 -53 2 -72 l2 -35 60 0 c33 0
65 -4 71 -7 6 -4 10 -25 9 -48 -2 -35 1 -40 20 -40 14 0 25 -8 28 -19 7 -27 0
-31 -49 -31 -37 0 -43 3 -46 23 -4 32 -45 36 -50 5 -2 -15 -11 -24 -25 -26
-19 -3 -23 1 -23 21 0 16 -7 26 -20 30 -11 3 -20 0 -21 -6 -6 -65 -3 -137 6
-138 58 -7 85 0 85 21 0 21 3 23 45 23 47 0 56 -3 50 -13 -9 -15 14 -40 31
-33 8 3 14 14 14 24 0 10 7 19 15 19 8 0 18 0 23 1 4 0 9 -10 12 -23 4 -14 13
-23 25 -23 17 0 20 -7 20 -45 0 -39 -3 -45 -22 -48 -21 -3 -23 0 -23 48 0 48
-2 51 -22 48 -21 -3 -23 -8 -24 -72 0 -60 -3 -70 -19 -72 -27 -4 -32 8 -30 79
2 59 1 62 -22 63 -23 2 -27 -8 -25 -64 1 -16 -7 -26 -23 -32 -34 -13 -34 -50
0 -50 20 0 25 -5 25 -25 0 -20 -4 -24 -22 -21 -14 2 -25 12 -28 27 -6 23 -14
25 -82 20 -16 -1 -19 -16 -6 -37 4 -6 25 -10 48 -8 36 2 40 0 40 -21 0 -17 -6
-25 -22 -27 -20 -3 -23 -10 -24 -45 -1 -24 2 -44 7 -44 5 -1 15 -2 22 -3 6 -1
14 10 17 24 4 18 11 24 26 22 18 -2 21 3 21 38 0 22 3 43 7 47 10 11 86 11 87
1 1 -4 2 -14 3 -20 1 -7 -10 -15 -24 -18 -22 -5 -25 -10 -24 -48 0 -36 -3 -43
-22 -48 -41 -10 -36 -48 6 -49 9 0 15 -9 14 -22 -1 -17 4 -23 21 -23 12 0 24
-3 28 -6 10 -11 -5 -35 -29 -44 -29 -11 -30 -54 -1 -46 12 3 21 -3 27 -20 5
-13 15 -25 22 -25 7 -1 26 -2 42 -3 21 -1 30 -7 32 -21 3 -23 -16 -38 -32 -24
-8 7 -14 6 -19 -1 -10 -17 -48 9 -42 30 3 13 -1 18 -19 18 -13 0 -24 -3 -25
-7 0 -3 -2 -14 -4 -23 -2 -13 3 -18 21 -18 26 0 27 -4 25 -92 -1 -47 4 -53 37
-49 7 1 12 -9 12 -24 0 -23 -3 -25 -49 -25 l-49 0 3 -45 c2 -49 -6 -56 -62
-51 -30 2 -33 0 -33 -27 0 -15 4 -26 9 -23 17 11 43 -6 38 -25 -4 -15 0 -19
23 -19 27 0 28 2 25 45 -2 44 4 51 38 46 7 -1 11 14 8 35 -2 15 26 21 64 14
36 -6 44 -45 10 -45 -15 0 -20 -7 -20 -25 0 -18 5 -25 20 -25 17 0 20 -7 20
-45 0 -39 -3 -45 -22 -48 -21 -3 -23 0 -23 47 0 34 -4 51 -12 51 -28 0 -38
-17 -35 -58 l3 -42 -48 0 c-26 0 -49 -4 -49 -10 -1 -5 -2 -16 -3 -22 0 -7 -10
-13 -21 -13 -17 0 -20 8 -23 46 -3 42 -5 47 -27 47 -20 0 -25 -6 -25 -24 0
-17 -6 -24 -20 -24 -11 0 -21 5 -21 10 -1 6 -2 16 -3 23 -1 6 10 14 24 17 20
4 25 11 25 35 1 47 -10 60 -47 60 -46 -1 -61 -11 -48 -36 6 -11 14 -17 18 -15
5 3 14 1 21 -4 21 -12 5 -40 -22 -40 -18 0 -23 5 -23 23 1 15 -5 22 -19 22
-12 0 -21 9 -25 25 -7 30 -42 35 -46 7 -4 -29 -9 -31 -79 -31 -61 0 -65 -1
-65 -22 0 -16 -7 -24 -22 -26 -15 -2 -23 -10 -23 -23 0 -13 8 -21 23 -23 16
-2 22 -10 22 -27 0 -17 -5 -22 -17 -20 -10 2 -22 4 -27 4 -4 1 -6 10 -3 21 4
17 0 20 -24 20 -25 0 -29 -3 -25 -23 4 -21 1 -23 -45 -23 -44 0 -49 2 -49 23
0 19 -6 22 -47 25 l-48 3 1 68 c0 65 -2 69 -33 66 -5 0 -10 10 -13 23 -4 14
-15 24 -28 26 -16 3 -21 9 -20 28 2 19 7 24 21 20 13 -3 19 3 24 25 3 16 8 27
11 25 8 -8 43 14 37 23 -12 20 33 32 88 22 11 -2 9 -231 -3 -232 -5 -1 -16 -2
-22 -3 -7 0 -14 -11 -14 -23 -1 -18 4 -23 22 -23 19 0 24 -5 24 -26 0 -24 2
-25 47 -22 l48 3 0 43 c0 23 -3 43 -7 43 -5 1 -13 2 -20 3 -17 2 -23 40 -22
136 2 111 3 112 13 106 16 -10 39 5 37 22 -2 13 -15 18 -50 20 -29 2 -46 8
-45 15 3 27 -2 39 -15 34 -21 -8 -33 13 -32 58 l1 39 45 1 c39 0 45 3 48 23 4
23 0 25 -59 22 -32 -1 -36 1 -35 22 1 20 6 23 46 23 39 0 45 -3 48 -22 2 -14
11 -23 25 -25 19 -3 22 -10 23 -45 0 -46 2 -45 -63 -46 -28 -1 -33 -4 -33 -24
0 -25 -1 -25 105 -25 87 0 83 -1 87 25 3 19 9 22 47 22 35 0 45 -4 47 -18 2
-12 -7 -22 -25 -28 -17 -6 -27 -17 -27 -30 0 -19 6 -19 121 -17 112 3 120 4
120 23 0 17 -7 20 -55 22 -30 0 -62 1 -71 2 -14 1 -16 18 -15 119 1 115 1 117
24 116 16 -1 22 4 22 21 0 28 -7 34 -30 28 -10 -3 -20 -15 -22 -27 -2 -13 -10
-21 -23 -21 -14 0 -20 -6 -19 -22 2 -30 -43 -39 -48 -9 -7 40 6 81 27 84 26 5
25 4 19 29 -4 14 -11 19 -25 16 -13 -4 -19 0 -19 11 0 9 0 19 0 23 0 5 20 9
45 11 44 4 50 -1 46 -34 -1 -7 15 -12 39 -12 22 0 44 -3 49 -6 4 -3 9 -29 9
-58 0 -78 0 -78 26 -78 18 0 23 -5 21 -17 -2 -10 -4 -22 -4 -26 -1 -5 -11 -7
-23 -5 -17 2 -22 9 -20 25 3 19 -1 23 -22 21 -20 -2 -26 -8 -26 -25 0 -18 6
-23 24 -23 23 0 24 -3 22 -45 -1 -26 2 -45 8 -46 6 -1 17 -2 25 -3 8 0 15 -9
17 -19 1 -11 4 -20 6 -22 3 -3 56 -8 76 -6 17 1 12 46 -5 47 -7 1 -17 2 -22 3
-5 0 -9 34 -9 74 0 116 -1 120 -16 114 -21 -8 -33 13 -31 56 1 34 -1 37 -26
37 -21 0 -26 4 -24 18 2 9 4 21 4 25 1 5 11 7 22 5 17 -2 22 3 25 26 2 23 0
27 -16 23 -11 -3 -24 1 -31 9 -9 11 -9 14 0 14 7 0 9 5 5 12 -13 21 -12 50 3
55 8 3 40 6 71 7 51 1 57 3 60 23 3 22 1 22 -90 21 l-93 -1 -5 -70 -5 -70 -60
0 c-84 1 -83 1 -78 26 4 20 1 24 -19 22 -20 -1 -23 -8 -26 -43 -2 -29 -9 -45
-23 -52 -25 -14 -27 -6 -27 93 0 42 -1 82 -1 88 -1 6 -11 9 -23 7 -21 -3 -23
-8 -22 -70 0 -67 0 -68 -26 -68 -25 0 -27 2 -23 39 4 45 0 49 -51 53 -39 2
-48 16 -43 68 2 19 7 24 25 23 20 -3 22 1 22 47 0 45 2 50 23 51 75 3 71 1 72
49 l0 45 45 0 c41 0 45 -2 48 -26 2 -21 7 -25 26 -22 19 4 23 1 22 -19 -1 -16
-8 -24 -23 -26 -20 -3 -23 -9 -23 -47 0 -38 3 -44 22 -47 27 -4 37 -36 14 -43
-9 -3 -22 -7 -30 -9 -9 -3 -12 -13 -9 -24 3 -14 14 -19 45 -20 48 -2 59 -8 56
-30 -2 -12 4 -17 21 -17 25 0 26 5 22 80 -1 9 -11 15 -25 15 -18 0 -23 5 -22
23 1 14 -5 22 -16 22 -28 0 -42 20 -25 37 10 10 34 14 76 13 58 -2 61 -1 61
21 0 19 -5 24 -24 24 -22 0 -24 4 -22 48 2 41 5 47 24 48 20 1 22 -4 22 -48 0
-45 2 -49 23 -46 17 2 22 10 23 33 1 17 2 38 3 48 0 10 7 17 14 16 28 -3 33 3
33 46 0 45 0 45 -43 45 -4 0 -8 -10 -8 -23 0 -16 -6 -22 -22 -23 -18 -1 -23 4
-23 22 0 16 -7 24 -22 26 -15 2 -23 10 -23 23 0 18 8 20 73 23 62 2 73 6 71
20 -2 26 -1 28 21 29 17 1 20 -5 21 -35z m191 10 c-3 -20 1 -22 46 -22 l49 0
0 -95 c0 -93 -1 -95 -24 -95 -18 0 -23 5 -23 25 0 15 -5 25 -12 24 -30 -4 -34
3 -35 59 -1 83 -1 82 -27 82 -18 0 -23 -5 -22 -22 1 -17 -5 -24 -21 -26 -19
-3 -23 1 -23 22 0 18 6 25 23 28 12 2 23 9 23 16 1 6 2 16 3 21 0 4 11 8 24 7
17 -1 21 -6 19 -24z m-1188 -38 c8 -21 -1 -34 -23 -34 -18 0 -35 33 -23 44 11
12 40 5 46 -10z m-617 -105 c-1 -66 -2 -69 -24 -69 -24 0 -24 2 -22 68 2 66
11 85 35 75 8 -3 12 -27 11 -74z m903 44 c0 -22 4 -25 26 -20 23 4 25 2 21
-19 -2 -13 1 -25 7 -25 6 -1 17 -2 25 -3 8 0 15 -11 16 -23 1 -18 -4 -23 -22
-23 -22 0 -25 -4 -25 -35 0 -49 3 -66 15 -64 26 3 35 -2 33 -18 -2 -25 -10
-29 -56 -27 -36 1 -40 -1 -40 -22 0 -23 -3 -24 -70 -24 -70 0 -76 -3 -72 -41
1 -4 -10 -6 -23 -6 -23 0 -25 3 -25 48 0 27 3 48 8 48 28 -5 42 3 42 24 0 21
4 22 67 22 l68 0 3 48 3 47 -41 -3 c-47 -4 -51 0 -55 54 -3 38 3 45 36 41 4
-1 9 12 12 28 5 23 10 27 27 23 13 -4 20 -14 20 -30z m-710 -40 c0 -18 -5 -23
-25 -23 -18 0 -25 5 -25 19 0 19 12 28 38 28 6 0 12 -11 12 -24z m944 -40 c8
-20 -1 -33 -24 -33 -12 0 -20 -8 -22 -22 -2 -15 -11 -24 -26 -26 -15 -2 -22
-9 -18 -17 6 -18 -17 -37 -37 -29 -21 8 -17 44 5 44 22 0 30 14 33 59 1 20 3
36 4 37 0 0 19 0 40 1 26 1 42 -4 45 -14z m-1093 -40 c0 -5 2 -16 4 -25 2 -14
-4 -18 -25 -18 -28 0 -29 -2 -24 -40 6 -49 0 -60 -26 -53 -16 4 -20 14 -20 48
0 38 3 44 26 49 16 4 24 12 21 20 -3 8 -3 17 0 20 9 9 43 7 44 -1z m951 -195
c3 -7 4 -30 3 -50 l-1 -37 48 3 48 2 0 -73 c0 -72 0 -73 26 -73 21 0 25 -4 22
-22 -2 -15 -10 -23 -23 -23 -12 0 -21 -9 -25 -25 -5 -21 -11 -24 -50 -25 -40
0 -45 -2 -44 -22 1 -18 -4 -23 -22 -23 -13 0 -24 -6 -25 -12 -5 -123 -5 -128
17 -128 12 0 24 -7 28 -15 7 -20 -18 -42 -46 -39 -12 1 -29 3 -36 3 -9 1 -13
13 -12 34 1 17 2 60 1 95 -1 59 -2 62 -26 62 -20 0 -25 5 -25 23 0 23 3 24 73
23 57 -1 72 3 73 14 1 8 2 20 3 27 0 7 7 10 15 7 8 -3 19 3 25 15 9 16 8 22
-6 29 -10 5 -23 8 -28 5 -6 -2 -11 8 -11 23 0 21 4 25 23 21 22 -4 24 -2 23
41 0 7 -5 8 -39 11 -7 0 -11 7 -8 16 8 19 -11 30 -53 30 -29 0 -36 4 -38 23
-3 18 1 22 23 22 15 0 25 5 24 13 -3 27 2 37 20 37 10 0 21 -6 23 -12z m-140
-66 c-3 -20 0 -22 23 -18 24 4 26 2 23 -22 -2 -19 -9 -27 -23 -27 -12 0 -20 7
-20 17 0 21 -12 33 -32 33 -9 0 -18 10 -20 23 -3 20 1 23 24 20 23 -2 27 -7
25 -26z m-854 -89 c3 -19 -1 -23 -22 -23 -21 0 -26 5 -26 24 0 32 44 31 48 -1z
m804 18 c4 0 5 -10 3 -21 -3 -16 2 -20 21 -20 19 0 24 -5 24 -26 0 -20 5 -25
23 -24 61 5 77 1 75 -23 -2 -21 -7 -23 -43 -21 -56 2 -55 2 -55 24 0 17 -7 20
-45 20 -44 0 -52 8 -46 44 1 5 -8 6 -19 3 -23 -6 -36 13 -27 37 5 11 46 15 89
7z m187 0 c19 -12 6 -41 -19 -41 -15 0 -20 7 -20 25 0 26 14 31 39 16z m242
-58 c1 -10 1 -21 0 -25 0 -5 10 -8 24 -8 23 0 24 -2 24 -70 0 -68 -1 -70 -25
-70 -23 0 -25 3 -23 40 3 42 -3 55 -29 55 -13 0 -17 10 -18 40 -1 49 2 55 27
55 11 0 19 -7 20 -17z m619 -32 c0 -46 2 -49 24 -47 23 3 24 1 23 -70 -1 -70
-3 -74 -24 -74 -21 0 -22 5 -25 72 -3 66 -5 71 -27 75 -17 2 -22 -1 -18 -12 8
-20 -22 -50 -36 -36 -14 14 -18 41 -6 42 5 1 13 2 18 3 16 2 20 11 22 47 3 44
6 49 30 49 16 0 19 -7 19 -49z m-664 -75 c2 -14 -30 -29 -40 -18 -11 10 -6 40
7 45 14 5 30 -7 33 -27z m-996 -85 c0 -25 -14 -34 -39 -26 -28 9 -16 45 15 45
17 0 24 -6 24 -19z m1658 -57 c-5 -26 -43 -25 -43 1 0 22 25 38 38 25 5 -4 7
-16 5 -26z m-998 -49 c0 -18 -4 -21 -23 -18 -24 5 -33 32 -14 45 17 11 37 -3
37 -27z m-330 -37 c0 -25 -38 -44 -46 -23 -9 24 3 44 25 42 13 -1 21 -8 21
-19z m-192 -100 c-2 -17 -10 -22 -40 -24 -44 -2 -63 9 -55 30 5 11 19 16 52
16 42 0 46 -2 43 -22z m142 -1 c0 -16 -6 -23 -20 -24 -11 -1 -20 2 -20 7 0 5
-3 15 -6 24 -5 12 0 16 20 16 20 0 26 -5 26 -23z m480 4 c0 -20 -25 -35 -41
-25 -5 3 -9 14 -9 25 0 14 7 19 25 19 18 0 25 -5 25 -19z m950 0 c0 -20 -25
-35 -41 -25 -5 3 -9 14 -9 25 0 14 7 19 25 19 18 0 25 -5 25 -19z m-1619 -83
c0 -4 1 -73 1 -153 0 -80 -1 -151 -1 -158 -1 -9 -41 -12 -166 -13 l-165 -1 0
167 0 166 165 0 c91 0 165 -4 166 -8z m619 -301 c0 -22 -4 -24 -45 -22 -52 3
-60 7 -52 30 5 10 20 15 52 15 40 0 45 -2 45 -23z m616 1 c-1 -22 -6 -23 -72
-24 -66 -1 -70 0 -68 20 1 12 3 22 3 24 1 1 32 2 70 2 64 0 68 -1 67 -22z"/>
<path d="M4319 5580 c-4 -23 -3 -205 2 -218 6 -16 67 -20 219 -13 13 1 15 19
14 109 -1 59 -2 112 -3 117 -1 10 -230 15 -232 5z m189 -114 l-3 -70 -70 -1
-69 0 -1 65 c-1 36 0 68 1 71 2 3 35 5 74 5 l71 0 -3 -70z"/>
<path d="M5033 5575 c-8 -22 1 -38 24 -40 15 -1 20 4 19 23 -1 28 -34 40 -43
17z"/>
<path d="M4707 5533 c-12 -11 -8 -41 7 -46 19 -8 35 11 29 34 -5 19 -24 25
-36 12z"/>
<path d="M4559 5201 c0 -3 -2 -14 -4 -23 -3 -17 10 -23 41 -19 7 1 9 -9 6 -24
-4 -22 -1 -25 22 -25 21 0 26 5 26 26 0 21 4 25 20 21 13 -3 21 1 26 15 7 23
1 31 -26 33 -14 1 -20 -5 -20 -20 0 -12 -3 -24 -6 -28 -11 -10 -35 5 -44 28
-7 19 -39 31 -41 16z"/>
<path d="M5079 5195 c-7 -79 -5 -86 21 -83 17 2 25 9 25 23 0 14 7 20 23 21
32 2 32 2 23 26 -6 18 -16 22 -49 23 -23 0 -42 -4 -43 -10z"/>
<path d="M4853 5013 c-7 -3 -13 -15 -13 -27 0 -19 -5 -22 -40 -20 -45 2 -62
-12 -55 -46 5 -28 -10 -50 -35 -50 -13 0 -16 -6 -12 -25 2 -14 9 -25 16 -24
26 3 35 -2 31 -21 -4 -19 5 -24 33 -21 8 1 12 -14 12 -49 0 -48 2 -51 23 -48
14 2 23 11 25 26 3 16 10 22 28 22 21 0 25 4 22 23 -2 12 -9 23 -15 23 -7 1
-17 2 -23 3 -5 0 -10 21 -10 46 0 41 -2 45 -25 45 -20 0 -24 4 -23 26 2 20 7
25 28 23 62 -3 65 -2 67 45 2 44 -8 58 -34 49z"/>
<path d="M4460 4756 c0 -21 5 -26 26 -26 21 0 25 4 22 23 -2 14 -11 23 -25 25
-19 3 -23 -1 -23 -22z"/>
<path d="M4650 4756 c0 -21 5 -26 25 -26 20 0 24 4 21 23 -2 13 -11 23 -24 25
-18 3 -22 -2 -22 -22z"/>
<path d="M4553 4710 c4 -15 -1 -22 -19 -26 -17 -4 -24 -13 -24 -31 0 -13 5
-23 13 -22 27 3 35 -2 30 -20 -6 -24 22 -35 41 -15 8 8 13 21 10 29 -4 10 0
12 15 8 15 -4 23 1 30 18 7 21 5 25 -18 29 -17 3 -27 13 -29 28 -3 16 -10 22
-29 22 -20 0 -24 -4 -20 -20z"/>
<path d="M4324 4682 c-12 -9 -12 -35 1 -44 21 -15 44 -8 42 13 -2 23 -28 42
-43 31z"/>
<path d="M4433 4682 c-17 -3 -23 -10 -23 -28 0 -25 14 -30 38 -15 23 14 10 46
-15 43z"/>
<path d="M4890 4335 c0 -8 0 -18 0 -22 0 -13 83 -14 91 -1 15 24 -3 38 -47 38
-32 0 -44 -4 -44 -15z"/>
<path d="M4980 4190 c0 -26 38 -47 46 -25 9 23 -3 45 -26 45 -13 0 -20 -7 -20
-20z"/>
<path d="M5935 5580 c-6 -11 -3 -230 3 -231 30 -4 216 -3 223 2 6 3 8 56 7
120 l-3 114 -113 0 c-63 0 -115 -2 -117 -5z m186 -64 c1 -24 1 -109 0 -116 -1
-3 -31 -5 -68 -5 l-68 0 -3 70 -3 70 71 1 c64 1 70 -1 71 -20z"/>
<path d="M5267 5483 c-3 -4 -1 -18 4 -31 7 -19 11 -21 28 -11 10 7 18 20 16
28 -2 17 -40 28 -48 14z"/>
<path d="M5364 5335 c-8 -20 4 -35 27 -35 28 0 27 45 -2 47 -11 1 -22 -4 -25
-12z"/>
<path d="M5758 5393 c-12 -3 -16 -15 -16 -49 0 -40 2 -44 24 -44 22 0 24 4 24
44 0 47 -5 55 -32 49z"/>
<path d="M5508 5153 c-10 -19 -1 -38 18 -41 15 -2 23 3 27 17 3 12 1 21 -3 21
-5 0 -15 3 -23 6 -8 3 -17 2 -19 -3z"/>
<path d="M5557 4923 c-10 -22 0 -48 21 -51 17 -3 22 2 22 17 0 20 -35 48 -43
34z"/>
<path d="M5505 4850 c4 -19 1 -22 -27 -24 -20 -2 -28 -18 -18 -36 6 -12 21
-17 44 -16 44 2 48 6 50 55 2 39 1 41 -25 41 -22 0 -27 -4 -24 -20z"/>
<path d="M5980 4305 c0 -33 5 -47 16 -52 21 -8 32 11 32 58 1 35 -2 39 -24 39
-22 0 -24 -4 -24 -45z"/>
<path d="M5982 4148 c-15 -18 1 -41 24 -36 23 4 26 41 3 46 -9 1 -21 -3 -27
-10z"/>
<path d="M5550 4085 c0 -20 5 -24 22 -22 15 1 23 -4 26 -18 6 -27 18 -33 55
-29 37 5 43 -4 42 -56 -1 -38 1 -41 24 -38 23 3 25 7 26 48 0 41 2 45 23 43
17 -2 22 2 22 22 0 28 4 27 -105 29 -75 1 -80 2 -83 24 -5 34 -52 31 -52 -3z"/>
<path d="M5843 4061 c-7 -5 -8 -58 -4 -122 1 -14 13 -17 71 -17 l70 0 0 72 0
71 -65 1 c-36 0 -68 -2 -72 -5z m90 -66 c3 -17 -1 -25 -15 -28 -19 -5 -31 7
-33 34 -2 27 42 21 48 -6z"/>
<path d="M5319 4016 c0 -1 -2 -10 -4 -20 -4 -21 -25 -37 -37 -30 -4 3 -8 -2
-8 -10 0 -9 0 -19 0 -23 0 -5 20 -9 45 -11 32 -3 45 0 46 10 6 73 4 81 -19 83
-12 1 -22 1 -23 1z"/>
<path d="M5507 4012 c-3 -6 -2 -116 2 -133 0 -4 32 -6 70 -6 l70 2 -2 47 -1
48 -48 0 c-43 0 -48 2 -48 23 0 15 -6 23 -20 24 -11 1 -21 -1 -23 -5z"/>
<path d="M6035 4012 c-5 -4 -11 -15 -11 -25 -2 -14 4 -17 25 -15 15 2 26 9 26
18 1 14 -13 30 -25 30 -3 0 -9 -4 -15 -8z"/>
<path d="M4324 3958 c-4 -7 -8 -61 -8 -120 l-1 -108 118 0 c86 0 117 3 118 13
1 6 2 60 3 119 l1 107 -112 0 c-76 0 -114 -3 -119 -11z m184 -108 c0 -78 1
-78 -87 -70 l-56 5 0 65 c0 41 4 67 12 70 7 3 39 4 71 2 l60 -4 0 -68z"/>
<path d="M166 4902 c-4 -8 -19 -69 -21 -92 -2 -14 -23 -138 -30 -177 -2 -10
-4 -18 -5 -18 -1 0 -3 -8 -5 -17 -3 -17 16 -24 84 -33 16 -2 58 -9 93 -16 63
-11 87 -16 131 -23 12 -1 37 -6 55 -10 l34 -8 -6 -71 c-7 -84 -9 -93 -25 -128
-25 -51 -77 -62 -191 -39 -30 6 -71 13 -90 16 -19 3 -55 10 -79 15 -46 10 -60
3 -62 -31 0 -8 -2 -22 -4 -30 -3 -15 -11 -56 -22 -120 -11 -64 -13 -75 -18
-102 -7 -30 -1 -36 51 -43 72 -11 79 -12 114 -20 19 -4 46 -9 60 -11 14 -1 34
-5 46 -7 42 -10 130 -20 159 -18 99 5 192 59 252 146 39 57 76 232 75 356 l-1
47 32 -9 c18 -4 50 -10 72 -13 22 -3 65 -10 95 -16 64 -13 149 -28 202 -36 36
-5 37 -5 47 33 5 21 13 58 16 83 4 25 9 54 12 65 2 11 6 36 9 55 2 19 7 43 10
52 5 18 -21 37 -59 43 -93 15 -175 28 -192 32 -11 2 -33 6 -50 8 -16 3 -41 7
-55 10 -14 3 -50 9 -80 15 -30 5 -82 14 -115 20 -33 6 -76 13 -95 15 -19 3
-46 8 -60 11 -14 3 -34 8 -45 9 -138 25 -216 38 -245 42 -19 2 -47 8 -62 13
-15 5 -29 6 -32 2z"/>
<path d="M10297 4823 c-3 -2 -20 -5 -97 -18 -19 -3 -42 -8 -50 -10 -8 -2 -33
-6 -55 -10 -22 -3 -74 -12 -115 -20 -41 -8 -88 -16 -105 -18 -16 -3 -57 -10
-90 -16 -33 -6 -73 -13 -90 -16 -16 -2 -41 -7 -55 -10 -14 -3 -38 -7 -55 -10
-16 -2 -68 -11 -115 -20 -47 -8 -117 -20 -156 -27 l-71 -11 4 -36 c2 -20 11
-72 19 -116 9 -44 17 -96 20 -115 2 -19 13 -82 24 -140 11 -58 22 -121 25
-140 3 -19 8 -46 10 -60 25 -121 39 -205 37 -213 -2 -8 42 -4 122 13 31 6 60
9 65 6 5 -4 12 -2 16 4 3 5 18 10 32 10 24 0 25 2 18 38 -13 68 -36 201 -41
242 -6 43 -34 194 -39 207 -4 12 8 18 55 27 14 3 34 7 45 10 37 8 40 8 56 7
12 -1 19 -20 29 -78 7 -43 14 -86 16 -95 9 -40 12 -57 25 -137 7 -46 18 -85
24 -87 5 -2 33 0 60 6 28 6 64 12 80 14 64 8 105 19 105 27 0 5 -11 73 -25
151 -45 250 -45 257 -17 256 19 0 87 10 114 18 12 4 18 -5 23 -38 4 -24 9 -52
12 -63 2 -11 6 -33 8 -50 3 -16 6 -39 9 -50 2 -11 7 -40 12 -65 4 -25 8 -47 9
-50 1 -3 7 -40 15 -83 l13 -79 46 6 c25 4 66 11 91 16 25 5 62 12 83 15 41 7
40 -1 17 120 -5 28 -12 64 -15 80 -3 17 -7 41 -9 55 -3 14 -10 54 -16 90 -6
36 -13 76 -16 90 -2 14 -7 41 -10 60 -3 19 -7 42 -9 50 -2 8 -6 29 -9 45 -3
17 -12 71 -20 120 -9 50 -16 92 -16 95 0 5 -38 8 -43 3z"/>
<path d="M1854 4805 c-11 -8 -70 -202 -89 -290 -2 -11 -6 -31 -9 -45 -3 -14
-10 -45 -16 -70 -11 -51 -14 -69 -35 -195 -16 -100 -23 -154 -30 -235 -3 -30
-8 -75 -10 -100 -3 -25 -7 -113 -10 -196 -5 -119 -3 -152 7 -156 22 -8 2246
-3 2254 4 8 9 10 1276 1 1284 -11 11 -2049 10 -2063 -1z"/>
<path d="M6593 4812 c-32 -3 -33 -5 -34 -50 -2 -103 0 -173 6 -182 3 -5 1 -11
-5 -15 -6 -4 -8 -11 -4 -16 3 -6 6 -32 5 -57 -3 -184 -2 -222 3 -231 4 -5 2
-12 -4 -16 -6 -4 -7 -11 -4 -17 4 -6 6 -56 5 -112 -1 -55 -2 -107 -1 -113 0
-27 1 -51 1 -133 0 -47 0 -91 0 -97 0 -7 0 -34 0 -60 0 -27 0 -76 0 -110 0
-34 -2 -67 -5 -72 -3 -5 0 -11 7 -13 6 -3 518 -4 1137 -4 l1125 1 -1 130 c0
138 -10 283 -29 435 -4 30 -8 69 -10 85 -2 17 -4 30 -5 30 -1 0 -3 9 -4 20 -6
38 -17 100 -21 115 -2 8 -6 32 -10 54 -3 21 -7 41 -10 45 -2 4 -6 18 -9 32
-16 86 -66 275 -87 329 l-9 25 -1003 0 c-551 0 -1017 -1 -1034 -3z"/>
<path d="M39 3107 c-5 -9 -2 -301 3 -310 4 -6 71 -10 190 -10 l184 0 -1 -526
0 -526 210 0 210 0 2 480 c1 264 3 489 4 500 1 11 1 25 -1 30 -11 43 -8 44
173 43 94 0 179 0 188 1 13 1 16 22 16 161 l0 160 -589 -1 c-323 0 -588 -1
-589 -2z"/>
<path d="M1404 3098 c-9 -14 -9 -1347 1 -1356 8 -8 1064 -10 1066 -2 4 19 3
303 -1 309 -3 4 -149 7 -325 6 l-320 0 -3 108 -3 107 266 0 c245 0 265 1 266
18 0 9 1 81 2 160 l2 142 -40 0 c-22 1 -143 1 -268 1 l-228 0 3 97 3 97 280 2
c154 1 295 2 313 2 l32 1 0 159 0 159 -520 1 c-360 0 -521 -3 -526 -11z"/>
<path d="M2677 3104 c-2 -2 -1 -22 3 -44 4 -21 3 -43 -1 -47 -4 -4 -4 -25 0
-45 5 -20 6 -40 3 -43 -7 -7 -4 -123 3 -135 3 -5 2 -11 -2 -13 -9 -6 -7 -132
2 -147 3 -5 2 -11 -2 -13 -9 -6 -7 -132 2 -147 3 -5 2 -11 -2 -13 -9 -6 -7
-132 2 -147 3 -5 2 -11 -2 -13 -9 -6 -7 -132 2 -147 3 -5 2 -11 -2 -13 -9 -6
-7 -132 2 -147 3 -5 2 -11 -2 -13 -9 -6 -7 -136 2 -145 2 -3 1 -10 -4 -16 -5
-6 -6 -27 -2 -46 l7 -35 207 -1 207 0 1 40 c0 23 1 260 1 527 l1 486 196 -1
196 -1 5 -525 5 -525 203 0 c172 0 205 2 211 15 4 8 7 317 6 685 l-1 670 -621
2 c-341 1 -623 0 -626 -3z"/>
<path d="M4301 3075 c2 -19 0 -37 -3 -40 -4 -4 -3 -17 2 -30 5 -13 7 -25 5
-27 -4 -4 -6 -146 -3 -314 0 -56 -1 -105 -4 -110 -3 -5 -2 -18 2 -29 4 -11 4
-34 0 -52 -4 -18 -5 -34 -2 -37 5 -6 4 -73 -3 -189 -5 -78 -30 -159 -56 -183
-17 -15 -35 -19 -94 -18 l-73 1 0 -157 -1 -158 42 -8 c115 -22 249 -22 320 1
67 21 135 77 173 140 29 51 62 141 68 187 3 18 5 33 6 33 3 0 9 39 16 100 4
33 8 182 8 330 l2 270 151 1 151 1 0 -491 c1 -270 1 -507 1 -527 l1 -35 208 0
207 1 3 687 2 686 -566 1 -565 1 2 -35z"/>
<path d="M5682 3075 c2 -19 0 -35 -5 -35 -4 0 -5 -4 -2 -10 6 -9 9 -83 5 -105
-4 -23 -1 -105 4 -114 4 -5 2 -12 -3 -16 -6 -3 -7 -16 -3 -28 6 -20 7 -56 2
-82 -4 -20 -1 -96 5 -104 3 -6 1 -12 -5 -16 -6 -4 -8 -10 -5 -16 6 -8 9 -83 5
-104 -4 -23 -1 -105 4 -114 4 -5 2 -12 -3 -16 -6 -3 -7 -16 -3 -28 6 -20 7
-53 2 -82 -2 -11 0 -443 2 -460 2 -14 383 -14 397 0 9 10 158 260 190 320 9
16 19 32 22 35 3 3 16 25 30 50 13 25 26 47 29 50 7 7 29 43 37 60 7 16 143
242 149 249 2 2 2 -29 -1 -70 -15 -255 -18 -336 -14 -499 0 -8 -1 -37 -4 -63
-2 -26 0 -50 4 -53 4 -2 4 -17 -1 -32 -16 -57 -10 -59 202 -57 106 2 195 3
198 4 3 0 5 308 5 684 l0 682 -198 2 -197 2 -23 -37 c-13 -20 -34 -57 -48 -82
-13 -25 -26 -47 -29 -50 -5 -4 -89 -145 -141 -237 -10 -17 -29 -50 -43 -72
-15 -22 -26 -45 -26 -51 0 -5 -4 -10 -10 -10 -5 0 -10 -4 -10 -9 0 -5 -20 -42
-45 -83 -25 -40 -49 -82 -54 -93 -5 -12 -16 -27 -25 -34 -14 -12 -15 -9 -11
25 3 22 7 73 9 116 2 42 6 81 10 86 3 6 2 13 -3 17 -6 3 -7 15 -2 28 4 12 7
126 7 252 l-1 230 -204 3 -203 2 4 -35z"/>
<path d="M7178 3097 c-2 -7 -4 -316 -4 -687 l1 -675 470 -1 c259 -1 473 -2
476 -3 3 0 5 -64 4 -141 0 -77 2 -148 6 -157 6 -17 23 -18 203 -15 l196 3 0
313 c0 242 -3 315 -12 318 -7 3 -32 4 -55 3 -40 -1 -43 1 -44 24 0 14 0 252
-1 528 l0 501 -211 -1 -212 -2 -1 -515 c-1 -283 -2 -520 -3 -525 -1 -7 -71
-10 -193 -9 -106 1 -195 2 -198 3 -3 0 -5 236 -5 523 l0 523 -207 2 c-154 2
-207 -1 -210 -10z"/>
<path d="M8704 2423 l1 -688 345 1 c427 0 474 6 591 64 73 37 139 102 172 170
33 68 41 112 39 221 -2 186 -96 327 -259 392 -85 34 -110 37 -293 43 -85 3
-160 7 -166 8 -7 3 -10 83 -10 239 l1 236 -211 1 -212 1 2 -688z m692 -132
c38 -14 64 -58 64 -108 -1 -92 -51 -124 -203 -128 -56 -2 -109 -1 -117 1 -13
3 -16 24 -14 127 1 67 2 124 3 126 2 8 238 -8 267 -18z"/>
<path d="M10039 3107 c0 -3 0 -1280 0 -1332 l1 -41 204 1 c112 0 207 3 211 6
4 5 8 939 5 1320 l0 47 -210 1 c-115 0 -210 0 -211 -2z"/>
</g>
</svg>
