<svg width="25" height="33" viewBox="0 0 25 33" fill="none" xmlns="http://www.w3.org/2000/svg">
<path fill-rule="evenodd" clip-rule="evenodd" d="M11.6004 2.9C12.5004 2.9 13.0004 2.9 13.9004 3.1C14.2004 3.2 14.4004 3.3 14.6004 3.3C15.2004 3.5 16.0004 3.9 16.6004 4.3C17.0004 4.7 17.4004 5 17.7004 5.3L18.2004 5.8C18.3004 5.9 18.3004 6 18.4004 6.1C19.6004 7.7 20.1004 9.2 20.1004 11.3C20.1004 13 19.4004 14.7 18.4004 16C18.3004 16.1 18.3004 16.1 18.2004 16.2L17.9004 16.6C17.3004 17.1 16.9004 17.5 16.2004 18C15.2004 18.6 14.1004 19.1 12.9004 19.2C11.0004 19.3 10.0004 19 8.50039 18.4C8.10039 18.2 7.50039 17.8 7.10039 17.5C7.00039 17.4 7.00039 17.4 6.90039 17.3L6.40039 17C6.20039 16.8 5.70039 16.3 5.50039 16C5.30039 15.7 5.10039 15.4 4.90039 15.1C4.50039 14.5 4.20039 13.7 4.00039 12.9C3.40039 10.4 4.00039 7.9 5.60039 5.9C6.50039 4.8 7.70039 3.9 9.10039 3.4C9.80039 3.2 10.7004 2.9 11.6004 2.9ZM10.2004 1.3C9.00039 1.3 9.10039 1.1 8.00039 0.9C7.30039 0.8 6.70039 0.9 6.30039 1.2C5.20039 1.9 5.30039 2.1 5.00039 3.2C4.80039 4 4.20039 4.9 3.70039 5.4C3.70039 5.5 3.60039 5.5 3.60039 5.6C3.50039 5.7 3.50039 5.7 3.50039 5.7C3.10039 6 3.10039 6.1 2.70039 6.3C2.20039 6.6 1.70039 6.7 1.40039 7.2C1.10039 7.7 0.900391 8.4 0.900391 9.1C0.900391 10.4 2.80039 11.1 2.00039 14C1.80039 14.8 1.60039 15.2 1.90039 16C2.00039 16.2 2.10039 16.5 2.20039 16.7C2.40039 17 2.50039 17.3 2.80039 17.5C3.80039 18.4 4.40039 17.7 5.90039 18.8C6.10039 19 6.40039 19.3 6.60039 19.5C7.20039 20.3 7.10039 21 8.00039 21.5C8.50039 21.8 9.60039 22.2 10.3004 22.2C10.9004 22.2 11.0004 22.2 11.5004 21.8C12.0004 21.4 12.2004 21.1 13.0004 20.9C15.6004 20.2 15.6004 22.1 17.8004 20.8C18.9004 20.2 19.0004 19.6 19.3004 18.6C19.6004 17.3 20.2004 16.6 21.3004 16C21.5004 15.9 21.7004 15.8 21.9004 15.7C22.3004 15.4 22.6004 15.2 22.8004 14.7C23.1004 14.1 23.2004 13.6 23.2004 12.9C23.2004 12.2 22.7004 11.7 22.4004 11.2C21.4004 9.3 22.2004 7.9 22.2004 6.6C22.2004 6.1 22.0004 5.5 21.8004 5.2C20.9004 3.8 19.6004 4.4 18.0004 3.1C17.4004 2.6 17.2004 2.2 16.8004 1.6C16.5004 1.1 16.3004 0.7 15.7004 0.4C15.0004 0.1 14.5004 0 13.9004 0C13.3004 0 12.6004 0.5 12.2004 0.7C11.7004 1 10.9004 1.3 10.2004 1.3Z" fill="#148F0B"/>
<path fill-rule="evenodd" clip-rule="evenodd" d="M11.0008 14.8004L7.70078 11.5004L9.00078 10.1004L11.0008 12.0004L15.7008 7.30036L17.0008 8.70036L11.0008 14.8004ZM11.6008 18.1004C12.4008 18.1004 12.9008 18.1004 13.8008 17.9004C14.8008 17.6004 15.3008 17.4004 16.1008 16.8004L16.6008 16.4004C17.4008 15.7004 18.0008 15.0004 18.4008 14.0004C19.6008 11.3004 19.0008 8.10036 17.0008 6.10036C16.8008 5.90036 16.7008 5.80036 16.6008 5.70036C16.4008 5.50036 15.8008 5.10036 15.6008 5.00036C15.3008 4.80036 14.8008 4.60036 14.4008 4.40036C12.7008 3.80036 10.6008 3.90036 9.00078 4.70036C7.30078 5.40036 6.30078 6.50036 5.50078 8.10036C5.20078 8.70036 5.00078 9.50036 4.90078 10.1004C4.90078 10.4004 4.90078 10.6004 4.80078 10.9004C4.80078 11.0004 4.80078 11.6004 4.80078 11.7004C5.00078 13.0004 5.30078 14.1004 6.10078 15.2004L6.40078 15.6004C7.10078 16.4004 8.00078 17.1004 9.00078 17.5004C9.80078 17.8004 10.9008 18.1004 11.6008 18.1004Z" fill="#148F0B"/>
<path fill-rule="evenodd" clip-rule="evenodd" d="M13.8008 24.7998C13.8008 24.9998 14.4008 26.1998 14.5008 26.4998L15.7008 29.1998C15.9008 29.6998 17.5008 33.3998 17.6008 33.5998H17.7008C17.7008 33.4998 17.8008 33.2998 17.8008 33.1998C17.8008 33.0998 17.9008 32.9998 17.9008 32.7998C18.0008 32.4998 18.0008 32.2998 18.1008 32.0998C18.2008 31.5998 18.4008 31.0998 18.5008 30.6998L19.4008 27.7998L20.4008 28.2998C20.5008 28.3998 20.6008 28.3998 20.7008 28.4998L23.4008 29.7998C23.6008 29.8998 24.6008 30.3998 24.8008 30.3998C24.7008 30.0998 21.7008 23.2998 21.4008 22.3998C21.3008 22.1998 21.2008 21.9998 21.2008 21.7998L19.4008 22.9998C18.6008 23.4998 17.8008 23.7998 17.0008 24.0998C16.7008 24.1998 16.4008 24.2998 16.0008 24.3998C15.7008 24.4998 15.3008 24.5998 14.9008 24.5998C14.7008 24.5998 14.5008 24.6998 14.4008 24.6998C14.2008 24.7998 14.0008 24.7998 13.8008 24.7998Z" fill="#148F0B"/>
<path fill-rule="evenodd" clip-rule="evenodd" d="M0 30.4004C0.1 30.4004 1.5 29.7004 1.7 29.6004C1.8 29.5004 1.9 29.5004 2 29.4004C2.1 29.3004 2.2 29.3004 2.3 29.2004C2.4 29.1004 2.5 29.1004 2.6 29.0004C2.8 29.1004 2.9 29.0004 3 29.0004C3.1 28.9004 3.2 28.9004 3.3 28.8004L5.1 28.0004C5.2 27.9004 5.3 27.9004 5.5 27.9004C5.5 28.1004 5.8 29.1004 5.9 29.3004L7.1 33.3004C7.1 33.4004 7.2 33.5004 7.2 33.7004C7.3 33.6004 7.3 33.6004 7.3 33.5004L10.8 25.5004C11.1 24.9004 11.1 25.4004 8.4 24.7004C8.2 24.7004 8 24.6004 7.9 24.5004L7.4 24.3004C6.5 24.0004 5.4 23.4004 4.6 22.9004C4.5 22.8004 4.5 22.8004 4.4 22.8004L3.8 22.4004C3.7 22.6004 3.7 22.7004 3.6 22.9004L2.4 25.5004C2.3 25.7004 2.3 25.8004 2.2 26.0004C2.1 26.2004 2 26.3004 2 26.5004C1.9 26.7004 1.9 26.8004 1.8 27.0004L0 30.4004Z" fill="#148F0B"/>
</svg>
