<svg width="25" height="23" viewBox="0 0 25 23" fill="none" xmlns="http://www.w3.org/2000/svg">
<path d="M23.8977 11.764C24.4165 11.1814 24.7037 10.4677 24.7037 9.7251C24.7037 8.5469 23.9286 7.43168 22.6811 6.80978C22.3599 6.6497 21.9943 6.56545 21.6219 6.56575H14.217L14.4023 3.3408C14.4455 2.56146 14.1213 1.82148 13.4913 1.25731C13.1822 0.979234 12.8092 0.757988 12.3954 0.607242C11.9817 0.456497 11.536 0.379455 11.0858 0.380879C9.48005 0.380879 8.05958 1.29929 7.63345 2.61394L4.98088 10.7747H0.988148C0.441579 10.7747 0 11.15 0 11.6144V21.1659C0 21.6304 0.441579 22.0056 0.988148 22.0056H19.5561C19.8402 22.0056 20.1181 21.9584 20.3744 21.8639C21.8443 21.3312 22.7923 20.1111 22.7923 18.7571C22.7923 18.4264 22.7367 18.101 22.6255 17.7862C23.1443 17.2036 23.4315 16.4899 23.4315 15.7473C23.4315 15.4166 23.3759 15.0913 23.2647 14.7764C23.7835 14.1938 24.0707 13.4801 24.0707 12.7375C24.0645 12.4069 24.0089 12.0789 23.8977 11.764ZM2.22333 20.1163V12.664H4.72458V20.1163H2.22333ZM21.8751 10.8534L21.1989 11.352L21.6281 12.0185C21.7695 12.2381 21.8428 12.4846 21.8412 12.7349C21.8412 13.1678 21.6188 13.5798 21.2359 13.8632L20.5597 14.3618L20.9889 15.0283C21.1303 15.2478 21.2036 15.4944 21.202 15.7446C21.202 16.1776 20.9796 16.5896 20.5967 16.873L19.9205 17.3716L20.3497 18.0381C20.4911 18.2576 20.5644 18.5041 20.5627 18.7544C20.5627 19.3422 20.1551 19.8723 19.5252 20.1137H6.70088V12.5801L9.7734 3.12038C9.85263 2.87792 10.0227 2.66401 10.2579 2.51107C10.493 2.35812 10.7804 2.27448 11.0765 2.27281C11.3112 2.27281 11.5428 2.33054 11.7281 2.44862C12.0338 2.6428 12.1975 2.9367 12.1789 3.24896L11.8825 8.45506H21.591C22.1407 8.74108 22.4804 9.2239 22.4804 9.7251C22.4804 10.1581 22.258 10.5674 21.8751 10.8534Z" fill="white"/>
</svg>
