<svg width="131" height="97" viewBox="0 0 131 97" fill="none" xmlns="http://www.w3.org/2000/svg">
<g clip-path="url(#clip0_2_302)">
<path fill-rule="evenodd" clip-rule="evenodd" d="M20.6515 70.0677H49.0151V69.6956V53.847H23.1029C21.5149 58.8333 20.6524 64.1861 20.6524 69.7603V69.7668V69.7734C20.6515 69.8718 20.6515 69.9693 20.6515 70.0677ZM65.5106 17.334C92.155 17.334 113.76 40.7957 113.76 69.7406C113.76 69.8456 113.754 69.9562 113.754 70.0677H112.192C112.192 69.9628 112.192 69.8587 112.192 69.7471C112.192 41.7435 91.2925 19.0467 65.5106 19.0467C39.7287 19.0467 18.8216 41.7435 18.8216 69.7471C18.8216 69.8587 18.8281 69.9628 18.8281 70.0677H17.2663C17.2663 69.9562 17.2598 69.8456 17.2598 69.7406C17.2598 40.7957 38.8587 17.334 65.5106 17.334ZM72.9737 64.983H74.7511V63.199H72.9737V64.983ZM70.0001 63.199V63.7934H71.1897V64.983H71.784V63.7934H72.3784V63.199H70.0001V62.6112H69.4057V63.199H70.0001ZM68.8104 65.5783H70.5944V64.3886H69.4048V63.7943H68.8104V65.5783ZM74.7511 60.8263H75.3454V59.6367H74.7511V60.8263ZM55.7461 54.8866H56.3413V54.2922H55.747V54.8866H55.7461ZM53.3677 47.7563H57.5244V43.5996H53.3677V47.7563ZM53.9621 47.161H56.9291V44.194H53.9621V47.161ZM53.3677 67.9566H57.5244V63.7934H53.3677V67.9566ZM53.9621 67.3623H56.9291V64.3886H53.9621V67.3623ZM77.7247 43.6324H73.568V47.7563H77.7247V43.6324ZM74.1567 47.161H77.1304V44.194H74.1567V47.161ZM71.784 47.7563H72.3784V46.5667H71.784V47.7563ZM74.7511 46.5667H76.5351V44.7893H74.7511V46.5667ZM54.5574 46.5667H56.3413V44.7893H54.5574V46.5667ZM54.5574 66.767H56.3413V64.983H54.5574V66.767ZM66.4377 59.0423H64.6538V58.448H65.8434V57.8536H64.6538V57.2659H64.0594V56.6715H62.8698V57.2659H63.4641V57.8536H64.6538V58.448H59.3075V57.8536H58.7131V59.0433H56.3413V58.4489H57.5244V57.8546H56.9301V57.2668H58.1197V56.0772V55.4828H57.5253V54.8885H56.931V55.4828H56.3413V56.0772H56.9291V56.6715H57.5235V56.0772H58.1178H58.7122V54.8875V54.2932H58.1178V54.8875H58.7122H59.3065V55.4819H59.9009V56.6715H60.4952V57.2659H61.0896V57.8536H62.2792V57.2659H61.6848V56.6715H62.2792V56.0772H61.6848V56.6715H61.0905V54.8875H60.4961V55.4819H59.9018V54.2922H59.3075V53.6979H58.7131V53.1035H59.3075V51.9205H60.4971V51.3261H61.0914V50.7318H61.6858V50.1374H61.0914V50.7318H60.4971V50.1374H59.9027V49.5431H59.3084V48.9487H59.9027V48.3544H60.4971V49.544H62.8698V50.1384H62.282V50.7327H61.6877V51.3271H61.0933V52.5101H59.9037V53.1045H60.498V54.2941H61.0924V54.8885H61.6867V54.2941H62.2811V53.6998H62.8688V53.1054H63.4632V51.9224H61.6858V51.328H62.8688V50.1384H63.4632V50.7327H64.0575V50.1384H64.6519V49.544H65.2462V48.9497H65.8406V47.1657H65.2462V48.3553H62.867V47.761H63.4613V47.1666H62.867V47.761H62.2792V47.1666H61.6848V46.5723H62.2792V45.9845H61.6848V45.3902H62.8679V45.9845H63.4623V46.5723H65.2462V45.9845H65.8406V46.5723H67.0302V47.1666H66.4359V47.761H67.0302V48.3553H68.8076V47.761H69.402V46.5714H70.5916V47.1657H69.9973V48.3553H70.5916V48.9497H68.2123V50.1393H67.6246V48.9497H67.0302V50.1393H67.6246V50.7337H67.0302V51.328H68.2133V50.1384H68.8076H69.402V49.544H68.8076V50.1384V50.7327H69.402V51.3271H69.9963V50.7327H71.1859V51.3271H71.7803V50.7327H72.3746V51.3271H72.969V50.7327H73.5633V51.9224H72.969V53.1054H72.3746V51.9224L71.7803 51.9486V53.1054H72.3746V53.6998H70.5907V54.2941V54.8885H69.9963V55.4828H71.1859V56.0772H71.7803V54.8875H71.1859V54.2932H70.5916H69.9973V53.1035H70.5916V52.5092H69.9973V51.9467L68.8076 51.9139V53.1035H67.6246V52.5092H68.2123V51.9214H67.0293V53.1045H66.4349V53.6988H65.8406V52.5073H66.4349V51.9195H65.8406V51.3252H65.2462V50.7309H64.6519V51.3252H64.0575V52.5083H65.2472V53.6979H63.4632V54.2922H62.8688V55.4819H63.4632V54.8875H65.2472V54.2932H66.4368V53.6988H67.0312V53.1045H67.6255V54.2941H67.0312V55.4837H68.2142V56.6734H68.8086V54.8894H69.4029V57.2687H68.8086V58.4517H68.2142V57.8574H67.6264V56.08H66.4377V54.8903H65.8434V55.4847H65.249V56.079H64.6547V55.4847H64.0604V56.079H64.6547V56.6734H65.249V56.079H66.4387V56.6734H65.8443V57.2677H66.4387V57.8555H67.033V58.4499H66.4387V59.0423H66.4377ZM71.784 50.7299H71.1897V50.1356H70.5954V49.5412H72.3793V48.9469H73.569V48.3525H72.9746V45.3855H72.3803V44.1958H71.1906V44.7902H71.785V45.9798H71.1906V45.3855H70.5963V44.1958H70.0019V44.7902H69.4076V45.3845H70.5972V45.9789H68.8132V47.7563H68.2189V46.5667H67.0358V45.3836H67.6302V45.9779H68.218V45.3836H67.6302V44.7893H68.218V44.1949H67.6302V44.7893H67.0358V45.3836H66.4415V44.7893H65.8471V45.3836H65.2528V45.9779H63.4688V45.3836H64.6584V44.7893H65.2528V44.1949H64.6584V43.6324H64.0641V44.1949H63.4698H62.8754V44.7893H63.4698V44.1949V43.6324H60.5027V44.1949H59.9084V44.7893H59.314V44.1949H58.7197V43.6324L58.1253 43.5931V45.3836H58.7197V45.9779H58.1253V46.5657H58.7197V47.1601H58.1253V47.7544H58.7197V47.1601H59.314V48.3497L55.1573 48.3825V49.5393H54.563V48.945H53.9686V48.3825L53.3743 48.3497V48.9441H53.9686V49.5384H53.3743V50.1328H55.1583V50.7271H54.5639V51.9167H55.1583V50.7271H56.3413V51.3214H55.747V51.9158H56.3413V51.3214H57.5244V50.7271H59.3084V51.9167H58.1188V53.6941H57.5244H56.9301V54.2885H57.5244V53.6941V53.0998H56.9301V52.5055H57.5244V51.9177H56.9301V52.5055H55.747V53.0998H56.3413V53.6941H55.1517V53.0998H54.5574V52.5055H53.963V50.728H53.3687V52.5055H53.963V53.0998H53.3687V54.2894H53.963V55.4791H53.3687V56.0734H53.963V56.6678H53.3687V57.2621H53.963V56.6678H54.5574V56.0734H55.1517H55.7461V55.4791H55.1517V56.0734V58.4461H54.5574V59.0405H53.963V60.8244H54.5574V62.0141H55.1517V62.6084H55.7461V63.1962H56.3413V62.6084H56.9291V63.1962H58.1188V66.1698H59.3084V66.7642H58.714V67.3585H58.1197V67.9528H61.0933V67.3585H61.6877V67.9528H62.282V67.3585H61.6877V66.7642H62.282V65.5745H62.8698V66.7642H63.4641V67.3585H64.0585V67.9528H65.2481V67.3585H64.0585V66.7642H65.8425V66.1698H64.6528V65.5755H64.0585H63.4641V66.1698H64.0585V65.5755V64.9811H64.6528V64.3868H64.0585V64.9811H63.4641V63.7915H64.0585V62.6084H62.8688V62.0141H64.0585V61.4197H64.6528V60.8254H64.0585V61.4197H63.4641V60.232H62.8698V59.6376H62.282V59.0433H63.4651V59.6376H64.0594V59.0433H64.6538V59.6376H65.2481V62.0169H66.4377V61.4225H65.8434V59.6386H66.4377V59.0442H67.6274V58.4499H68.2152V59.0442H68.8095V58.4499H69.4039V59.6395H69.9982V57.8555H69.4039V57.2677H69.9982V56.0781H70.5925V56.6724H72.3765V54.8885H74.7492V55.4828H72.9718V56.6724H73.5661V57.2668H72.9718V57.8546H71.7822V57.2668H70.5925V57.8546H71.1869V58.4489H70.5925V59.6386H71.1869V59.0442H71.7812H72.3756V58.4499H71.7812V59.0442V62.0178H73.5652V62.6122H70.5916V62.0178H71.1859V61.4235H70.0001V62.0178H67.6274V61.4235H68.8104V60.232H68.2161V59.6376H67.033V60.232H68.2161V60.8263H67.033V62.0159H67.6274V62.6103H68.8104V63.1981H68.2161V66.1717H68.8104V67.3613H69.4048V67.9557H69.9991V67.3613H69.4048V66.767H69.9991V66.1726H71.7831V65.5783H72.3775V66.1726H72.9718V66.767H73.5661V67.3613H74.1539V66.767H74.7483V67.9566H75.3426V67.3623H76.5323V66.1726H77.1266V67.3623H77.721V66.1726H77.1266V65.5783H77.721V64.9839H76.5313V65.5783H75.937H74.7473V66.1726H75.3417V66.767H75.936V65.5773V64.3877V63.7934H75.3417V64.3877H75.936H77.1257V63.7934H76.5313V62.0159H77.721V61.4216H76.5313V60.8272H77.1257V60.2329H77.72V58.4489H77.1257V57.2659H76.5313V56.6715H75.3417V56.0772H74.7473V55.4828H75.3417V54.2932H75.936V56.0772H76.5304V54.2932H77.1247V55.4828H77.7191V54.2932H77.1247V53.6988H76.5304V54.2932H75.936V53.6988H74.7464V54.2932H73.5633V52.5073H74.1511V53.1017H74.7455V52.5073H75.3398V53.1017H76.5294V52.5073H75.9351V51.3243H74.1511V49.5403H75.3408V48.3835L74.7464 48.3506V48.945H74.1521V49.5393H73.5643V50.1337H71.7803V50.7299H71.784ZM73.568 56.6706V56.0762H74.7511V56.6706H73.568ZM74.7511 56.6706H75.3454V57.8536H74.7511V58.448H74.1567V57.2649H74.7511V56.6706ZM56.3413 58.448H55.747V56.6706H56.3413V58.448ZM55.7461 58.448V59.0423H55.1517V58.448H55.7461ZM58.7131 45.3836V44.7893H59.3075V45.3836H58.7131ZM71.1897 67.9566H72.9737V67.3623H71.1897V67.9566ZM77.7247 48.3835H75.9407V48.9459H77.7247V48.3835ZM68.8104 67.3623H67.6274V66.7679H67.033V66.1736H67.6274V63.1999H66.4377V63.7943H65.8434V64.3886H65.249V64.983H65.8434V65.5773H66.4377V67.3613H67.6274V67.9557H68.8104V67.3623ZM62.282 59.6376V60.232H61.0924V59.6376H62.282ZM62.282 60.232H62.8698V60.8263H62.282V60.232ZM62.282 60.8263V61.4207H61.0924V60.8263H62.282ZM61.0924 61.4216V62.0159H62.282V62.6103H61.6877V63.1981H61.0933V63.7924H60.499V64.3868H59.9046V63.7924H59.3103V64.3868H59.9046V65.5764H58.7131V63.1971H58.1188V62.6093H56.9291V62.015H58.7131V61.4207H58.1188V60.8263H59.9027V59.6367H60.4971V61.4207H59.9027V62.015H60.4971V61.4207H61.0924V61.4216ZM56.9291 62.0159H55.7461V61.4216H55.1517V60.232H54.5574V59.6376H55.747V60.232H56.3413V59.6376H58.714V60.232H56.9301V60.8263H57.5244V61.4207H56.9301V62.0159H56.9291ZM56.3413 59.6376H55.747V59.0433H56.3413V59.6376ZM61.6867 63.199H63.4641V63.7934H62.8698V64.983H62.282V65.5773H61.6877V66.1717H61.0933V67.3613H60.499V66.767H59.9046V66.1726H60.499V65.5783H61.0933V64.3886H61.6877V63.199H61.6867ZM59.9027 66.767V67.3613H59.3084V66.767H59.9027ZM70.5944 48.3506V47.161H71.1888V48.3506H70.5944ZM59.9027 44.7893H60.4971V47.7563H59.9027V46.5667H59.3084V45.9789H59.9027V44.7893ZM60.498 44.7893V44.1949H61.0924V44.7893H60.498ZM61.0924 44.7893H61.6867V45.3836H61.0924V44.7893ZM72.3784 48.9459H71.1888V48.3516H72.3784V48.9459ZM76.5351 61.4216V62.0159H75.9407V61.4216H76.5351ZM57.5244 50.7299H56.3413V50.1356H57.5244H58.1188V49.5412H58.7131V48.9469H58.1188V49.5412H57.5244V48.9469H56.9301V49.5412H57.5244V50.1356V50.7299ZM56.3413 50.1346H55.1517V49.5403H55.7461V48.9459H56.3413V50.1346ZM62.282 62.0159V61.4216H62.8698V62.0159H62.282ZM70.5944 46.5667V45.9789H71.1888V46.5667H70.5944ZM77.1304 63.199H77.7247V62.6112H77.1304V63.199ZM53.9621 56.0753V55.4809H54.5564V56.0753H53.9621ZM68.8104 53.1017H69.4048V54.2913H68.2152V53.697H68.8095V53.1017H68.8104ZM69.4048 53.1017V52.5073H69.9991V53.1017H69.4048ZM72.9737 60.232H73.568V59.6376H72.9737V57.8536H73.568V59.0433H74.1558V61.4225H74.7502V62.0169V62.6112H75.3445V62.0169H74.7502H73.5671V61.4225H72.9727V60.232H72.9737ZM72.9737 59.6376V60.232H72.3793V59.6376H72.9737ZM76.5351 57.2649V58.448H75.9407V57.2649H76.5351ZM75.9407 58.448V59.0423H75.3464V58.448H75.9407ZM75.9407 59.0423H76.5351V58.448H77.1294V60.232H76.5351V59.6376H75.9407V59.0423ZM76.5351 60.232V60.8263H75.9407V60.232H76.5351ZM65.249 63.199H65.8434V62.6112H65.249V63.199ZM60.498 50.7299V51.3243H59.9037V50.7299H60.498ZM65.8434 45.3836H66.4377V45.9779H65.8434V45.3836ZM61.6867 45.9789V46.5667H61.0924V45.9789H61.6867ZM61.6867 47.161V47.7554H62.2811V48.3497H62.8688V48.9441H61.6858V48.3497H61.0914V47.1601H61.6867V47.161ZM59.3084 63.199H59.9027V62.6112H59.3084V63.199ZM53.9621 54.2913V53.1017H54.5564V53.696H55.1508V54.8857H54.5564V54.2913H53.9621ZM65.8434 64.3886H66.4377V63.7943H67.0321V64.9839H65.8425V64.3886H65.8434ZM66.4377 57.2649V56.6706H67.0321V57.2649H66.4377ZM74.1567 66.767H73.569V66.1726H72.9746V65.5783H74.1577V66.767H74.1567ZM73.568 64.3886H74.1558V63.7943H73.568V64.3886ZM67.033 47.7563V47.162H67.6274V47.7563H67.033ZM75.9407 50.1346H76.5351V51.9186H77.1294V52.5064H77.7238V50.1337H76.5341V49.5393H75.9398V50.1346H75.3454V50.729H75.9398V50.1346H75.9407ZM64.0594 47.7563H64.6538V47.162H64.0594V47.7563ZM64.6538 49.5403H64.0594V50.1346H63.4651V48.945H64.6547V49.5403H64.6538ZM66.4377 43.6324H65.8434V44.1949H66.4377V43.6324ZM69.4048 43.6324H68.8104V44.1949H69.4048V43.6324ZM64.0594 44.194H64.6538V44.7883H64.0594V44.194ZM49.0151 51.4939V24.438C37.6175 29.339 28.5074 39.1617 23.9063 51.4939H49.0151ZM52.0478 70.0677H78.9734V69.6956V41.3582H52.0478V70.0677ZM78.9725 39.0052V30.254H52.0478V39.0052H78.9725ZM78.9725 27.9019V23.2746C74.7183 21.8235 70.2016 21.0397 65.5097 21.0397C60.8177 21.0397 56.2945 21.8244 52.0469 23.2746V27.9019H78.9725ZM82.0051 70.0677H110.369C110.369 69.9628 110.369 69.8653 110.369 69.7603C110.369 64.1852 109.506 58.8333 107.918 53.847H82.0051V70.0677ZM107.107 51.4939C102.513 39.1617 93.4027 29.339 82.0051 24.438V51.4939H107.107Z" fill="url(#paint0_linear_2_302)"/>
<path d="M10.4822 79.1513H15.2201V75.1455H0.457031V79.1513H5.20149V92.3197H10.4822V79.1513ZM17.4812 75.1455V92.3206H30.9243V88.3149H22.7553V85.6225H29.4019V81.6102H22.7553V79.1531H30.6112V75.1474H17.4812V75.1455ZM33.493 75.1455V92.3206H38.7736V79.1513H43.76V92.3197H49.0407V75.1455H33.493ZM53.7589 75.1455V83.9941C53.7589 84.7975 53.7326 85.4716 53.6867 86.0134C53.6342 86.5562 53.5695 86.9874 53.4776 87.3137C53.3858 87.6474 53.2751 87.8949 53.1373 88.0655C53.007 88.2286 52.8495 88.3468 52.6799 88.3992C52.5036 88.4583 52.3142 88.4846 52.0986 88.4846C51.9027 88.4846 51.733 88.478 51.5887 88.4649C51.4518 88.4517 51.3205 88.4321 51.2099 88.4124C51.1049 88.3861 51.0009 88.3533 50.8959 88.3139V92.3197C51.2418 92.4116 51.5624 92.4762 51.8568 92.5353C52.1577 92.5878 52.4577 92.6206 52.7586 92.6469C53.0661 92.6665 53.3923 92.6797 53.7589 92.6797C54.3598 92.6862 54.9222 92.6075 55.4388 92.4444C55.9619 92.2878 56.4259 92.0197 56.8375 91.6344C57.2556 91.2557 57.609 90.7326 57.9024 90.0726C58.1968 89.4192 58.419 88.5896 58.5755 87.6024C58.7321 86.6087 58.8108 85.4266 58.8108 84.0476V79.1522H62.5944V92.3206H67.8685V75.1455H53.7589ZM81.5994 75.1455L75.7891 85.001L76.0572 80.609V75.1455H70.9987V92.3206H75.9456L81.756 82.4717L81.4879 86.8571V92.3206H86.5464V75.1455H81.5994ZM94.9506 75.1455H89.6765V92.3206H101.571V96.2814H106.629V88.3149H105.218V75.1455H99.9435V88.3139H94.9506V75.1455ZM114.053 85.1444H115.373C115.791 85.1378 116.183 85.151 116.536 85.1838C116.889 85.21 117.196 85.2756 117.458 85.3731C117.72 85.4781 117.922 85.6413 118.065 85.8569C118.202 86.0725 118.281 86.3668 118.281 86.739C118.275 87.1637 118.176 87.4909 117.98 87.7196C117.778 87.9483 117.51 88.1049 117.164 88.1902C116.823 88.2821 116.438 88.3205 116 88.3139H114.053V85.1444ZM114.053 75.1455H108.772V92.3206H116.491C117.896 92.3206 119.092 92.1181 120.085 91.7197C121.092 91.3147 121.856 90.7063 122.392 89.8898C122.928 89.0798 123.195 88.0599 123.202 86.8374C123.195 85.8962 123.045 85.0732 122.731 84.3607C122.43 83.6548 121.986 83.0604 121.405 82.5833C120.823 82.0995 120.131 81.7405 119.313 81.4986C118.497 81.2568 117.582 81.133 116.555 81.133H114.052V75.1455H114.053ZM130.764 75.1455H125.484V92.3206H130.764V75.1455Z" fill="#DE1F25"/>
<path d="M0 64.1858L4.24761 64.9376C4.84196 65.0361 5.38474 65.0492 5.87503 64.9704C6.36532 64.8851 6.80311 64.7351 7.18184 64.5195C7.56714 64.3039 7.89431 64.0424 8.17555 63.7283C8.45022 63.4143 8.67896 63.0815 8.84208 62.7149C9.01832 62.3559 9.12988 61.9893 9.19456 61.6237C9.27331 61.1991 9.33143 60.826 9.37736 60.5128C9.4233 60.2054 9.45611 59.9316 9.48236 59.7029C9.50205 59.4807 9.51517 59.2782 9.52173 59.1085C9.52829 58.9323 9.52829 58.7748 9.52173 58.6314C9.51517 58.4814 9.50205 58.337 9.48892 58.187L15.0377 59.1676L15.7502 55.1093L2.02584 52.6917L1.31337 56.7499L6.18908 57.6058C6.22845 57.8017 6.24158 58.0698 6.23501 58.397C6.22189 58.7242 6.18252 59.0898 6.11783 59.4882C6.03252 59.9851 5.8366 60.3375 5.53005 60.5597C5.22913 60.7819 4.80446 60.8475 4.26261 60.7556L0.712466 60.1276L0 64.1858ZM3.26797 47.3247L16.097 52.7685L20.1947 43.1155L17.2014 41.8481L14.7115 47.71L12.6988 46.8541L14.7246 42.0834L11.7313 40.816L9.70547 45.5801L7.869 44.802L10.2614 39.1689L7.26809 37.8949L3.26797 47.3247ZM14.5606 31.882L15.214 30.908C15.3377 30.7252 15.4821 30.5358 15.6518 30.3455C15.8214 30.1562 16.0108 29.9996 16.2208 29.8618C16.4298 29.7381 16.652 29.6659 16.8939 29.6593C17.1423 29.6527 17.3973 29.7315 17.6654 29.9077C17.9926 30.1365 18.2148 30.3718 18.3385 30.6202C18.4557 30.8752 18.4885 31.1302 18.4369 31.3983C18.3844 31.6598 18.2673 31.9279 18.0844 32.1961L17.1301 33.6144L14.5606 31.882ZM19.8281 35.4303L20.9849 33.7054C21.6515 32.7051 22.0368 31.777 22.1418 30.9211C22.2402 30.0587 22.0958 29.2674 21.6974 28.555C21.2924 27.8425 20.6775 27.2022 19.8412 26.6463C19.0435 26.1035 18.2532 25.8035 17.4489 25.7314C16.6511 25.6657 15.8674 25.8551 15.109 26.3004C14.344 26.7382 13.6259 27.4572 12.9453 28.4575L9.56017 33.4766L21.1143 41.2669L23.4214 37.8555L19.8281 35.4303ZM19.3772 20.2229L28.8792 30.4111L36.5514 23.2612L34.3362 20.8819L29.6761 25.2279L28.1865 23.6268L31.9766 20.0916L29.7548 17.7124L25.9647 21.2475L24.6054 19.7898L29.0883 15.6134L26.8665 13.2341L19.3772 20.2229ZM32.1538 9.47869L38.2641 22.0003L41.9633 20.1966L37.2845 10.5961L40.7812 8.88997L45.4666 18.4905L49.1648 16.6868L43.0545 4.15863L32.1538 9.47869ZM55.3539 4.07426C55.7983 3.98895 56.2033 4.02833 56.5632 4.17926C56.9157 4.32925 57.2232 4.57111 57.4913 4.89172C57.7594 5.21889 57.975 5.59763 58.1513 6.02229C58.3275 6.45352 58.4653 6.90444 58.5563 7.37504C58.6678 7.94408 58.7194 8.4728 58.7259 8.96966C58.7259 9.46651 58.6669 9.91086 58.5431 10.3027C58.4128 10.688 58.216 11.0152 57.9422 11.2702C57.6741 11.5252 57.3216 11.6948 56.8838 11.7801C56.4986 11.8523 56.1517 11.8392 55.8451 11.7342C55.5377 11.6292 55.2639 11.4661 55.0286 11.2308C54.7933 10.9955 54.5908 10.7208 54.4212 10.4011C54.2449 10.0871 54.1005 9.74118 53.9834 9.38776C53.8662 9.02872 53.7743 8.66873 53.7087 8.31625C53.6431 7.97033 53.5915 7.61034 53.5718 7.24474C53.5521 6.88569 53.5653 6.52571 53.6178 6.17979C53.6637 5.83387 53.7546 5.51982 53.8859 5.22546C54.0162 4.9311 54.2065 4.68267 54.4483 4.48674C54.6874 4.28331 54.9883 4.14551 55.3539 4.07426ZM54.7333 0.720982C53.7724 0.910348 52.9297 1.25064 52.2106 1.73437C51.4785 2.22466 50.8973 2.83213 50.4463 3.56429C49.9954 4.29644 49.7011 5.12609 49.5576 6.05417C49.4208 6.98225 49.4526 7.98908 49.6561 9.06715C49.8848 10.2305 50.2439 11.2364 50.7276 12.0801C51.2047 12.9295 51.7925 13.6091 52.4853 14.1257C53.1781 14.6422 53.9496 14.9816 54.7989 15.1512C55.6483 15.3209 56.5632 15.3078 57.5373 15.125C58.2694 14.9816 58.9425 14.7463 59.55 14.4125C60.164 14.0788 60.6937 13.6607 61.1577 13.1516C61.6152 12.6482 61.9808 12.0604 62.2555 11.4005C62.5367 10.7339 62.6998 10.0018 62.7654 9.19839C62.8311 8.39499 62.772 7.51847 62.5958 6.59039C62.4523 5.85824 62.2367 5.17202 61.9292 4.51205C61.6283 3.85208 61.2496 3.25117 60.7921 2.71495C60.3412 2.17873 59.805 1.73437 59.204 1.38189C58.5966 1.02284 57.9235 0.780979 57.1782 0.656297C56.432 0.531616 55.6155 0.557864 54.7333 0.720982ZM70.7966 8.60967L72.0969 8.78591C72.4175 8.83185 72.7175 8.88435 72.9856 8.94903C73.2602 9.00809 73.489 9.09246 73.6784 9.20402C73.8677 9.31558 74.0055 9.46557 74.0899 9.65493C74.1752 9.8443 74.2015 10.0862 74.1621 10.3871C74.1096 10.7274 73.9924 10.9814 73.8162 11.1455C73.6399 11.302 73.4112 11.407 73.1365 11.4333C72.8618 11.4661 72.5553 11.4595 72.2215 11.407L70.4376 11.1586L70.7966 8.60967ZM71.4763 3.79302L72.9078 3.99551C73.1299 4.02176 73.3324 4.06114 73.5284 4.10707C73.7243 4.14645 73.894 4.21207 74.0449 4.303C74.1883 4.39487 74.2933 4.51861 74.3655 4.68173C74.4377 4.84485 74.4508 5.0539 74.4114 5.32201C74.3721 5.59013 74.2811 5.80574 74.1368 5.96886C73.9924 6.13198 73.8096 6.24353 73.5874 6.30259C73.3652 6.36165 73.1168 6.37478 72.8421 6.3354L71.15 6.09354L71.4763 3.79302ZM65.9087 13.8051L71.9731 14.6544C72.7831 14.7716 73.5284 14.8044 74.208 14.7463C74.8811 14.6938 75.4755 14.5372 75.992 14.2822C76.5085 14.0207 76.9332 13.6485 77.2594 13.1451C77.5866 12.6482 77.8022 12.0211 77.9128 11.2495C77.985 10.7461 77.9719 10.269 77.8735 9.81805C77.775 9.36057 77.5922 8.96216 77.3307 8.60874C77.0626 8.26281 76.7166 7.98814 76.2854 7.79221C76.5076 7.68065 76.7232 7.54379 76.9454 7.37411C77.161 7.20443 77.3701 7.00194 77.5594 6.76663C77.7553 6.53789 77.9185 6.27634 78.0497 5.98198C78.1866 5.68762 78.2785 5.36795 78.3309 5.01453C78.4228 4.32831 78.3703 3.74709 78.181 3.2568C77.985 2.77307 77.6775 2.36809 77.2594 2.04092C76.8348 1.72031 76.3314 1.46626 75.737 1.26939C75.1427 1.07346 74.4949 0.929097 73.7965 0.838164L67.8493 0.00195312L65.9087 13.8051ZM84.8088 3.0215L79.365 15.8506L89.0179 19.9482L90.2854 16.9549L84.4235 14.465L85.2794 12.4523L90.0501 14.4781L91.3175 11.4848L86.5534 9.45901L87.3315 7.62909L92.9646 10.0215L94.2386 7.02818L84.8088 3.0215ZM102.513 12.2948L99.2249 9.81805L90.8338 20.9475L98.2509 26.5348L96.316 29.1034L99.4659 31.4761L103.354 26.3135L102.479 25.647L108.903 17.118L105.616 14.6413L99.1846 23.1702L96.0807 20.8303L102.513 12.2948ZM115.962 25.3789L113.486 22.0912L102.356 30.4824L104.833 33.7701L108.356 31.1105L109.859 31.2089L107.237 36.9602L110.211 40.9013L114.093 31.6214L121.046 32.1248L118.138 28.2691L112.361 28.0994L115.962 25.3789ZM126.497 44.6061L117.368 43.5543L120.726 42.3515L124.804 40.62L123.269 36.993L110.44 42.4368L111.942 45.9851L121.072 47.0369L117.713 48.2397L113.636 49.9712L115.178 53.5982L128.007 48.1544L126.497 44.6061ZM129.216 53.6441L115.492 56.0618L117.315 66.3879L120.517 65.8254L119.413 59.552L121.564 59.1732L122.465 64.2777L125.668 63.7152L124.766 58.6107L126.733 58.2648L127.798 64.2974L131 63.7283L129.216 53.6441Z" fill="#DE1F25"/>
</g>
<defs>
<linearGradient id="paint0_linear_2_302" x1="65.5008" y1="70.0557" x2="65.5008" y2="21.038" gradientUnits="userSpaceOnUse">
<stop stop-color="#E31E24"/>
<stop offset="1" stop-color="#9D3C43"/>
</linearGradient>
<clipPath id="clip0_2_302">
<rect width="131" height="96.2823" fill="white"/>
</clipPath>
</defs>
</svg>
