<svg width="132" height="97" viewBox="0 0 132 97" fill="none" xmlns="http://www.w3.org/2000/svg">
<g clip-path="url(#clip0_171_595)">
<path fill-rule="evenodd" clip-rule="evenodd" d="M20.8566 70.0677H49.2202V69.6956V53.847H23.308C21.72 58.8333 20.8575 64.1861 20.8575 69.7603V69.7668V69.7734C20.8566 69.8718 20.8566 69.9693 20.8566 70.0677ZM65.7157 17.334C92.36 17.334 113.966 40.7957 113.966 69.7406C113.966 69.8456 113.959 69.9562 113.959 70.0677H112.397C112.397 69.9628 112.397 69.8587 112.397 69.7471C112.397 41.7435 91.4976 19.0467 65.7157 19.0467C39.9338 19.0467 19.0266 41.7435 19.0266 69.7471C19.0266 69.8587 19.0332 69.9628 19.0332 70.0677H17.4714C17.4714 69.9562 17.4648 69.8456 17.4648 69.7406C17.4648 40.7957 39.0638 17.334 65.7157 17.334ZM73.1788 64.983H74.9562V63.199H73.1788V64.983ZM70.2051 63.199V63.7934H71.3948V64.983H71.9891V63.7934H72.5835V63.199H70.2051V62.6112H69.6108V63.199H70.2051ZM69.0155 65.5783H70.7995V64.3886H69.6099V63.7943H69.0155V65.5783ZM74.9562 60.8263H75.5505V59.6367H74.9562V60.8263ZM55.9511 54.8866H56.5464V54.2922H55.9521V54.8866H55.9511ZM53.5728 47.7563H57.7295V43.5996H53.5728V47.7563ZM54.1672 47.161H57.1342V44.194H54.1672V47.161ZM53.5728 67.9566H57.7295V63.7934H53.5728V67.9566ZM54.1672 67.3623H57.1342V64.3886H54.1672V67.3623ZM77.9298 43.6324H73.7731V47.7563H77.9298V43.6324ZM74.3618 47.161H77.3354V44.194H74.3618V47.161ZM71.9891 47.7563H72.5835V46.5667H71.9891V47.7563ZM74.9562 46.5667H76.7401V44.7893H74.9562V46.5667ZM54.7624 46.5667H56.5464V44.7893H54.7624V46.5667ZM54.7624 66.767H56.5464V64.983H54.7624V66.767ZM66.6428 59.0423H64.8588V58.448H66.0485V57.8536H64.8588V57.2659H64.2645V56.6715H63.0749V57.2659H63.6692V57.8536H64.8588V58.448H59.5125V57.8536H58.9182V59.0433H56.5464V58.4489H57.7295V57.8546H57.1351V57.2668H58.3248V56.0772V55.4828H57.7304V54.8885H57.1361V55.4828H56.5464V56.0772H57.1342V56.6715H57.7286V56.0772H58.3229H58.9172V54.8875V54.2932H58.3229V54.8875H58.9172H59.5116V55.4819H60.1059V56.6715H60.7003V57.2659H61.2946V57.8536H62.4843V57.2659H61.8899V56.6715H62.4843V56.0772H61.8899V56.6715H61.2956V54.8875H60.7012V55.4819H60.1069V54.2922H59.5125V53.6979H58.9182V53.1035H59.5125V51.9205H60.7022V51.3261H61.2965V50.7318H61.8909V50.1374H61.2965V50.7318H60.7022V50.1374H60.1078V49.5431H59.5135V48.9487H60.1078V48.3544H60.7022V49.544H63.0749V50.1384H62.4871V50.7327H61.8927V51.3271H61.2984V52.5101H60.1088V53.1045H60.7031V54.2941H61.2974V54.8885H61.8918V54.2941H62.4861V53.6998H63.0739V53.1054H63.6683V51.9224H61.8909V51.328H63.0739V50.1384H63.6683V50.7327H64.2626V50.1384H64.857V49.544H65.4513V48.9497H66.0457V47.1657H65.4513V48.3553H63.072V47.761H63.6664V47.1666H63.072V47.761H62.4843V47.1666H61.8899V46.5723H62.4843V45.9845H61.8899V45.3902H63.073V45.9845H63.6673V46.5723H65.4513V45.9845H66.0457V46.5723H67.2353V47.1666H66.6409V47.761H67.2353V48.3553H69.0127V47.761H69.6071V46.5714H70.7967V47.1657H70.2023V48.3553H70.7967V48.9497H68.4174V50.1393H67.8296V48.9497H67.2353V50.1393H67.8296V50.7337H67.2353V51.328H68.4184V50.1384H69.0127H69.6071V49.544H69.0127V50.1384V50.7327H69.6071V51.3271H70.2014V50.7327H71.391V51.3271H71.9854V50.7327H72.5797V51.3271H73.1741V50.7327H73.7684V51.9224H73.1741V53.1054H72.5797V51.9224L71.9854 51.9486V53.1054H72.5797V53.6998H70.7957V54.2941V54.8885H70.2014V55.4828H71.391V56.0772H71.9854V54.8875H71.391V54.2932H70.7967H70.2023V53.1035H70.7967V52.5092H70.2023V51.9467L69.0127 51.9139V53.1035H67.8296V52.5092H68.4174V51.9214H67.2344V53.1045H66.64V53.6988H66.0457V52.5073H66.64V51.9195H66.0457V51.3252H65.4513V50.7309H64.857V51.3252H64.2626V52.5083H65.4522V53.6979H63.6683V54.2922H63.0739V55.4819H63.6683V54.8875H65.4522V54.2932H66.6419V53.6988H67.2362V53.1045H67.8306V54.2941H67.2362V55.4837H68.4193V56.6734H69.0136V54.8894H69.608V57.2687H69.0136V58.4517H68.4193V57.8574H67.8315V56.08H66.6428V54.8903H66.0485V55.4847H65.4541V56.079H64.8598V55.4847H64.2654V56.079H64.8598V56.6734H65.4541V56.079H66.6438V56.6734H66.0494V57.2677H66.6438V57.8555H67.2381V58.4499H66.6438V59.0423H66.6428ZM71.9891 50.7299H71.3948V50.1356H70.8004V49.5412H72.5844V48.9469H73.774V48.3525H73.1797V45.3855H72.5854V44.1958H71.3957V44.7902H71.9901V45.9798H71.3957V45.3855H70.8014V44.1958H70.207V44.7902H69.6127V45.3845H70.8023V45.9789H69.0183V47.7563H68.424V46.5667H67.2409V45.3836H67.8353V45.9779H68.423V45.3836H67.8353V44.7893H68.423V44.1949H67.8353V44.7893H67.2409V45.3836H66.6466V44.7893H66.0522V45.3836H65.4579V45.9779H63.6739V45.3836H64.8635V44.7893H65.4579V44.1949H64.8635V43.6324H64.2692V44.1949H63.6748H63.0805V44.7893H63.6748V44.1949V43.6324H60.7078V44.1949H60.1134V44.7893H59.5191V44.1949H58.9247V43.6324L58.3304 43.5931V45.3836H58.9247V45.9779H58.3304V46.5657H58.9247V47.1601H58.3304V47.7544H58.9247V47.1601H59.5191V48.3497L55.3624 48.3825V49.5393H54.7681V48.945H54.1737V48.3825L53.5794 48.3497V48.9441H54.1737V49.5384H53.5794V50.1328H55.3634V50.7271H54.769V51.9167H55.3634V50.7271H56.5464V51.3214H55.9521V51.9158H56.5464V51.3214H57.7295V50.7271H59.5135V51.9167H58.3238V53.6941H57.7295H57.1351V54.2885H57.7295V53.6941V53.0998H57.1351V52.5055H57.7295V51.9177H57.1351V52.5055H55.9521V53.0998H56.5464V53.6941H55.3568V53.0998H54.7624V52.5055H54.1681V50.728H53.5737V52.5055H54.1681V53.0998H53.5737V54.2894H54.1681V55.4791H53.5737V56.0734H54.1681V56.6678H53.5737V57.2621H54.1681V56.6678H54.7624V56.0734H55.3568H55.9511V55.4791H55.3568V56.0734V58.4461H54.7624V59.0405H54.1681V60.8244H54.7624V62.0141H55.3568V62.6084H55.9511V63.1962H56.5464V62.6084H57.1342V63.1962H58.3238V66.1698H59.5135V66.7642H58.9191V67.3585H58.3248V67.9528H61.2984V67.3585H61.8927V67.9528H62.4871V67.3585H61.8927V66.7642H62.4871V65.5745H63.0749V66.7642H63.6692V67.3585H64.2636V67.9528H65.4532V67.3585H64.2636V66.7642H66.0475V66.1698H64.8579V65.5755H64.2636H63.6692V66.1698H64.2636V65.5755V64.9811H64.8579V64.3868H64.2636V64.9811H63.6692V63.7915H64.2636V62.6084H63.0739V62.0141H64.2636V61.4197H64.8579V60.8254H64.2636V61.4197H63.6692V60.232H63.0749V59.6376H62.4871V59.0433H63.6701V59.6376H64.2645V59.0433H64.8588V59.6376H65.4532V62.0169H66.6428V61.4225H66.0485V59.6386H66.6428V59.0442H67.8324V58.4499H68.4202V59.0442H69.0146V58.4499H69.6089V59.6395H70.2033V57.8555H69.6089V57.2677H70.2033V56.0781H70.7976V56.6724H72.5816V54.8885H74.9543V55.4828H73.1769V56.6724H73.7712V57.2668H73.1769V57.8546H71.9873V57.2668H70.7976V57.8546H71.392V58.4489H70.7976V59.6386H71.392V59.0442H71.9863H72.5807V58.4499H71.9863V59.0442V62.0178H73.7703V62.6122H70.7967V62.0178H71.391V61.4235H70.2051V62.0178H67.8324V61.4235H69.0155V60.232H68.4212V59.6376H67.2381V60.232H68.4212V60.8263H67.2381V62.0159H67.8324V62.6103H69.0155V63.1981H68.4212V66.1717H69.0155V67.3613H69.6099V67.9557H70.2042V67.3613H69.6099V66.767H70.2042V66.1726H71.9882V65.5783H72.5825V66.1726H73.1769V66.767H73.7712V67.3613H74.359V66.767H74.9534V67.9566H75.5477V67.3623H76.7373V66.1726H77.3317V67.3623H77.926V66.1726H77.3317V65.5783H77.926V64.9839H76.7364V65.5783H76.1421H74.9524V66.1726H75.5468V66.767H76.1411V65.5773V64.3877V63.7934H75.5468V64.3877H76.1411H77.3307V63.7934H76.7364V62.0159H77.926V61.4216H76.7364V60.8272H77.3307V60.2329H77.9251V58.4489H77.3307V57.2659H76.7364V56.6715H75.5468V56.0772H74.9524V55.4828H75.5468V54.2932H76.1411V56.0772H76.7355V54.2932H77.3298V55.4828H77.9242V54.2932H77.3298V53.6988H76.7355V54.2932H76.1411V53.6988H74.9515V54.2932H73.7684V52.5073H74.3562V53.1017H74.9505V52.5073H75.5449V53.1017H76.7345V52.5073H76.1402V51.3243H74.3562V49.5403H75.5458V48.3835L74.9515 48.3506V48.945H74.3571V49.5393H73.7693V50.1337H71.9854V50.7299H71.9891ZM73.7731 56.6706V56.0762H74.9562V56.6706H73.7731ZM74.9562 56.6706H75.5505V57.8536H74.9562V58.448H74.3618V57.2649H74.9562V56.6706ZM56.5464 58.448H55.9521V56.6706H56.5464V58.448ZM55.9511 58.448V59.0423H55.3568V58.448H55.9511ZM58.9182 45.3836V44.7893H59.5125V45.3836H58.9182ZM71.3948 67.9566H73.1788V67.3623H71.3948V67.9566ZM77.9298 48.3835H76.1458V48.9459H77.9298V48.3835ZM69.0155 67.3623H67.8324V66.7679H67.2381V66.1736H67.8324V63.1999H66.6428V63.7943H66.0485V64.3886H65.4541V64.983H66.0485V65.5773H66.6428V67.3613H67.8324V67.9557H69.0155V67.3623ZM62.4871 59.6376V60.232H61.2974V59.6376H62.4871ZM62.4871 60.232H63.0749V60.8263H62.4871V60.232ZM62.4871 60.8263V61.4207H61.2974V60.8263H62.4871ZM61.2974 61.4216V62.0159H62.4871V62.6103H61.8927V63.1981H61.2984V63.7924H60.704V64.3868H60.1097V63.7924H59.5153V64.3868H60.1097V65.5764H58.9182V63.1971H58.3238V62.6093H57.1342V62.015H58.9182V61.4207H58.3238V60.8263H60.1078V59.6367H60.7022V61.4207H60.1078V62.015H60.7022V61.4207H61.2974V61.4216ZM57.1342 62.0159H55.9511V61.4216H55.3568V60.232H54.7624V59.6376H55.9521V60.232H56.5464V59.6376H58.9191V60.232H57.1351V60.8263H57.7295V61.4207H57.1351V62.0159H57.1342ZM56.5464 59.6376H55.9521V59.0433H56.5464V59.6376ZM61.8918 63.199H63.6692V63.7934H63.0749V64.983H62.4871V65.5773H61.8927V66.1717H61.2984V67.3613H60.704V66.767H60.1097V66.1726H60.704V65.5783H61.2984V64.3886H61.8927V63.199H61.8918ZM60.1078 66.767V67.3613H59.5135V66.767H60.1078ZM70.7995 48.3506V47.161H71.3938V48.3506H70.7995ZM60.1078 44.7893H60.7022V47.7563H60.1078V46.5667H59.5135V45.9789H60.1078V44.7893ZM60.7031 44.7893V44.1949H61.2974V44.7893H60.7031ZM61.2974 44.7893H61.8918V45.3836H61.2974V44.7893ZM72.5835 48.9459H71.3938V48.3516H72.5835V48.9459ZM76.7401 61.4216V62.0159H76.1458V61.4216H76.7401ZM57.7295 50.7299H56.5464V50.1356H57.7295H58.3238V49.5412H58.9182V48.9469H58.3238V49.5412H57.7295V48.9469H57.1351V49.5412H57.7295V50.1356V50.7299ZM56.5464 50.1346H55.3568V49.5403H55.9511V48.9459H56.5464V50.1346ZM62.4871 62.0159V61.4216H63.0749V62.0159H62.4871ZM70.7995 46.5667V45.9789H71.3938V46.5667H70.7995ZM77.3354 63.199H77.9298V62.6112H77.3354V63.199ZM54.1672 56.0753V55.4809H54.7615V56.0753H54.1672ZM69.0155 53.1017H69.6099V54.2913H68.4202V53.697H69.0146V53.1017H69.0155ZM69.6099 53.1017V52.5073H70.2042V53.1017H69.6099ZM73.1788 60.232H73.7731V59.6376H73.1788V57.8536H73.7731V59.0433H74.3609V61.4225H74.9552V62.0169V62.6112H75.5496V62.0169H74.9552H73.7722V61.4225H73.1778V60.232H73.1788ZM73.1788 59.6376V60.232H72.5844V59.6376H73.1788ZM76.7401 57.2649V58.448H76.1458V57.2649H76.7401ZM76.1458 58.448V59.0423H75.5515V58.448H76.1458ZM76.1458 59.0423H76.7401V58.448H77.3345V60.232H76.7401V59.6376H76.1458V59.0423ZM76.7401 60.232V60.8263H76.1458V60.232H76.7401ZM65.4541 63.199H66.0485V62.6112H65.4541V63.199ZM60.7031 50.7299V51.3243H60.1088V50.7299H60.7031ZM66.0485 45.3836H66.6428V45.9779H66.0485V45.3836ZM61.8918 45.9789V46.5667H61.2974V45.9789H61.8918ZM61.8918 47.161V47.7554H62.4861V48.3497H63.0739V48.9441H61.8909V48.3497H61.2965V47.1601H61.8918V47.161ZM59.5135 63.199H60.1078V62.6112H59.5135V63.199ZM54.1672 54.2913V53.1017H54.7615V53.696H55.3559V54.8857H54.7615V54.2913H54.1672ZM66.0485 64.3886H66.6428V63.7943H67.2372V64.9839H66.0475V64.3886H66.0485ZM66.6428 57.2649V56.6706H67.2372V57.2649H66.6428ZM74.3618 66.767H73.774V66.1726H73.1797V65.5783H74.3628V66.767H74.3618ZM73.7731 64.3886H74.3609V63.7943H73.7731V64.3886ZM67.2381 47.7563V47.162H67.8324V47.7563H67.2381ZM76.1458 50.1346H76.7401V51.9186H77.3345V52.5064H77.9288V50.1337H76.7392V49.5393H76.1449V50.1346H75.5505V50.729H76.1449V50.1346H76.1458ZM64.2645 47.7563H64.8588V47.162H64.2645V47.7563ZM64.8588 49.5403H64.2645V50.1346H63.6701V48.945H64.8598V49.5403H64.8588ZM66.6428 43.6324H66.0485V44.1949H66.6428V43.6324ZM69.6099 43.6324H69.0155V44.1949H69.6099V43.6324ZM64.2645 44.194H64.8588V44.7883H64.2645V44.194ZM49.2202 51.4939V24.438C37.8226 29.339 28.7124 39.1617 24.1114 51.4939H49.2202ZM52.2529 70.0677H79.1785V69.6956V41.3582H52.2529V70.0677ZM79.1775 39.0052V30.254H52.2529V39.0052H79.1775ZM79.1775 27.9019V23.2746C74.9234 21.8235 70.4067 21.0397 65.7147 21.0397C61.0228 21.0397 56.4995 21.8244 52.2519 23.2746V27.9019H79.1775ZM82.2102 70.0677H110.574C110.574 69.9628 110.574 69.8653 110.574 69.7603C110.574 64.1852 109.711 58.8333 108.123 53.847H82.2102V70.0677ZM107.312 51.4939C102.718 39.1617 93.6078 29.339 82.2102 24.438V51.4939H107.312Z" fill="url(#paint0_linear_171_595)"/>
<path d="M10.6892 79.1513H15.4271V75.1455H0.664062V79.1513H5.40852V92.3197H10.6892V79.1513ZM17.6882 75.1455V92.3206H31.1314V88.3149H22.9624V85.6225H29.6089V81.6102H22.9624V79.1531H30.8183V75.1474H17.6882V75.1455ZM33.7 75.1455V92.3206H38.9807V79.1513H43.967V92.3197H49.2477V75.1455H33.7ZM53.9659 75.1455V83.9941C53.9659 84.7975 53.9396 85.4716 53.8937 86.0134C53.8412 86.5562 53.7765 86.9874 53.6847 87.3137C53.5928 87.6474 53.4822 87.8949 53.3444 88.0655C53.2141 88.2286 53.0566 88.3468 52.8869 88.3992C52.7106 88.4583 52.5213 88.4846 52.3057 88.4846C52.1097 88.4846 51.9401 88.478 51.7957 88.4649C51.6588 88.4517 51.5276 88.4321 51.417 88.4124C51.312 88.3861 51.2079 88.3533 51.1029 88.3139V92.3197C51.4488 92.4116 51.7694 92.4762 52.0638 92.5353C52.3647 92.5878 52.6647 92.6206 52.9656 92.6469C53.2731 92.6665 53.5994 92.6797 53.9659 92.6797C54.5668 92.6862 55.1293 92.6075 55.6458 92.4444C56.1689 92.2878 56.633 92.0197 57.0445 91.6344C57.4626 91.2557 57.816 90.7326 58.1094 90.0726C58.4038 89.4192 58.626 88.5896 58.7825 87.6024C58.9391 86.6087 59.0178 85.4266 59.0178 84.0476V79.1522H62.8014V92.3206H68.0755V75.1455H53.9659ZM81.8064 75.1455L75.9961 85.001L76.2642 80.609V75.1455H71.2057V92.3206H76.1526L81.963 82.4717L81.6949 86.8571V92.3206H86.7534V75.1455H81.8064ZM95.1577 75.1455H89.8836V92.3206H101.778V96.2814H106.836V88.3149H105.425V75.1455H100.151V88.3139H95.1577V75.1455ZM114.26 85.1444H115.58C115.998 85.1378 116.39 85.151 116.744 85.1838C117.096 85.21 117.403 85.2756 117.665 85.3731C117.927 85.4781 118.129 85.6413 118.273 85.8569C118.409 86.0725 118.488 86.3668 118.488 86.739C118.482 87.1637 118.383 87.4909 118.187 87.7196C117.985 87.9483 117.717 88.1049 117.371 88.1902C117.03 88.2821 116.645 88.3205 116.207 88.3139H114.26V85.1444ZM114.26 75.1455H108.98V92.3206H116.698C118.103 92.3206 119.299 92.1181 120.292 91.7197C121.299 91.3147 122.063 90.7063 122.599 89.8898C123.135 89.0798 123.402 88.0599 123.409 86.8374C123.402 85.8962 123.252 85.0732 122.938 84.3607C122.637 83.6548 122.193 83.0604 121.612 82.5833C121.031 82.0995 120.338 81.7405 119.52 81.4986C118.704 81.2568 117.789 81.133 116.762 81.133H114.259V75.1455H114.26ZM130.971 75.1455H125.691V92.3206H130.971V75.1455Z" fill="white"/>
<path d="M0.207031 64.1858L4.45464 64.9376C5.04899 65.0361 5.59177 65.0492 6.08206 64.9704C6.57235 64.8851 7.01014 64.7351 7.38888 64.5195C7.77417 64.3039 8.10134 64.0424 8.38258 63.7283C8.65725 63.4143 8.88599 63.0815 9.04911 62.7149C9.22535 62.3559 9.33691 61.9893 9.40159 61.6237C9.48034 61.1991 9.53846 60.826 9.5844 60.5128C9.63033 60.2054 9.66314 59.9316 9.68939 59.7029C9.70908 59.4807 9.7222 59.2782 9.72876 59.1085C9.73533 58.9323 9.73533 58.7748 9.72876 58.6314C9.7222 58.4814 9.70908 58.337 9.69595 58.187L15.2448 59.1676L15.9572 55.1093L2.23287 52.6917L1.52041 56.7499L6.39611 57.6058C6.43548 57.8017 6.44861 58.0698 6.44205 58.397C6.42892 58.7242 6.38955 59.0898 6.32486 59.4882C6.23956 59.9851 6.04363 60.3375 5.73708 60.5597C5.43616 60.7819 5.01149 60.8475 4.46964 60.7556L0.919497 60.1276L0.207031 64.1858ZM3.475 47.3247L16.3041 52.7685L20.4017 43.1155L17.4084 41.8481L14.9185 47.71L12.9058 46.8541L14.9316 42.0834L11.9383 40.816L9.91251 45.5801L8.07603 44.802L10.4684 39.1689L7.47512 37.8949L3.475 47.3247ZM14.7676 31.882L15.421 30.908C15.5447 30.7252 15.6891 30.5358 15.8588 30.3455C16.0285 30.1562 16.2178 29.9996 16.4278 29.8618C16.6369 29.7381 16.859 29.6659 17.1009 29.6593C17.3493 29.6527 17.6043 29.7315 17.8724 29.9077C18.1996 30.1365 18.4218 30.3718 18.5455 30.6202C18.6627 30.8752 18.6955 31.1302 18.644 31.3983C18.5915 31.6598 18.4743 31.9279 18.2915 32.1961L17.3372 33.6144L14.7676 31.882ZM20.0351 35.4303L21.192 33.7054C21.8585 32.7051 22.2438 31.777 22.3488 30.9211C22.4472 30.0587 22.3029 29.2674 21.9044 28.555C21.4995 27.8425 20.8845 27.2022 20.0483 26.6463C19.2505 26.1035 18.4602 25.8035 17.6559 25.7314C16.8581 25.6657 16.0744 25.8551 15.316 26.3004C14.551 26.7382 13.8329 27.4572 13.1524 28.4575L9.7672 33.4766L21.3213 41.2669L23.6284 37.8555L20.0351 35.4303ZM19.5842 20.2229L29.0863 30.4111L36.7584 23.2612L34.5432 20.8819L29.8831 25.2279L28.3935 23.6268L32.1836 20.0916L29.9619 17.7124L26.1717 21.2475L24.8124 19.7898L29.2953 15.6134L27.0736 13.2341L19.5842 20.2229ZM32.3608 9.47869L38.4711 22.0003L42.1703 20.1966L37.4915 10.5961L40.9882 8.88997L45.6736 18.4905L49.3719 16.6868L43.2615 4.15863L32.3608 9.47869ZM55.5609 4.07426C56.0053 3.98895 56.4103 4.02833 56.7703 4.17926C57.1227 4.32925 57.4302 4.57111 57.6983 4.89172C57.9665 5.21889 58.1821 5.59763 58.3583 6.02229C58.5346 6.45352 58.6724 6.90444 58.7633 7.37504C58.8749 7.94408 58.9264 8.4728 58.933 8.96966C58.933 9.46651 58.8739 9.91086 58.7502 10.3027C58.6199 10.688 58.423 11.0152 58.1493 11.2702C57.8812 11.5252 57.5287 11.6948 57.0909 11.7801C56.7056 11.8523 56.3587 11.8392 56.0522 11.7342C55.7447 11.6292 55.471 11.4661 55.2357 11.2308C55.0004 10.9955 54.7979 10.7208 54.6282 10.4011C54.4519 10.0871 54.3076 9.74118 54.1904 9.38776C54.0732 9.02872 53.9813 8.66873 53.9157 8.31625C53.8501 7.97033 53.7985 7.61034 53.7789 7.24474C53.7592 6.88569 53.7723 6.52571 53.8248 6.17979C53.8707 5.83387 53.9617 5.51982 54.0929 5.22546C54.2232 4.9311 54.4135 4.68267 54.6554 4.48674C54.8944 4.28331 55.1953 4.14551 55.5609 4.07426ZM54.9404 0.720982C53.9795 0.910348 53.1367 1.25064 52.4177 1.73437C51.6855 2.22466 51.1043 2.83213 50.6534 3.56429C50.2025 4.29644 49.9081 5.12609 49.7647 6.05417C49.6278 6.98225 49.6597 7.98908 49.8631 9.06715C50.0918 10.2305 50.4509 11.2364 50.9346 12.0801C51.4118 12.9295 51.9996 13.6091 52.6923 14.1257C53.3851 14.6422 54.1566 14.9816 55.006 15.1512C55.8553 15.3209 56.7703 15.3078 57.7443 15.125C58.4764 14.9816 59.1495 14.7463 59.757 14.4125C60.371 14.0788 60.9007 13.6607 61.3647 13.1516C61.8222 12.6482 62.1878 12.0604 62.4625 11.4005C62.7437 10.7339 62.9069 10.0018 62.9725 9.19839C63.0381 8.39499 62.979 7.51847 62.8028 6.59039C62.6594 5.85824 62.4437 5.17202 62.1363 4.51205C61.8353 3.85208 61.4566 3.25117 60.9991 2.71495C60.5482 2.17873 60.012 1.73437 59.4111 1.38189C58.8036 1.02284 58.1305 0.780979 57.3852 0.656297C56.639 0.531616 55.8225 0.557864 54.9404 0.720982ZM71.0037 8.60967L72.3039 8.78591C72.6245 8.83185 72.9245 8.88435 73.1926 8.94903C73.4673 9.00809 73.696 9.09246 73.8854 9.20402C74.0748 9.31558 74.2126 9.46557 74.2969 9.65493C74.3822 9.8443 74.4085 10.0862 74.3691 10.3871C74.3166 10.7274 74.1994 10.9814 74.0232 11.1455C73.8469 11.302 73.6182 11.407 73.3435 11.4333C73.0689 11.4661 72.7623 11.4595 72.4286 11.407L70.6446 11.1586L71.0037 8.60967ZM71.6833 3.79302L73.1148 3.99551C73.337 4.02176 73.5395 4.06114 73.7354 4.10707C73.9313 4.14645 74.101 4.21207 74.2519 4.303C74.3954 4.39487 74.5004 4.51861 74.5725 4.68173C74.6447 4.84485 74.6579 5.0539 74.6185 5.32201C74.5791 5.59013 74.4882 5.80574 74.3438 5.96886C74.1994 6.13198 74.0166 6.24353 73.7944 6.30259C73.5723 6.36165 73.3239 6.37478 73.0492 6.3354L71.3571 6.09354L71.6833 3.79302ZM66.1158 13.8051L72.1802 14.6544C72.9901 14.7716 73.7354 14.8044 74.4151 14.7463C75.0881 14.6938 75.6825 14.5372 76.199 14.2822C76.7156 14.0207 77.1402 13.6485 77.4665 13.1451C77.7936 12.6482 78.0093 12.0211 78.1199 11.2495C78.1921 10.7461 78.1789 10.269 78.0805 9.81805C77.9821 9.36057 77.7993 8.96216 77.5377 8.60874C77.2696 8.26281 76.9237 7.98814 76.4924 7.79221C76.7146 7.68065 76.9302 7.54379 77.1524 7.37411C77.368 7.20443 77.5771 7.00194 77.7665 6.76663C77.9624 6.53789 78.1255 6.27634 78.2567 5.98198C78.3936 5.68762 78.4855 5.36795 78.538 5.01453C78.6299 4.32831 78.5773 3.74709 78.388 3.2568C78.1921 2.77307 77.8846 2.36809 77.4665 2.04092C77.0418 1.72031 76.5384 1.46626 75.944 1.26939C75.3497 1.07346 74.7019 0.929097 74.0035 0.838164L68.0563 0.00195312L66.1158 13.8051ZM85.0158 3.0215L79.572 15.8506L89.225 19.9482L90.4924 16.9549L84.6305 14.465L85.4864 12.4523L90.2571 14.4781L91.5245 11.4848L86.7604 9.45901L87.5385 7.62909L93.1717 10.0215L94.4457 7.02818L85.0158 3.0215ZM102.72 12.2948L99.432 9.81805L91.0408 20.9475L98.458 26.5348L96.5231 29.1034L99.6729 31.4761L103.561 26.3135L102.686 25.647L109.11 17.118L105.823 14.6413L99.3917 23.1702L96.2878 20.8303L102.72 12.2948ZM116.169 25.3789L113.693 22.0912L102.563 30.4824L105.04 33.7701L108.563 31.1105L110.066 31.2089L107.444 36.9602L110.418 40.9013L114.3 31.6214L121.253 32.1248L118.345 28.2691L112.568 28.0994L116.169 25.3789ZM126.704 44.6061L117.575 43.5543L120.933 42.3515L125.011 40.62L123.476 36.993L110.647 42.4368L112.149 45.9851L121.279 47.0369L117.92 48.2397L113.843 49.9712L115.385 53.5982L128.214 48.1544L126.704 44.6061ZM129.423 53.6441L115.699 56.0618L117.522 66.3879L120.724 65.8254L119.62 59.552L121.771 59.1732L122.672 64.2777L125.875 63.7152L124.973 58.6107L126.94 58.2648L128.005 64.2974L131.207 63.7283L129.423 53.6441Z" fill="white"/>
</g>
<defs>
<linearGradient id="paint0_linear_171_595" x1="65.7059" y1="70.0557" x2="65.7059" y2="21.038" gradientUnits="userSpaceOnUse">
<stop stop-color="white"/>
<stop offset="1" stop-color="white"/>
</linearGradient>
<clipPath id="clip0_171_595">
<rect width="131" height="96.2823" fill="white" transform="translate(0.207031)"/>
</clipPath>
</defs>
</svg>
