<svg width="35" height="34" viewBox="0 0 35 34" fill="none" xmlns="http://www.w3.org/2000/svg">
<path fill-rule="evenodd" clip-rule="evenodd" d="M2.4 9.8C2.7 10 3 10.1 3.2 10.2C3.5 10.3 3.8 10.4 4.1 10.6C4.3 10.7 4.4 10.7 4.5 10.8L5 10.9C5.9 11.2 6.7 11.4 7.6 11.6C8.5 11.7 9.3 11.8 10.3 11.8C10.4 11.8 10.5 11.8 10.6 11.8C10.7 11.8 10.7 11.8 10.9 11.8C11.4 11.7 12.1 11.7 12.7 11.7C13.6 11.6 14.5 11.4 15.4 11.2C16.3 11 17.2 10.7 18 10.3L18.1 10.2C18.2 10.1 18.4 10.1 18.5 10L18.8 9.9V12.7L18.6 12.8C18.5 12.8 18.4 12.9 18.3 12.9H18.2C17.6 13.2 17 13.4 16.4 13.6C15.8 13.8 15.2 13.9 14.5 14.1C14 14.2 13.6 14.2 13.1 14.3C11.9 14.4 10.8 14.4 9.8 14.3C8.7 14.2 7.7 14 6.5 13.8C5.7 13.6 5.1 13.5 4.5 13.3C4 13.2 3.4 13 2.7 12.8C2.6 12.8 2.6 12.7 2.5 12.7C2.4 12.7 2.3 12.6 2.2 12.6L2 12.5V9.6L2.4 9.8ZM9.8 0H9.5C9 0 8.6 0 8.1 0.1C7.6 0.1 7.2 0.2 6.7 0.3C5.5 0.4 4.5 0.7 3.5 1C2.5 1.3 1.6 1.8 0.6 2.3C0.5 2.4 0.3 2.5 0.2 2.6C0.1 2.7 0 2.8 0 3V5.5C0 5.6 0 5.7 0 5.7C0 5.8 0 5.8 0 6C0 7.3 0 8.5 0.1 9.8C0.1 12 0.2 14.2 0.2 16.3V22.9C0.2 23 0.2 23.2 0.3 23.3C0.3 23.4 0.4 23.5 0.4 23.6C0.5 23.7 0.7 23.9 0.9 24.1C1.3 24.4 1.9 24.8 2.1 24.9L3.5 25.7C3.7 25.8 3.9 25.9 4.1 25.9C4.4 26 4.6 26.1 5.1 26.3C5.4 26.4 5.7 26.5 5.9 26.6C6.2 26.7 6.4 26.8 6.8 26.8C7.9 27.1 8.9 27.2 9.9 27.3C10.9 27.4 11.9 27.3 13.1 27.1C13.2 27.1 13.3 27.1 13.4 27H13.6V26.9C13.5 26.7 13.5 26.5 13.4 26.1V25.9C13.3 25.6 13.3 25.4 13.3 25.1C12.5 25.3 11.5 25.3 10.5 25.3C9.4 25.3 8.2 25.2 7.4 25C6.7 24.8 6.1 24.7 5.6 24.4C5 24.2 4.5 23.9 3.9 23.6C3.4 23.4 3 23.2 2.6 22.8C2 22.7 2.1 22.4 2.1 22C2.1 21.9 2.1 21.8 2.1 21.7V19.6L2.5 19.8C2.8 20 3.2 20.1 3.6 20.3C4.1 20.5 4.7 20.7 5.1 20.8C6.4 21.2 7.5 21.5 8.6 21.6C9.7 21.7 10.8 21.7 12.2 21.6C12.4 21.6 12.6 21.6 12.8 21.5C12.9 21.5 13.1 21.5 13.2 21.4C13.3 20.7 13.7 19.9 13.9 19.3L12.8 19.5C11.8 19.7 10.8 19.7 9.8 19.7C8.8 19.6 7.7 19.5 6.7 19.2C6.1 19.1 5.7 18.9 5.3 18.8C4.9 18.6 4.4 18.5 3.9 18.2C3.7 18.1 3.4 18 3.1 17.8C2.7 17.6 2.4 17.4 2.3 17.4L2 17.5V14.6L4.3 15.3C5.3 15.6 6.4 15.8 7.6 16C8.7 16.2 9.8 16.3 10.9 16.3C11.8 16.3 12.6 16.3 13.4 16.2C14.2 16.1 15 16 15.9 15.8L16.1 15.7C16.3 15.7 16.4 15.6 16.5 15.5C17.2 14.9 17.7 14.6 18.4 14.2L18.5 14.1C18.7 14 19.3 13.7 19.8 13.5C20.1 13.4 20.3 13.3 20.5 13.3C20.5 12.9 20.5 12.4 20.5 11.9C20.5 11.4 20.5 10.9 20.5 10.3V7.9C20.5 7.6 20.5 6.9 20.6 6.2C20.7 5.3 20.7 4.3 20.7 4.2C20.7 4 20.7 3.8 20.7 3.7C20.7 3.5 20.7 3.4 20.5 3.1C20.1 2.5 19.1 2 18 1.6C17 1.3 15.8 1 15.2 0.8C14.3 0.6 13.4 0.4 12.5 0.2C11.6 0.1 10.7 0 9.8 0ZM2.2 5.5C2.4 5.5 2.5 5.6 2.6 5.7L2.7 5.8L2.9 5.9L4 6.3C5.8 7 7.7 7.4 9.6 7.5C11.4 7.6 13.3 7.4 15 6.9C15.3 6.8 15.6 6.7 15.9 6.6C16.2 6.5 16.5 6.4 16.8 6.2L17 6.1C17.2 6 17.5 5.9 17.7 5.8L18.9 5.1V5.6C18.9 5.9 18.9 6.3 18.9 6.6C18.9 6.9 18.9 7.2 18.9 7.5V7.7L18.7 7.8C17.6 8.4 16.6 8.8 15.6 9.2C14.6 9.5 13.5 9.8 12.2 9.9H11.9C11.8 9.9 11.7 9.9 11.6 9.9H11.3C11.2 9.9 11.1 9.9 11 9.9C10.8 9.9 10.7 9.9 10.5 9.9C10.4 9.9 10.4 9.9 10.3 9.9C10.2 9.9 10.1 9.9 10 9.9C9.9 9.9 9.7 9.9 9.6 9.9C8.1 9.8 7.2 9.7 5.7 9.2C5.2 9 4.7 8.8 4.2 8.6C3.8 8.4 3.3 8.2 2.9 7.9L2.7 7.8C2.5 7.7 2.2 7.5 2.2 7.5H1.9V7.2C1.9 6.9 1.9 6.7 1.9 6.5C1.9 6.2 1.9 6 1.9 5.7V5.4L2.2 5.5ZM3.2 3.2L3.9 3C5.5 2.4 7.2 2.1 8.9 2C10.6 1.9 12.4 2.1 14 2.5C14.5 2.6 15.1 2.8 15.7 3C15.8 3 16 3.1 16.1 3.1C16.2 3.1 16.4 3.2 16.5 3.3L17 3.5C17.1 3.5 17.2 3.6 17.2 3.6L17.7 3.7C16.5 4.5 16.4 4.8 14.3 5.3C13 5.7 11.7 5.8 10.4 5.8C9.1 5.8 7.8 5.6 6.5 5.2C6 5 5.6 4.8 5.2 4.7C4.7 4.5 4.3 4.3 3.9 4.2C3.7 4 3.4 3.9 3.2 3.8L3.1 3.7V3.6C3 3.6 3 3.5 3 3.5L2.9 3.3L3.2 3.2Z" fill="#148F0B"/>
<path fill-rule="evenodd" clip-rule="evenodd" d="M21.6992 2.59961C21.8992 2.89961 21.9992 3.19961 21.9992 3.49961C21.9992 3.69961 21.9992 3.79961 22.0992 3.99961H22.1992C23.2992 3.69961 24.4992 3.49961 25.6992 3.49961C26.9992 3.49961 28.1992 3.59961 29.4992 3.89961C29.7992 3.99961 30.0992 4.09961 30.3992 4.19961L30.7992 4.29961C30.8992 4.29961 30.9992 4.39961 31.0992 4.39961L31.5992 4.59961C31.7992 4.69961 31.8992 4.69961 32.0992 4.79961L32.3992 4.99961L32.1992 5.29961C32.0992 5.49961 31.6992 5.59961 31.2992 5.79961C30.6992 5.99961 29.9992 6.29961 29.7992 6.39961C28.7992 6.59961 27.8992 6.79961 26.8992 6.79961C25.9992 6.79961 24.9992 6.69961 23.9992 6.49961C23.5992 6.39961 23.2992 6.29961 22.9992 6.19961C22.6992 6.09961 22.3992 5.99961 22.0992 5.89961V6.29961C21.9992 6.39961 21.9992 6.89961 21.9992 7.19961L22.3992 7.39961C23.8992 7.79961 25.1992 7.99961 26.4992 7.99961C27.7992 7.99961 29.0992 7.79961 30.5992 7.39961C30.7992 7.29961 31.1992 7.19961 31.5992 6.99961C31.8992 6.89961 32.2992 6.69961 32.3992 6.59961L33.3992 5.99961V7.19961C33.3992 7.39961 33.3992 7.49961 33.3992 7.59961C33.3992 7.69961 33.3992 7.79961 33.3992 7.89961V8.09961C33.1992 8.19961 32.7992 8.39961 32.5992 8.49961C31.7992 8.89961 30.6992 9.29961 29.5992 9.49961C28.5992 9.69961 27.4992 9.89961 26.5992 9.79961C26.4992 9.79961 26.3992 9.79961 26.3992 9.79961C26.2992 9.79961 26.2992 9.79961 26.1992 9.79961C25.7992 9.79961 25.2992 9.69961 24.7992 9.69961C24.0992 9.59961 23.4992 9.39961 22.9992 9.29961L21.8992 8.99961V10.4996L22.7992 10.7996C23.8992 11.0996 25.1992 11.2996 26.3992 11.2996C27.6992 11.2996 28.8992 11.1996 30.0992 10.8996C30.6992 10.7996 30.9992 10.6996 31.3992 10.4996C31.7992 10.3996 32.0992 10.2996 32.5992 9.99961L32.6992 9.89961C32.7992 9.89961 32.8992 9.79961 32.9992 9.79961L33.2992 9.69961V11.9996L33.0992 12.0996C32.9992 12.1996 32.7992 12.1996 32.6992 12.2996H32.5992C31.8992 12.5996 31.0992 12.8996 30.2992 12.9996C29.4992 13.1996 28.6992 13.2996 27.9992 13.2996C27.3992 13.2996 26.9992 13.2996 26.5992 13.2996C27.2992 13.4996 27.9992 13.8996 28.4992 14.1996L28.5992 14.2996C28.6992 14.3996 28.7992 14.3996 28.9992 14.4996C29.0992 14.5996 29.1992 14.5996 29.1992 14.6996H29.2992C29.8992 14.5996 30.5992 14.4996 31.1992 14.3996C31.6992 14.2996 32.1992 14.0996 32.6992 13.9996H32.7992C32.8992 13.9996 32.9992 13.8996 33.0992 13.8996H33.3992V15.6996L33.2992 15.7996C32.7992 16.1996 32.3992 16.2996 31.8992 16.5996L31.6992 16.6996L31.3992 16.7996C31.6992 17.0996 31.9992 17.5996 32.1992 17.8996C32.2992 17.8996 32.2992 17.7996 32.3992 17.7996H32.4992L32.6992 17.6996C32.7992 17.5996 32.9992 17.5996 33.0992 17.4996L33.4992 17.3996V17.7996V18.3996C33.4992 18.5996 33.4992 18.7996 33.4992 18.8996V19.6996C33.4992 19.8996 33.4992 19.8996 33.3992 19.9996C33.4992 20.3996 33.6992 20.8996 33.7992 21.2996L33.8992 21.1996C34.6992 20.6996 34.8992 20.5996 34.8992 19.4996C34.8992 15.7996 34.6992 10.6996 34.9992 7.09961C34.9992 6.89961 34.9992 6.19961 34.9992 5.59961C34.9992 5.19961 34.9992 4.89961 34.8992 4.79961C34.7992 4.49961 34.3992 4.29961 33.9992 3.99961C33.5992 3.69961 33.0992 3.49961 32.6992 3.39961C31.8992 3.09961 30.6992 2.69961 29.3992 2.49961C28.2992 2.29961 27.2992 2.09961 26.3992 2.09961C25.4992 2.09961 24.6992 2.09961 23.9992 2.19961C23.2992 2.29961 22.5992 2.39961 21.6992 2.59961ZM23.0992 12.9996C22.6992 12.8996 22.2992 12.7996 21.7992 12.6996V13.0996H21.8992C22.2992 12.9996 22.6992 12.9996 23.0992 12.9996Z" fill="#148F0B"/>
<path fill-rule="evenodd" clip-rule="evenodd" d="M15.9 24.1996C15.9 23.4996 16 22.9996 16.1 22.3996C16.2 21.8996 16.4 21.3996 16.6 20.8996C16.7 20.5996 16.9 20.1996 17.1 19.8996C17.3 19.5996 17.5 19.2996 17.7 18.9996V18.8996C17.8 18.7996 17.8 18.6996 17.9 18.6996L18 18.5996C18 18.4996 18.1 18.4996 18.1 18.3996C18.4 18.0996 18.8 17.7996 19.1 17.4996C19.5 17.1996 19.9 16.9996 20.3 16.6996C21.4 16.1996 22.5 15.8996 23.5 15.8996C24.6 15.8996 25.7 16.1996 26.7 16.6996C26.9 16.7996 27.1 16.9996 27.3 17.0996C27.5 17.1996 27.7 17.3996 27.9 17.4996C28 17.5996 28.2 17.7996 28.4 17.9996C28.6 18.1996 28.8 18.3996 28.9 18.5996C29.1 18.7996 29.2 18.9996 29.3 19.1996C29.4 19.3996 29.6 19.5996 29.7 19.7996L29.9 20.0996C30 20.1996 30 20.2996 30.1 20.3996C30.7 21.5996 31.1 22.7996 31.1 24.0996C31.2 25.2996 31 26.3996 30.4 27.4996C30.1 28.0996 29.8 28.5996 29.4 28.9996C29 29.3996 28.6 29.7996 28 30.1996C27.7 30.3996 27.5 30.4996 27.3 30.6996C27.1 30.7996 26.9 30.8996 26.5 31.0996C25.5 31.5996 24.4 31.8996 23.4 31.8996C22.4 31.8996 21.3 31.6996 20.3 31.0996C20 30.9996 19.6 30.6996 19.3 30.4996C19 30.2996 18.7 30.0996 18.6 29.8996L18.5 29.7996C18.4 29.6996 18.3 29.5996 18.1 29.4996L17.7 28.9996C17.6 28.8996 17.5 28.7996 17.5 28.6996L17.3 28.3996C16.9 27.6996 16.5 26.9996 16.3 26.1996C16 25.7996 15.9 24.9996 15.9 24.1996ZM22.7 33.5996C23.1 33.5996 23.4 33.6996 23.8 33.6996C24.5 33.6996 25.2 33.5996 25.8 33.3996C27.8 32.8996 29.6 31.6996 30.8 30.0996C32 28.4996 32.7 26.4996 32.7 24.3996C32.7 23.6996 32.6 23.0996 32.4 22.3996C32.3 22.1996 32.3 21.8996 32.2 21.6996C32.1 21.4996 32.1 21.2996 32 20.9996C31.9 20.6996 31.7 20.2996 31.5 19.8996C31.3 19.5996 31.2 19.2996 31 18.9996L30.8 18.5996L30.6 18.2996L30.3 17.9996C30.2 17.8996 29.9 17.5996 29.7 17.2996C29.5 17.0996 29.3 16.8996 29.2 16.7996C29 16.5996 28.8 16.4996 28.7 16.3996C28.4 16.1996 28.3 15.9996 27.5 15.5996C27 15.2996 26.4 15.0996 25.7 14.8996C25.1 14.6996 24.4 14.5996 23.9 14.5996H23.2C22.3 14.5996 21.5 14.7996 20.6 15.0996C19.6 15.4996 18.7 15.9996 18 16.5996C17.8 16.7996 17.5 16.9996 17.3 17.2996C17.1 17.4996 16.8 17.7996 16.7 17.9996C16.4 18.3996 16.2 18.6996 16 18.9996C15.8 19.2996 15.7 19.5996 15.4 20.0996C15.3 20.1996 15.3 20.2996 15.2 20.3996C15.1 20.4996 15.1 20.6996 15 20.7996C14.8 21.2996 14.7 21.7996 14.6 22.2996C14.5 22.6996 14.5 23.1996 14.5 23.5996C14.5 24.1996 14.5 24.5996 14.5 24.9996C14.5 25.3996 14.6 25.7996 14.8 26.2996C14.8 26.3996 14.9 26.5996 14.9 26.7996C14.9 26.8996 15 27.0996 15 27.1996L15.1 27.3996C15.2 27.5996 15.3 27.7996 15.4 27.9996C15.6 28.3996 15.8 28.7996 16 29.0996C16.2 29.3996 16.4 29.6996 16.7 30.0996L16.8 30.1996L17.2 30.6996C17.5 30.9996 17.8 31.2996 18.1 31.4996C18.4 31.6996 18.7 31.9996 19.1 32.1996L19.7 32.4996C19.9 32.5996 20.3 32.7996 20.6 32.8996C21 32.9996 21.3 33.0996 21.6 33.1996C21.9 33.4996 22.3 33.4996 22.7 33.5996Z" fill="#148F0B"/>
<path fill-rule="evenodd" clip-rule="evenodd" d="M21.0996 29.5998V27.7998H19.0996V26.6998H21.0996V25.5998H19.0996V24.4998H21.0996V19.7998H24.7996C25.4996 19.7998 25.9996 19.7998 26.2996 19.8998C26.7996 19.9998 27.1996 20.0998 27.4996 20.3998C27.7996 20.5998 28.0996 20.8998 28.2996 21.3998C28.4996 21.7998 28.5996 22.2998 28.5996 22.6998C28.5996 23.4998 28.2996 24.1998 27.7996 24.7998C27.2996 25.3998 26.2996 25.6998 24.8996 25.6998H22.3996V26.7998H24.4996V27.8998H22.3996V29.6998H21.0996V29.5998ZM22.3996 24.4998H24.9996C25.7996 24.4998 26.3996 24.2998 26.7996 23.9998C27.1996 23.6998 27.2996 23.1998 27.2996 22.6998C27.2996 22.2998 27.1996 21.8998 26.9996 21.5998C26.7996 21.2998 26.4996 21.0998 26.1996 20.9998C25.9996 20.9998 25.5996 20.8998 24.9996 20.8998H22.4996V24.4998H22.3996Z" fill="#148F0B"/>
</svg>
