<svg width="31" height="31" viewBox="0 0 31 31" fill="none" xmlns="http://www.w3.org/2000/svg">
<path fill-rule="evenodd" clip-rule="evenodd" d="M28.9004 27.9004C28.1004 27.9004 27.4004 28.6004 27.4004 29.4004C27.4004 30.2004 28.1004 30.9004 28.9004 30.9004C29.7004 30.9004 30.4004 30.2004 30.4004 29.4004C30.4004 28.6004 29.8004 27.9004 28.9004 27.9004ZM28.9004 29.9004C28.6004 29.9004 28.4004 29.7004 28.4004 29.4004C28.4004 29.1004 28.6004 28.9004 28.9004 28.9004C29.2004 28.9004 29.4004 29.1004 29.4004 29.4004C29.4004 29.7004 29.2004 29.9004 28.9004 29.9004Z" fill="#148F0B"/>
<path fill-rule="evenodd" clip-rule="evenodd" d="M3 1.5C3 0.7 2.3 0 1.5 0C0.7 0 0 0.7 0 1.5C0 2.3 0.7 3 1.5 3C2.3 2.9 3 2.3 3 1.5ZM1 1.5C1 1.2 1.2 1 1.5 1C1.8 1 2 1.2 2 1.5C2 1.7 1.8 2 1.5 2C1.2 2 1 1.7 1 1.5Z" fill="#148F0B"/>
<path fill-rule="evenodd" clip-rule="evenodd" d="M26.4 19.3996L25.4 17.4996C25.6 17.0996 25.8 16.6996 25.9 16.1996L27.9 15.4996V9.89961L25.9 9.19961C25.8 8.79961 25.6 8.39961 25.4 7.99961L26.4 6.09961L22.4 2.09961L20.5 3.09961C20.1 2.89961 19.7 2.69961 19.2 2.59961L18.5 0.599609H12.9L12.2 2.59961C11.8 2.69961 11.4 2.89961 10.9 3.09961L9 2.09961L5 6.09961L6 7.99961C5.8 8.39961 5.7 8.79961 5.5 9.19961L3.5 9.89961V15.4996L5.5 16.1996C5.6 16.5996 5.8 16.9996 6 17.3996L5.4 18.4996H2.5V28.2996H5.9V26.7996H9.6L11.1 28.2996H13.8V28.7996C13.8 29.8996 14.7 30.7996 15.8 30.7996C16.9 30.7996 17.8 29.8996 17.8 28.7996V28.2996H21.2C22 28.2996 22.7 27.5996 22.7 26.7996C22.7 26.3996 22.6 26.0996 22.3 25.7996C22.5 25.4996 22.7 25.1996 22.7 24.7996C22.7 24.3996 22.6 24.0996 22.3 23.7996C22.5 23.5996 22.6 23.2996 22.7 22.9996L26.4 19.3996ZM7 17.1996C6.7 16.6996 6.5 16.1996 6.3 15.5996L6.2 15.3996L4.4 14.7996V10.5996L6.3 9.99961L6.4 9.79961C6.6 9.29961 6.8 8.79961 7.1 8.19961V7.99961L6.3 6.29961L9.3 3.29961L11 4.19961L11.2 3.99961C11.7 3.69961 12.2 3.49961 12.8 3.29961L13 3.19961L13.6 1.39961H17.8L18.4 3.19961L18.6 3.29961C19.1 3.49961 19.6 3.69961 20.2 3.99961L20.4 4.09961L22.1 3.19961L25.1 6.19961L24.3 7.99961L24.4 8.19961C24.7 8.69961 24.9 9.19961 25.1 9.79961L25.2 9.99961L27 10.5996V14.7996L25.2 15.3996L25.1 15.5996C24.9 16.0996 24.7 16.5996 24.4 17.1996L24.3 17.3996L25.2 19.1996L22.3 22.0996L22.2 21.9996C22.4 21.6996 22.6 21.3996 22.6 20.9996C22.6 20.1996 22 19.5996 21.3 19.4996C23.4 17.7996 24.6 15.2996 24.6 12.5996C24.6 7.69961 20.6 3.79961 15.8 3.79961C10.9 3.79961 7 7.79961 7 12.5996C7 15.2996 8.2 17.7996 10.3 19.4996H6L7.2 17.3996L7 17.1996ZM21.6 24.9996C21.6 25.2996 21.4 25.4996 21.1 25.4996H17.2C16.9 25.4996 16.7 25.2996 16.7 24.9996C16.7 24.6996 16.9 24.4996 17.2 24.4996H21.1C21.4 24.4996 21.6 24.6996 21.6 24.9996ZM14.5 12.6996H16.9L17.7 11.8996V9.79961C18.2 9.79961 18.7 10.1996 18.7 10.7996V12.9996L17 14.6996H14.5L12.8 12.9996V10.7996C12.8 10.2996 13.2 9.79961 13.8 9.79961V11.9996L14.5 12.6996ZM14.7 15.6996H16.7V17.6996H14.7V15.6996ZM17.7 15.3996L19.7 13.3996V10.6996C19.7 9.59961 18.8 8.69961 17.7 8.69961H16.7V11.3996L16.5 11.5996H14.9L14.7 11.3996V8.79961H13.7C12.6 8.79961 11.7 9.69961 11.7 10.7996V13.4996L13.7 15.4996V17.6996H12.5C10.8 16.5996 9.8 14.7996 9.8 12.7996C9.8 9.59961 12.4 6.89961 15.7 6.89961C18.9 6.89961 21.6 9.49961 21.6 12.7996C21.6 14.7996 20.6 16.5996 18.9 17.6996H17.6V15.3996H17.7ZM22.6 12.6996C22.6 8.89961 19.5 5.79961 15.7 5.79961C11.9 5.79961 8.8 8.89961 8.8 12.6996C8.8 14.9996 9.9 17.0996 11.8 18.2996L11.1 18.9996C9.1 17.4996 7.9 15.1996 7.9 12.6996C7.9 8.39961 11.4 4.89961 15.7 4.89961C20 4.89961 23.5 8.39961 23.5 12.6996C23.5 15.0996 22.4 17.3996 20.5 18.7996C20.4 18.4996 20.3 18.0996 20 17.8996C21.7 16.6996 22.6 14.7996 22.6 12.6996ZM21.1 20.5996C21.4 20.5996 21.6 20.7996 21.6 21.0996C21.6 21.3996 21.4 21.5996 21.1 21.5996H17.2C16.9 21.5996 16.7 21.3996 16.7 21.0996C16.7 20.7996 16.9 20.5996 17.2 20.5996H21.1ZM17.2 23.4996C16.9 23.4996 16.7 23.2996 16.7 22.9996C16.7 22.6996 16.9 22.4996 17.2 22.4996H21.1C21.4 22.4996 21.6 22.6996 21.6 22.9996C21.6 23.2996 21.4 23.4996 21.1 23.4996H17.2ZM4.9 27.3996H3.5V19.5996H5V27.3996H4.9ZM11.5 27.3996L10 25.9996H5.9V20.5996H11L13 18.5996H19.2C19.5 18.5996 19.7 18.7996 19.7 19.0996C19.7 19.3996 19.5 19.5996 19.2 19.5996H14.1L12 21.6996L12.7 22.3996L13.8 21.2996V27.4996H11.5V27.3996ZM15.7 29.8996C15.2 29.8996 14.7 29.4996 14.7 28.8996V20.5996H15.8C15.7 20.7996 15.7 20.8996 15.7 21.0996C15.7 21.4996 15.8 21.7996 16.1 22.0996C15.9 22.3996 15.7 22.6996 15.7 23.0996C15.7 23.4996 15.8 23.7996 16.1 24.0996C15.9 24.3996 15.7 24.6996 15.7 25.0996C15.7 25.4996 15.8 25.7996 16.1 26.0996C15.9 26.3996 15.7 26.6996 15.7 27.0996C15.7 27.6996 16.1 28.2996 16.7 28.4996V29.0996C16.7 29.3996 16.3 29.8996 15.7 29.8996ZM21.1 27.3996H17.2C16.9 27.3996 16.7 27.1996 16.7 26.8996C16.7 26.5996 16.9 26.3996 17.2 26.3996H21.1C21.4 26.3996 21.6 26.5996 21.6 26.8996C21.6 27.1996 21.4 27.3996 21.1 27.3996Z" fill="#148F0B"/>
</svg>
