<svg width="33" height="32" viewBox="0 0 33 32" fill="none" xmlns="http://www.w3.org/2000/svg">
<path fill-rule="evenodd" clip-rule="evenodd" d="M16.2 0.019863C15.3 0.319863 14.3 0.819863 13.4 1.31986C12.5 1.71986 9.6 3.31986 8.6 4.01986L6 6.01986C5.5 6.41986 4.9 6.81986 4.4 7.31986L3.3 8.31986C3.1 8.41986 3 8.61986 2.8 8.81986C2.4 9.21986 1.2 10.4199 0.8 10.8199L0.1 11.6199C0 11.7199 0 11.8199 0 12.0199C0.1 13.2199 0.3 14.4199 0.5 15.6199C1.3 19.9199 2.7 24.2199 4.5 27.7199C5 28.8199 5.5 29.6199 6.1 30.6199C6.2 30.8199 6.2 30.8199 6.4 30.8199C12.3 32.3199 19.5 32.3199 25.5 31.0199C25.7 31.0199 26.2 30.9199 26.3 30.8199C26.6 30.7199 28 27.8199 28.1 27.6199C29.9 24.0199 31.3 19.9199 32 15.4199C32.1 14.7199 32.4 12.5199 32.4 11.8199C32.4 11.6199 32.3 11.5199 32 11.2199C31.9 11.1199 31.9 11.0199 31.8 10.9199C31.4 10.4199 30 9.01986 29.5 8.61986L28.8 8.01986C28.7 7.91986 28.6 7.91986 28.5 7.81986C28.2 7.51986 27.8 7.11986 27.4 6.91986C27.3 6.81986 27.2 6.71986 27.1 6.71986C27 6.61986 26.9 6.61986 26.8 6.51986C24.4 4.51986 21.7 2.81986 18.8 1.41986L16.7 0.419863C16.7 0.219863 16.3 -0.080137 16.2 0.019863ZM17.3 18.0199C17.4 18.2199 17.4 18.4199 17.4 18.6199C17.4 18.9199 17.3 19.3199 17 19.5199C17.5 20.1199 18.1 20.8199 18.2 20.9199C18.6 21.4199 19.5 22.5199 19.9 23.0199L21.9 25.4199C22.1 25.6199 22.3 25.9199 22.5 26.1199L25.3 29.6199C25.1 29.5199 24.9 29.4199 24.7 29.2199C23 28.1199 21.2 26.8199 19.6 25.7199L16.1 23.4199L12.6 25.7199C12.2 26.0199 11.9 26.2199 11.5 26.5199C10.7 27.0199 10 27.5199 9.2 28.0199L6.9 29.5199L9.2 26.7199C9.3 26.6199 9.4 26.5199 9.5 26.3199L10.9 24.6199C11.3 24.1199 12.3 23.0199 12.6 22.5199L13.5 21.4199C13.6 21.3199 13.7 21.2199 13.8 21.1199L14.9 19.7199C14.9 19.7199 15 19.6199 15 19.5199C14.7 19.3199 14.5 18.9199 14.5 18.4199C14.5 18.1199 14.6 17.9199 14.7 17.7199L14.4 17.6199C13.9 17.4199 13.3 17.1199 12.8 16.9199C11.7 16.4199 10.7 16.0199 9.6 15.5199C9.2 15.3199 3.4 12.8199 3.2 12.7199C3.6 12.7199 4.2 12.9199 4.6 12.9199C13 14.2199 17.3 14.4199 25.8 13.2199C26.4 13.1199 28.5 12.7199 28.9 12.7199L25.7 14.1199C24.6 14.6199 23.5 15.0199 22.5 15.5199L17.3 18.0199ZM6 9.41986C6.4 9.31986 6.7 9.41986 6.8 9.71986C6.9 10.0199 6.6 10.2199 6.3 10.3199C5.9 10.4199 5.6 10.3199 5.5 10.0199C5.4 9.81986 5.7 9.51986 6 9.41986ZM9.4 9.61986C9.4 9.11986 9.6 8.71986 10 8.71986C10.3 8.71986 10.6 9.11986 10.7 9.51986C10.7 10.0199 10.5 10.4199 10.1 10.4199C9.7 10.5199 9.4 10.1199 9.4 9.61986ZM26.4 9.41986C26.8 9.51986 27 9.71986 27 10.0199C27 10.3199 26.6 10.4199 26.3 10.4199C25.9 10.3199 25.7 10.1199 25.7 9.81986C25.7 9.51986 26.1 9.41986 26.4 9.41986ZM16.1 1.31986C13.8 2.31986 11.6 3.51986 9.5 4.91986C9.3 5.01986 9.1 5.21986 9 5.31986C8.3 5.71986 7.4 6.41986 6.8 6.91986L5 8.31986C5 8.41986 4.9 8.51986 4.8 8.61986L3.8 9.51986C3.3 9.91986 2 11.2199 1.5 11.8199C1.3 12.1199 1.2 11.9199 1.3 12.4199C1.8 17.6199 3.2 22.4199 5.4 26.8199C5.8 27.6199 6.2 28.5199 6.7 29.2199C7 29.7199 6.7 29.6199 7.9 29.8199C12.9 30.8199 18.1 30.9199 23.2 30.1199C23.4 30.1199 25.4 29.7199 25.5 29.6199C25.7 29.5199 27 26.9199 27.1 26.6199C28.7 23.2199 30 19.5199 30.7 15.4199C30.8 15.0199 31.2 12.4199 31.1 12.2199C31.1 12.0199 29.5 10.5199 29.3 10.3199C28.7 9.71986 28.1 9.11986 27.4 8.51986C27.3 8.31986 27.2 8.21986 27 8.01986C26.5 7.51986 25.9 7.11986 25.5 6.71986L24.4 5.91986C23.2 5.11986 22.4 4.51986 21 3.71986C20.2 3.31986 19.4 2.81986 18.6 2.41986L16.7 1.51986C16.6 1.41986 16.3 1.21986 16.1 1.31986ZM16 9.71986C15.9 9.61986 15.2 9.51986 15 9.41986C14.9 9.61986 14.9 10.1199 14.2 10.1199C13.7 10.1199 13.6 9.81986 13.5 9.31986C13.4 8.81986 13.5 8.51986 13.9 8.31986C14.3 8.11986 14.7 8.21986 14.8 8.61986L15.8 8.41986C15.7 8.01986 15.4 7.71986 15.1 7.61986C14.4 7.31986 13.2 7.41986 12.7 8.01986C12 8.71986 12.2 10.7199 13.9 10.8199C15.1 11.0199 15.8 10.6199 16 9.71986ZM19.9 9.91986C19.8 9.81986 19.1 9.61986 18.9 9.51986C18.8 9.91986 18.6 10.1199 18.1 10.1199C17.7 10.0199 17.5 9.71986 17.5 9.21986C17.5 7.91986 18.7 8.11986 18.9 8.71986L19.9 8.61986C19.8 7.71986 18.7 7.41986 17.9 7.41986C16.9 7.51986 16.3 8.01986 16.3 9.01986C16.2 10.9199 18.3 11.0199 19 10.7199C19.5 10.6199 19.8 10.3199 19.9 9.91986ZM4.3 9.41986L5.3 12.5199L6.4 12.2199L6.1 11.1199C6.3 11.0199 6.6 11.0199 6.8 10.9199C7 10.8199 7.3 10.7199 7.4 10.5199C7.8 10.1199 7.7 9.41986 7.4 9.01986C6.8 8.41986 5.1 9.31986 4.3 9.41986ZM21.6 9.61986L21.8 7.91986L20.7 7.81986L20.3 11.0199L21.4 11.1199C21.7 10.7199 22.2 10.3199 22.5 10.0199C22.6 9.91986 22.8 9.71986 22.9 9.61986L22.6 11.3199C22.6 11.4199 22.6 11.3199 22.7 11.4199H22.8L23.6 11.5199L24.3 8.31986C23.4 8.21986 23.3 8.01986 23 8.31986L22.1 9.11986C22 9.21986 21.7 9.51986 21.6 9.61986ZM25.4 10.5199C25 10.6199 25 10.6199 24.6 11.0199C24.5 11.2199 24.1 11.5199 24 11.7199L25.2 12.0199C25.6 11.7199 26.3 10.8199 26.6 11.0199L26.3 12.3199L27.3 12.6199L28.3 9.51986C27.6 9.41986 26.4 8.81986 25.6 8.81986C24.7 8.81986 24.5 9.71986 24.8 10.2199C25.1 10.3199 25.1 10.4199 25.4 10.5199ZM10.3 8.01986C9.7 8.01986 9.3 8.11986 8.9 8.41986C7.7 9.31986 8.3 11.5199 10.1 11.4199C11.2 11.3199 12 10.9199 12.1 9.81986C12.1 8.71986 11.4 7.91986 10.3 8.01986Z" fill="#148F0B"/>
</svg>
