<svg width="30" height="30" viewBox="0 0 30 30" fill="none" xmlns="http://www.w3.org/2000/svg">
<rect width="30" height="30" fill="#C4E3C2"/>
<path fill-rule="evenodd" clip-rule="evenodd" d="M28.125 3.75C28.125 3.25272 27.9275 2.77581 27.5758 2.42417C27.2242 2.07254 26.7473 1.875 26.25 1.875H3.75C3.25272 1.875 2.77581 2.07254 2.42417 2.42417C2.07254 2.77581 1.875 3.25272 1.875 3.75V26.25C1.875 26.7473 2.07254 27.2242 2.42417 27.5758C2.77581 27.9275 3.25272 28.125 3.75 28.125H26.25C26.7473 28.125 27.2242 27.9275 27.5758 27.5758C27.9275 27.2242 28.125 26.7473 28.125 26.25V3.75ZM0 3.75C0 2.75544 0.395088 1.80161 1.09835 1.09835C1.80161 0.395088 2.75544 0 3.75 0L26.25 0C27.2446 0 28.1984 0.395088 28.9016 1.09835C29.6049 1.80161 30 2.75544 30 3.75V26.25C30 27.2446 29.6049 28.1984 28.9016 28.9016C28.1984 29.6049 27.2446 30 26.25 30H3.75C2.75544 30 1.80161 29.6049 1.09835 28.9016C0.395088 28.1984 0 27.2446 0 26.25V3.75ZM10.9762 9.64875C10.8002 9.47271 10.5615 9.37382 10.3125 9.37382C10.0635 9.37382 9.82479 9.47271 9.64875 9.64875C9.47271 9.82479 9.37382 10.0635 9.37382 10.3125C9.37382 10.5615 9.47271 10.8002 9.64875 10.9762L17.3306 18.6562H12.1406C11.892 18.6562 11.6535 18.755 11.4777 18.9308C11.3019 19.1067 11.2031 19.3451 11.2031 19.5938C11.2031 19.8424 11.3019 20.0808 11.4777 20.2567C11.6535 20.4325 11.892 20.5312 12.1406 20.5312H19.5938C19.8424 20.5312 20.0808 20.4325 20.2567 20.2567C20.4325 20.0808 20.5312 19.8424 20.5312 19.5938V12.1406C20.5312 11.892 20.4325 11.6535 20.2567 11.4777C20.0808 11.3019 19.8424 11.2031 19.5938 11.2031C19.3451 11.2031 19.1067 11.3019 18.9308 11.4777C18.755 11.6535 18.6562 11.892 18.6562 12.1406V17.3306L10.9762 9.64875Z" fill="white"/>
</svg>
