<svg width="30" height="30" viewBox="0 0 30 30" fill="none" xmlns="http://www.w3.org/2000/svg">
<path fill-rule="evenodd" clip-rule="evenodd" d="M12.6992 9.2998C11.8992 9.2998 11.1992 9.9998 11.1992 10.7998H12.1992C12.1992 10.4998 12.3992 10.2998 12.6992 10.2998C12.9992 10.2998 13.1992 10.4998 13.1992 10.7998H14.1992C14.1992 9.9998 13.5992 9.2998 12.6992 9.2998Z" fill="#148F0B"/>
<path fill-rule="evenodd" clip-rule="evenodd" d="M16.6992 9.2998C15.8992 9.2998 15.1992 9.9998 15.1992 10.7998H16.1992C16.1992 10.4998 16.3992 10.2998 16.6992 10.2998C16.9992 10.2998 17.1992 10.4998 17.1992 10.7998H18.1992C18.0992 9.9998 17.4992 9.2998 16.6992 9.2998Z" fill="#148F0B"/>
<path fill-rule="evenodd" clip-rule="evenodd" d="M14.6992 22.5C13.5992 22.5 12.6992 23.4 12.6992 24.5C12.6992 25.6 13.5992 26.5 14.6992 26.5C15.7992 26.5 16.6992 25.6 16.6992 24.5C16.6992 23.4 15.7992 22.5 14.6992 22.5ZM14.6992 25.5C14.1992 25.5 13.6992 25.1 13.6992 24.5C13.6992 24 14.0992 23.5 14.6992 23.5C15.1992 23.5 15.6992 23.9 15.6992 24.5C15.6992 25 15.1992 25.5 14.6992 25.5Z" fill="#148F0B"/>
<path fill-rule="evenodd" clip-rule="evenodd" d="M26.5 28.4V22C26.5 17.9 23.2 14.6 19.1 14.6H18.6C18.8 14.4 18.9 14.3 19.1 14.1H19.6C21 14.1 22 13 22 11.6V10.7C22.6 10.3 23 9.6 23 8.9C23 8.1 22.6 7.5 22 7.1C22 3.2 18.7 0 14.7 0C10.7 0 7.4 3.2 7.4 7.2C6.8 7.6 6.4 8.3 6.4 9C6.4 10.2 7.4 11.2 8.6 11.2H8.9C9.1 12.6 9.8 13.8 10.8 14.6H10.3C6.2 14.6 2.9 17.9 2.9 22V28.4H0V29.4H3.4H5.8H23.4H26H29.4V28.4H26.5ZM21.1 11.8C21.1 12.5 20.5 13.2 19.8 13.2C20.1 12.6 20.4 12 20.5 11.3H20.8C20.9 11.3 21 11.3 21 11.3V11.8H21.1ZM22.1 9.1C22.1 9.8 21.6 10.3 20.9 10.3H20.7V7.8H20.9C21.5 7.8 22.1 8.4 22.1 9.1ZM8.8 10.3H8.6C7.9 10.3 7.4 9.8 7.4 9.1C7.4 8.4 7.9 7.9 8.6 7.9H8.8V10.3ZM8.6 6.9C8.5 6.9 8.5 6.9 8.4 6.9C8.6 3.6 11.4 1 14.7 1C18.1 1 20.8 3.6 21 6.9C20.9 6.9 20.9 6.9 20.8 6.9H20.5C20 4.1 17.6 2 14.7 2C11.8 2 9.4 4.1 8.9 6.9H8.6ZM19.6 7.8C16.1 7.7 13.7 6.2 13.7 4.9C13.7 4.6 13.5 4.4 13.2 4.4C12.9 4.4 12.7 4.6 12.7 4.9C12.7 6.1 11.4 7.1 9.8 7.3C10.1 4.8 12.1 2.9 14.7 2.9C17.4 2.9 19.6 5.1 19.6 7.8ZM9.8 10.3V8.3C11.3 8.2 12.6 7.4 13.3 6.4C14.3 7.8 16.7 8.7 19.6 8.8V10.3C19.6 11.4 19.2 12.4 18.6 13.2H14.7V14.2H17.6C17.3 14.4 17 14.6 16.7 14.7C15.4 15.3 13.9 15.3 12.7 14.7C11 14 9.8 12.3 9.8 10.3ZM13.2 16C13.7 16.1 14.2 16.2 14.7 16.2C15.2 16.2 15.7 16.1 16.2 16L14.7 19L13.2 16ZM13.9 19.6H13L11 15.7H11.9L13.9 19.6ZM17.5 15.7H18.4L16.4 19.6H15.5L17.5 15.7ZM5.4 22.1V28.5H3.9V22.1C3.9 18.7 6.6 15.9 10 15.7L12 19.6H7.8C6.5 19.6 5.4 20.7 5.4 22.1ZM23 28.4H6.4V22C6.4 21.2 7.1 20.5 7.9 20.5H12.8H14.8H16.8H21.7C22.5 20.5 23.2 21.2 23.2 22V28.4H23ZM25.5 28.4H24V22C24 20.6 22.9 19.5 21.5 19.5H17.4L19.4 15.6C22.8 15.8 25.5 18.5 25.5 22V28.4Z" fill="#148F0B"/>
<path fill-rule="evenodd" clip-rule="evenodd" d="M22.0996 24H21.0996V27.4H22.0996V24Z" fill="#148F0B"/>
<path fill-rule="evenodd" clip-rule="evenodd" d="M22.0996 22.0996H21.0996V22.9996H22.0996V22.0996Z" fill="#148F0B"/>
<path fill-rule="evenodd" clip-rule="evenodd" d="M26.5 4.40039H25.5V5.40039H26.5V4.40039Z" fill="#148F0B"/>
<path fill-rule="evenodd" clip-rule="evenodd" d="M26.5 6.40039H25.5V7.40039H26.5V6.40039Z" fill="#148F0B"/>
<path fill-rule="evenodd" clip-rule="evenodd" d="M26.5 8.2998H25.5V9.2998H26.5V8.2998Z" fill="#148F0B"/>
<path fill-rule="evenodd" clip-rule="evenodd" d="M3.90039 10.2998H2.90039V11.2998H3.90039V10.2998Z" fill="#148F0B"/>
<path fill-rule="evenodd" clip-rule="evenodd" d="M3.90039 12.2998H2.90039V13.1998H3.90039V12.2998Z" fill="#148F0B"/>
<path fill-rule="evenodd" clip-rule="evenodd" d="M3.90039 14.2002H2.90039V15.2002H3.90039V14.2002Z" fill="#148F0B"/>
</svg>
