<svg width="30" height="36" viewBox="0 0 30 36" fill="none" xmlns="http://www.w3.org/2000/svg">
<path d="M29.052 9.27344L20.2254 0.867188C19.9793 0.632813 19.6471 0.5 19.2984 0.5H1.875C1.14902 0.5 0.5625 1.05859 0.5625 1.75V34.25C0.5625 34.9414 1.14902 35.5 1.875 35.5H28.125C28.851 35.5 29.4375 34.9414 29.4375 34.25V10.1602C29.4375 9.82812 29.298 9.50781 29.052 9.27344ZM26.4105 10.7344H18.6914V3.38281L26.4105 10.7344ZM26.4844 32.6875H3.51562V3.3125H15.9023V11.75C15.9023 12.1851 16.0838 12.6024 16.4069 12.9101C16.73 13.2178 17.1681 13.3906 17.625 13.3906H26.4844V32.6875ZM16.3125 16.4375C16.3125 16.2656 16.1648 16.125 15.9844 16.125H14.0156C13.8352 16.125 13.6875 16.2656 13.6875 16.4375V20.6562H9.25781C9.07734 20.6562 8.92969 20.7969 8.92969 20.9688V22.8438C8.92969 23.0156 9.07734 23.1562 9.25781 23.1562H13.6875V27.375C13.6875 27.5469 13.8352 27.6875 14.0156 27.6875H15.9844C16.1648 27.6875 16.3125 27.5469 16.3125 27.375V23.1562H20.7422C20.9227 23.1562 21.0703 23.0156 21.0703 22.8438V20.9688C21.0703 20.7969 20.9227 20.6562 20.7422 20.6562H16.3125V16.4375Z" fill="black"/>
</svg>
