<svg width="23" height="29" viewBox="0 0 23 29" fill="none" xmlns="http://www.w3.org/2000/svg">
<path fill-rule="evenodd" clip-rule="evenodd" d="M2.14444 0.0444444C1.14444 0.244444 0.644444 0.744444 0.244444 1.44444C-0.0555556 2.14444 0.0444444 3.44444 0.0444444 4.34444V23.4444C0.0444444 24.4444 -0.0555556 25.6444 0.0444444 26.5444C0.144444 27.5444 0.644444 28.1444 1.24444 28.4444C1.94444 28.8444 3.14444 28.7444 4.14444 28.7444H16.8444C18.9444 28.7444 20.8444 29.1444 21.8444 27.3444C22.2444 26.6444 22.0444 25.2444 22.0444 24.4444V7.04444C22.0444 6.24444 22.1444 6.14444 21.7444 5.74444C20.6444 4.64444 19.6444 3.64444 18.5444 2.54444C18.0444 2.04444 16.7444 0.644444 16.2444 0.244444C15.9444 -0.0555556 15.2444 0.0444444 14.8444 0.0444444H5.24444C4.34444 0.0444444 2.94444 -0.0555556 2.14444 0.0444444ZM16.6444 5.74444C17.7444 5.84444 19.0444 5.74444 20.2444 5.74444C20.5444 5.74444 20.3444 5.74444 20.3444 5.64444C20.2444 5.64444 20.2444 5.64444 20.2444 5.64444C20.1444 5.64444 20.1444 5.64444 20.2444 5.64444C20.1444 5.64444 20.1444 5.64444 20.2444 5.64444C20.1444 5.64444 20.1444 5.64444 20.2444 5.64444C20.1444 5.64444 20.1444 5.64444 20.2444 5.64444C20.1444 5.64444 20.1444 5.64444 20.2444 5.64444C20.1444 5.64444 20.1444 5.64444 20.2444 5.64444C20.1444 5.64444 20.1444 5.64444 20.2444 5.64444C20.1444 5.64444 20.1444 5.64444 20.2444 5.64444C20.1444 5.64444 20.1444 5.64444 20.2444 5.64444C20.1444 5.64444 20.1444 5.64444 20.2444 5.64444C20.1444 5.64444 20.1444 5.64444 20.2444 5.64444C20.1444 5.64444 20.1444 5.64444 20.2444 5.64444C20.1444 5.64444 20.1444 5.64444 20.2444 5.64444C20.1444 5.64444 20.1444 5.64444 20.2444 5.64444C20.1444 5.64444 20.1444 5.64444 20.2444 5.64444C20.1444 5.64444 20.1444 5.64444 20.2444 5.64444C20.1444 5.64444 20.1444 5.64444 20.2444 5.64444C20.1444 5.64444 20.1444 5.64444 20.2444 5.64444C20.1444 5.64444 20.1444 5.64444 20.2444 5.64444C20.1444 5.64444 20.1444 5.64444 20.2444 5.64444C20.1444 5.64444 20.1444 5.64444 20.2444 5.64444C20.1444 5.64444 20.1444 5.64444 20.2444 5.64444C20.1444 5.64444 20.1444 5.64444 20.2444 5.64444C20.1444 5.64444 20.1444 5.64444 20.2444 5.64444C20.1444 5.64444 20.1444 5.64444 20.2444 5.64444C20.1444 5.64444 20.1444 5.64444 20.2444 5.64444C20.1444 5.64444 20.1444 5.64444 20.2444 5.64444C20.1444 5.64444 20.1444 5.64444 20.2444 5.64444C20.1444 5.64444 20.1444 5.64444 20.2444 5.64444C20.1444 5.64444 20.1444 5.64444 20.2444 5.64444C20.1444 5.64444 20.1444 5.64444 20.2444 5.64444C20.1444 5.64444 20.1444 5.64444 20.2444 5.64444C20.1444 5.64444 20.1444 5.64444 20.2444 5.64444C20.1444 5.64444 20.1444 5.64444 20.2444 5.64444C20.1444 5.64444 20.1444 5.64444 20.2444 5.64444C20.1444 5.64444 20.1444 5.64444 20.2444 5.64444C20.1444 5.64444 20.1444 5.64444 20.2444 5.64444C20.1444 5.64444 20.1444 5.64444 20.2444 5.64444C20.1444 5.64444 20.1444 5.64444 20.2444 5.64444C20.1444 5.64444 20.1444 5.64444 20.2444 5.64444C20.1444 5.64444 20.1444 5.64444 20.2444 5.64444C20.1444 5.64444 20.1444 5.64444 20.2444 5.64444C20.1444 5.64444 20.1444 5.64444 20.2444 5.64444C20.1444 5.64444 20.1444 5.64444 20.2444 5.64444C20.1444 5.64444 20.1444 5.64444 20.2444 5.64444C20.1444 5.64444 20.1444 5.64444 20.2444 5.64444C20.1444 5.64444 20.1444 5.64444 20.2444 5.64444C20.1444 5.64444 20.1444 5.64444 20.2444 5.64444C20.1444 5.64444 20.1444 5.64444 20.2444 5.64444C20.1444 5.64444 20.1444 5.64444 20.2444 5.64444C20.1444 5.64444 20.1444 5.64444 20.2444 5.64444C20.1444 5.64444 20.1444 5.64444 20.2444 5.64444C20.1444 5.64444 20.1444 5.64444 20.2444 5.64444C20.1444 5.64444 20.1444 5.64444 20.2444 5.64444C20.1444 5.64444 20.1444 5.64444 20.2444 5.64444C20.1444 5.64444 20.1444 5.64444 20.2444 5.64444C20.1444 5.64444 20.1444 5.64444 20.2444 5.64444C20.1444 5.64444 20.1444 5.64444 20.2444 5.64444C20.1444 5.64444 20.1444 5.64444 20.2444 5.64444C20.1444 5.64444 20.1444 5.64444 20.2444 5.64444C20.1444 5.64444 20.1444 5.64444 20.2444 5.64444C20.1444 5.64444 20.1444 5.64444 20.2444 5.64444C20.1444 5.64444 20.1444 5.64444 20.2444 5.64444C20.1444 5.64444 20.1444 5.64444 20.2444 5.64444C20.1444 5.64444 20.1444 5.64444 20.2444 5.64444C20.1444 5.64444 20.1444 5.64444 20.2444 5.64444C20.1444 5.64444 20.1444 5.64444 20.2444 5.64444C20.1444 5.64444 20.1444 5.64444 20.2444 5.64444C20.1444 5.64444 20.1444 5.64444 20.2444 5.64444C20.1444 5.64444 20.1444 5.64444 20.2444 5.64444C20.1444 5.64444 20.1444 5.64444 20.2444 5.64444C20.1444 5.64444 20.1444 5.64444 20.2444 5.64444C20.1444 5.64444 20.1444 5.64444 20.2444 5.64444C20.1444 5.64444 20.1444 5.64444 20.2444 5.64444C20.1444 5.64444 20.1444 5.64444 20.2444 5.64444C20.1444 5.64444 20.1444 5.64444 20.2444 5.64444C20.1444 5.64444 20.1444 5.64444 20.2444 5.64444C20.1444 5.64444 20.1444 5.64444 20.2444 5.64444C20.1444 5.64444 20.1444 5.64444 20.2444 5.64444C20.1444 5.64444 20.1444 5.64444 20.2444 5.64444C20.1444 5.64444 20.1444 5.64444 20.2444 5.64444C20.1444 5.64444 20.1444 5.64444 20.2444 5.64444C20.1444 5.64444 20.1444 5.64444 20.2444 5.64444C16.3444 2.54444 16.0444 5.24444 16.6444 5.74444ZM21.1444 26.5444V6.84444H16.9444C16.7444 6.84444 16.8444 6.84444 16.8444 6.74444C16.2444 6.84444 15.7444 6.24444 15.5444 5.74444C15.5444 5.74444 15.5444 5.74444 15.4444 5.64444C15.3444 5.34444 15.4444 1.24444 15.4444 1.04444C13.2444 1.04444 11.0444 1.04444 8.84444 1.04444C6.64444 1.04444 4.44444 1.04444 2.24444 1.04444C1.84444 1.04444 1.44444 1.34444 1.24444 1.54444C0.944444 2.04444 1.04444 2.24444 1.04444 2.84444V24.5444C1.04444 25.4444 0.844444 26.6444 1.34444 27.3444C1.84444 28.0444 2.84444 27.8444 3.94444 27.8444H19.4444C20.0444 27.8444 20.2444 27.8444 20.6444 27.5444C20.8444 27.3444 21.1444 26.9444 21.1444 26.5444Z" fill="#148F0B"/>
<path fill-rule="evenodd" clip-rule="evenodd" d="M10.4448 7.14424L9.74483 6.44424C9.64483 6.54424 9.54483 6.64424 9.44483 6.74424C9.34483 6.84424 9.34484 6.94424 9.14484 6.94424C9.14484 6.44424 9.04484 6.14424 8.64484 5.94424C8.34484 5.74424 7.74484 5.84424 7.34484 5.84424C3.54484 5.84424 3.44484 5.34424 3.44484 7.94424C3.44484 8.44424 3.34484 10.5442 3.44484 10.9442C3.74484 11.8442 4.74483 11.6442 5.74483 11.6442C6.34483 11.6442 8.24484 11.7442 8.64484 11.5442C8.94484 11.3442 9.14484 11.0442 9.14484 10.5442C9.14484 10.0442 9.14484 9.54424 9.14484 9.04424C9.14484 8.44424 9.04484 8.64424 9.64484 8.04424C9.94484 7.64424 10.1448 7.34424 10.4448 7.14424ZM7.14483 10.1442C7.14483 10.1442 7.04484 10.0442 6.94484 10.0442C6.74484 9.94424 5.54484 8.64424 5.44484 8.54424L6.14483 7.84424L6.24483 7.94424L7.34484 8.94424C7.54484 8.64424 7.74483 8.44424 8.04484 8.14424C8.24483 7.94424 8.24483 7.94424 8.24483 7.54424C8.24483 7.24424 8.24483 7.04424 8.24483 6.74424C7.94483 6.64424 4.64484 6.64424 4.44484 6.74424V10.4442H8.24483V9.54424V9.34424L7.14483 10.1442Z" fill="#148F0B"/>
<path fill-rule="evenodd" clip-rule="evenodd" d="M9.04444 24.4449C9.24444 23.8449 9.14444 22.5449 9.14444 21.8449C9.34444 21.6449 9.54444 21.4449 9.74444 21.2449L10.4444 20.6449C10.3444 20.4449 9.94444 20.0449 9.74444 19.9449C9.64444 20.0449 9.54444 20.0449 9.44444 20.1449C9.34444 20.2449 9.34444 20.2449 9.34444 20.2449L9.24444 20.3449C9.14444 20.2449 9.24444 20.0449 9.14444 19.6449C8.74444 19.0449 8.34444 19.1449 7.44444 19.1449C6.64444 19.1449 5.94444 19.1449 5.14444 19.1449C3.24444 19.1449 3.54444 19.6449 3.54444 22.0449C3.54444 22.4449 3.44444 23.9449 3.54444 24.2449C3.74444 24.9449 4.34444 24.9449 5.14444 24.9449C5.54444 24.9449 8.24444 24.9449 8.54444 24.9449C8.74444 24.9449 8.84444 24.8449 8.94444 24.7449C8.94444 24.6449 8.94444 24.5449 9.04444 24.4449ZM4.34444 24.0449H8.14444V22.8449C7.64444 23.0449 7.54444 24.0449 6.74444 23.2449L6.14444 22.6449C6.04444 22.5449 5.94444 22.4449 5.74444 22.2449C5.54444 22.0449 5.44444 22.0449 5.44444 21.8449C5.64444 21.6449 5.94444 21.3449 6.14444 21.2449L7.24444 22.3449L8.14444 21.4449C8.24444 21.1449 8.14444 20.5449 8.14444 20.2449H4.34444V24.0449Z" fill="#148F0B"/>
<path fill-rule="evenodd" clip-rule="evenodd" d="M3.44449 17.644C3.74449 18.044 3.74449 18.044 4.04449 18.244C4.64449 18.344 6.24449 18.344 6.94449 18.344C7.84449 18.344 9.04449 18.544 9.14449 17.544C9.14449 17.144 9.14449 15.244 9.24449 15.044C9.34449 14.944 10.2445 14.144 10.4445 13.844L10.3445 13.644C10.2445 13.544 10.2445 13.544 10.1445 13.444C10.0445 13.344 9.94449 13.244 9.74449 13.144C9.74449 13.244 9.74449 13.244 9.64449 13.244C9.54449 13.344 9.24449 13.644 9.14449 13.744C9.14449 13.444 9.14449 13.344 9.04449 13.044C8.44449 12.344 8.14449 12.544 6.74449 12.544C6.24449 12.544 4.34449 12.444 3.94449 12.644C3.14449 13.044 3.34449 13.944 3.34449 14.944C3.44449 15.444 3.34449 17.344 3.44449 17.644ZM4.44449 17.344H8.24449V16.144C8.04449 16.344 7.84449 16.544 7.64449 16.744C7.24449 17.044 6.94449 16.744 6.74449 16.544C6.44449 16.244 5.74449 15.544 5.54449 15.244L6.24449 14.644C6.44449 14.644 7.04449 15.544 7.34449 15.644L8.24449 14.744V13.544H4.44449V17.344Z" fill="#148F0B"/>
<path fill-rule="evenodd" clip-rule="evenodd" d="M12.9453 15.3443H17.7453V14.4443H13.0453L12.9453 15.3443Z" fill="#148F0B"/>
<path fill-rule="evenodd" clip-rule="evenodd" d="M13.0453 11.5445H17.7453V10.6445H12.9453L13.0453 11.5445Z" fill="#148F0B"/>
<path fill-rule="evenodd" clip-rule="evenodd" d="M12.9453 18.2447H17.7453V17.3447H13.0453L12.9453 18.2447Z" fill="#148F0B"/>
<path fill-rule="evenodd" clip-rule="evenodd" d="M13.0453 8.64414H17.7453V7.74414H12.9453L13.0453 8.64414Z" fill="#148F0B"/>
<path fill-rule="evenodd" clip-rule="evenodd" d="M12.9453 24.9449H17.7453V24.0449H13.0453L12.9453 24.9449Z" fill="#148F0B"/>
<path fill-rule="evenodd" clip-rule="evenodd" d="M13.0449 22.0445H17.7449V21.1445H13.0449V22.0445Z" fill="#148F0B"/>
<path fill-rule="evenodd" clip-rule="evenodd" d="M4.04531 18.2445C3.74531 18.0445 3.74531 18.0445 3.54531 17.7445L3.44531 17.6445L3.64531 17.9445C3.84531 18.1445 3.84531 18.1445 4.04531 18.2445Z" fill="#148F0B"/>
</svg>
