<svg width="58" height="58" viewBox="0 0 58 58" xmlns="http://www.w3.org/2000/svg">
<path d="M30.0078 12.7998V37.5498L39.7578 27.7998L42.0078 29.7918L28.5078 43.2918L15.0078 29.7918L17.2578 27.7998L27.0078 37.5498V12.7998H30.0078ZM28.5078 57.7998C20.9491 57.7998 13.7001 54.7971 8.35527 49.4524C3.01048 44.1076 0.0078125 36.8585 0.0078125 29.2998C0.0078125 21.7411 3.01048 14.4921 8.35527 9.14726C13.7001 3.80247 20.9491 0.799805 28.5078 0.799805C36.0665 0.799805 43.3156 3.80247 48.6603 9.14726C54.0051 14.4921 57.0078 21.7411 57.0078 29.2998C57.0078 36.8585 54.0051 44.1076 48.6603 49.4524C43.3156 54.7971 36.0665 57.7998 28.5078 57.7998ZM28.5078 54.7998C35.2708 54.7998 41.7568 52.1132 46.539 47.331C51.3212 42.5489 54.0078 36.0628 54.0078 29.2998C54.0078 22.5368 51.3212 16.0508 46.539 11.2686C41.7568 6.48641 35.2708 3.79981 28.5078 3.79981C21.7448 3.79981 15.2588 6.48641 10.4766 11.2686C5.69441 16.0508 3.00781 22.5368 3.00781 29.2998C3.00781 36.0628 5.69441 42.5489 10.4766 47.331C15.2588 52.1132 21.7448 54.7998 28.5078 54.7998Z" />
</svg>
