<svg width="62" height="62" viewBox="0 0 62 62" fill="none" xmlns="http://www.w3.org/2000/svg">
<path opacity="0.5" d="M49.4713 4.84375H12.5312C7.0084 4.84375 2.53125 9.3209 2.53125 14.8438V47.1568C2.53125 52.6796 7.0084 57.1568 12.5312 57.1568H49.4713C54.9941 57.1568 59.4713 52.6796 59.4713 47.1568V14.8438C59.4713 9.3209 54.9941 4.84375 49.4713 4.84375Z" fill="white" stroke="#169B00"/>
<path fill-rule="evenodd" clip-rule="evenodd" d="M49.0294 35.9686H26.3047C22.4924 28.1834 19.0725 19.9895 15.447 12H7V14.9914H13.4474C17.0728 22.9809 20.4741 30.989 23.9127 38.96L49.0294 38.7742C49.2349 38.1796 49.0294 36.9905 49.0294 35.9686Z" fill="#2A2A2A"/>
<path fill-rule="evenodd" clip-rule="evenodd" d="M43.6113 41.9703C42.0041 42.379 40.3969 43.7725 40.1913 45.3704C39.5746 48.3619 41.4061 50.5729 43.6113 50.9631C47.218 51.3533 49.6288 48.5663 49.0308 45.3704C48.6383 43.1594 46.2276 41.5615 43.6113 41.9703Z" fill="#2A2A2A"/>
<path fill-rule="evenodd" clip-rule="evenodd" d="M28.5289 41.9703C26.9217 42.379 25.3146 43.7725 25.109 45.3704C24.4923 48.3619 26.5106 50.5729 28.5289 50.9631C32.1544 51.3533 34.5651 48.5663 34.1727 45.3704C33.556 43.1594 31.1265 41.5615 28.5289 41.9703Z" fill="#2A2A2A"/>
<path fill-rule="evenodd" clip-rule="evenodd" d="M27.9135 32.9767H49.2366C50.0962 30.6727 55.983 18.5212 55.983 17.9824L39.3693 18.001H22.1016L23.092 20.9738H28.7358L29.9318 23.9839H24.4936L25.5028 26.9939H31.1279L32.3239 29.9667H26.9044L27.9135 32.9767Z" fill="#2A2A2A"/>
</svg>
