<svg width="60" height="50" viewBox="0 0 60 50" xmlns="http://www.w3.org/2000/svg">
<path d="M0.935015 0.0458908C0.925841 0.0703545 0.892202 0.0917625 0.858562 0.0917625C0.775994 0.0917625 0.457951 0.27219 0.350917 0.382282C0.243884 0.489315 0.0603975 0.807362 0.0603975 0.886871C0.0603975 0.91745 0.0481651 0.954147 0.0298165 0.963322C-0.00993883 0.987789 -0.00993883 1.55048 0.0298165 1.57494C0.0481651 1.58412 0.0603975 1.61776 0.0603975 1.6514C0.0603975 1.81042 0.369266 2.20797 0.595566 2.34253C0.86162 2.49544 0.739296 2.49238 4.12767 2.51073C5.88608 2.5199 7.37232 2.53825 7.43043 2.55048C7.66896 2.59636 7.79128 2.63611 8.02676 2.73703C8.51911 2.94804 8.91361 3.24467 9.26223 3.66364C9.46406 3.90828 9.68119 4.2722 9.72706 4.44957C9.75153 4.53825 9.78516 4.66364 9.84633 4.8777C9.86468 4.93581 9.8922 5.03673 9.91055 5.09789C9.9503 5.24468 9.99617 5.40064 10.0329 5.52602C10.0482 5.58107 10.0757 5.67587 10.091 5.73397C10.1093 5.79208 10.1368 5.88994 10.1521 5.94804C10.1705 6.00615 10.195 6.10095 10.2102 6.15294C10.2255 6.20798 10.2836 6.39758 10.3356 6.57495C10.3876 6.75233 10.4457 6.94193 10.461 6.99392C10.4763 7.04896 10.5008 7.14071 10.5161 7.19269C10.5313 7.24774 10.5894 7.43734 10.6414 7.61471C10.6934 7.79208 10.7515 7.98168 10.7668 8.03367C10.7821 8.08872 10.8066 8.18046 10.8219 8.23245C10.8372 8.28749 10.8953 8.4771 10.9472 8.65447C10.9992 8.83184 11.0573 9.0245 11.0726 9.0826C11.1246 9.26915 11.1552 9.36395 11.2531 9.69423C11.305 9.8716 11.3601 10.0551 11.3754 10.1071C11.3907 10.156 11.4304 10.2936 11.4671 10.4129C11.5038 10.5291 11.5466 10.6759 11.5619 10.734C11.6139 10.9205 11.6445 11.0153 11.7424 11.3456C11.7943 11.523 11.8524 11.7156 11.8677 11.7737C11.9197 11.9603 11.9503 12.0551 12.0482 12.3854C12.1001 12.5627 12.1583 12.7523 12.1735 12.8043C12.1888 12.8594 12.2133 12.9511 12.2286 13.0031C12.2439 13.0581 12.302 13.2477 12.354 13.4251C12.406 13.6025 12.461 13.786 12.4763 13.838C12.4916 13.8869 12.5313 14.0245 12.568 14.1438C12.6047 14.26 12.6475 14.4068 12.6628 14.4649C12.7148 14.6514 12.7454 14.7462 12.8433 15.0765C12.8953 15.2539 12.9534 15.4435 12.9686 15.4955C12.9839 15.5505 13.0084 15.6422 13.0237 15.6942C13.039 15.7493 13.0971 15.9389 13.1491 16.1163C13.2011 16.2936 13.2592 16.4832 13.2745 16.5352C13.2898 16.5903 13.3142 16.682 13.3295 16.734C13.3448 16.789 13.4029 16.9786 13.4549 17.156C13.5069 17.3334 13.565 17.526 13.5803 17.5841C13.6323 17.7707 13.6628 17.8655 13.7607 18.1958C13.8127 18.3731 13.8708 18.5627 13.8861 18.6147C13.9014 18.6698 13.9258 18.7615 13.9411 18.8135C13.9564 18.8686 14.0268 19.1071 14.0971 19.3426C14.1674 19.578 14.2378 19.8196 14.2531 19.8777C14.305 20.0643 14.3356 20.1591 14.4335 20.4894C14.4855 20.6667 14.5436 20.8563 14.5589 20.9083C14.5742 20.9634 14.6017 21.0582 14.617 21.1163C14.6353 21.1744 14.6628 21.2722 14.6781 21.3303C14.6965 21.3884 14.7209 21.4832 14.7362 21.5352C14.7515 21.5903 14.8219 21.8288 14.8922 22.0643C14.9625 22.2998 15.0329 22.5383 15.0482 22.5903C15.0635 22.6453 15.091 22.7401 15.1063 22.7982C15.1246 22.8563 15.1521 22.9572 15.1705 23.0184C15.2286 23.2264 15.2531 23.312 15.3815 23.7462C15.4518 23.9817 15.5222 24.2233 15.5375 24.2814C15.5558 24.3395 15.5803 24.4343 15.5986 24.4863C15.6353 24.6147 15.6781 24.7707 15.7209 24.9144C15.7362 24.9787 15.7638 25.0704 15.779 25.1224C15.7943 25.1713 15.8188 25.2631 15.8372 25.3212C15.8524 25.3793 15.88 25.4771 15.8983 25.5352C15.9136 25.5933 15.9411 25.6912 15.9595 25.7493C15.9748 25.8074 16.0023 25.9053 16.0206 25.9634C16.0359 26.0215 16.0665 26.1224 16.0818 26.1836C16.1001 26.2478 16.1307 26.3517 16.1491 26.4129C16.1644 26.4771 16.1919 26.575 16.2102 26.627C16.2255 26.682 16.2531 26.7768 16.2683 26.8349C16.2867 26.893 16.3142 26.9909 16.3295 27.049C16.3479 27.1071 16.3754 27.208 16.3937 27.2692C16.409 27.3334 16.4365 27.4313 16.4549 27.4832C16.4702 27.5383 16.4977 27.6362 16.516 27.6973C16.5313 27.7615 16.5589 27.8533 16.5742 27.9053C16.62 28.0643 16.669 28.2386 16.6965 28.3487C16.7118 28.4068 16.7393 28.5108 16.7576 28.5781C16.776 28.6453 16.8035 28.7493 16.8188 28.8074C16.8341 28.8655 16.8738 29.0245 16.9105 29.1591C16.9472 29.2936 16.9901 29.4588 17.0023 29.5261C17.0176 29.5933 17.042 29.7034 17.0604 29.7707C17.0879 29.8839 17.1032 29.942 17.1858 30.2294C17.2041 30.2875 17.2286 30.3823 17.2439 30.4343C17.3998 31.0001 17.7576 31.8594 18.1093 32.5169C18.932 34.046 20.1521 35.2203 21.513 35.7952C21.5803 35.8227 21.6628 35.8594 21.6965 35.8747C21.7301 35.8869 21.8555 35.9297 21.9717 35.9664C22.091 36.0031 22.2133 36.0429 22.2469 36.0582C22.3387 36.0918 22.6506 36.156 23.0268 36.2172C23.2011 36.2447 26.2194 36.2539 35.4274 36.2539H47.5986L47.8066 36.156C48.4212 35.8625 48.6965 35.1193 48.409 34.5108C48.2592 34.1927 48.0176 33.9634 47.7087 33.8411C47.5833 33.7921 46.8463 33.7891 35.7515 33.7891C25.6017 33.7921 23.8738 33.786 23.5466 33.7463C23.1154 33.6973 22.8677 33.6453 22.6904 33.5719C22.6475 33.5536 22.5864 33.5291 22.5527 33.5169C22.1185 33.3487 21.669 33.049 21.2836 32.6606C21.0573 32.4313 20.6414 31.9267 20.6414 31.8778C20.6414 31.8686 20.6017 31.8044 20.5527 31.734C20.3723 31.471 20.0757 30.893 19.935 30.5261C19.9197 30.4894 19.8953 30.4282 19.88 30.3885C19.8647 30.3518 19.8341 30.2661 19.8127 30.1988C19.7913 30.1316 19.7607 30.0582 19.7423 30.0368C19.7271 30.0154 19.724 29.9909 19.7332 29.9787C19.7454 29.9695 25.7943 29.9634 33.1766 29.9664C46.5436 29.9725 47.1613 29.9695 47.8891 29.8716C49.1063 29.7096 49.9075 29.2906 50.5405 28.4771C50.9778 27.9206 51.7056 26.6239 52.253 25.4282C52.3234 25.2753 52.4365 25.0337 52.5038 24.8839C52.828 24.1927 52.8738 24.0918 52.8738 24.0826C52.8738 24.0765 52.9258 23.9572 52.9931 23.8166C53.0573 23.679 53.2377 23.2814 53.3937 22.9358C53.5497 22.5903 53.7423 22.1652 53.8218 21.9878C54.0084 21.5811 54.5405 20.3854 55.4243 18.3945C55.8066 17.5352 56.1582 16.7493 56.2102 16.6423C56.2592 16.5352 56.2989 16.4435 56.2989 16.4343C56.2989 16.4282 56.354 16.3028 56.4212 16.1591C56.4885 16.0153 56.5436 15.89 56.5436 15.8838C56.5436 15.8716 58.1766 12.1958 58.3448 11.8257C58.3968 11.7126 58.4396 11.6147 58.4396 11.6086C58.4396 11.6025 58.4946 11.474 58.565 11.3242C58.6873 11.0551 58.7118 11 58.8371 10.7187C58.9014 10.5688 58.9656 10.4282 59.1215 10.0918C59.305 9.68811 59.357 9.56884 59.357 9.53215C59.357 9.51074 59.3692 9.48016 59.3815 9.46181C59.3968 9.44652 59.4396 9.33031 59.4763 9.20493C59.516 9.07955 59.5588 8.94805 59.5711 8.91441C59.6292 8.75844 59.6628 8.63 59.6628 8.56884C59.6628 8.5352 59.6751 8.4985 59.6903 8.48933C59.7056 8.48016 59.724 8.41899 59.7332 8.35783C59.7423 8.29361 59.7668 8.16517 59.7851 8.07343C59.8677 7.66058 59.8891 7.40982 59.8891 6.89606C59.8891 6.5933 59.8738 6.26914 59.8555 6.1774C59.779 5.82266 59.7576 5.74009 59.6903 5.57189C59.6751 5.5352 59.6506 5.47098 59.6322 5.42816C59.5619 5.25079 59.5191 5.17434 59.4059 5.00003C59.1185 4.56578 58.7913 4.26914 58.3387 4.03672C57.9533 3.841 57.7362 3.77373 57.1399 3.66975C56.9075 3.62999 18.1001 3.62388 17.9656 3.66364C17.6017 3.77067 17.3295 4.00003 17.1644 4.33642C17.0604 4.54131 17.0482 4.59941 17.0359 4.84101C17.0298 5.06425 17.039 5.14682 17.094 5.29972C17.1797 5.52908 17.2989 5.70951 17.461 5.84712C17.5711 5.94498 17.6567 5.99086 17.935 6.1193C18.0115 6.15599 21.0451 6.16211 37.513 6.16823L57.0023 6.17434L57.1429 6.24468C57.3692 6.35783 57.4488 6.5719 57.4182 7.00615C57.3968 7.37618 57.3601 7.58107 57.253 7.98168C57.2102 8.14071 57.0665 8.56578 57.0176 8.66976C56.9197 8.893 56.8127 9.12848 56.7148 9.33337C56.6598 9.45569 56.5772 9.63306 56.5344 9.72481C56.4946 9.81655 56.4151 9.9878 56.3601 10.1071C56.305 10.2233 56.1827 10.4985 56.0848 10.7187C55.987 10.9358 55.8708 11.1988 55.8249 11.2997C55.779 11.4007 55.724 11.523 55.7026 11.575C55.6781 11.6239 55.6047 11.789 55.5374 11.9358C55.4671 12.0857 55.4121 12.2141 55.4121 12.2202C55.4121 12.2294 55.357 12.3517 55.2897 12.4955C55.2225 12.6392 55.1674 12.7646 55.1674 12.7707C55.1674 12.7768 55.1338 12.8533 55.094 12.9419C55.0543 13.0306 54.99 13.1713 54.9533 13.2569C54.9166 13.3395 54.8677 13.4496 54.8463 13.5016C54.8218 13.5505 54.4457 14.4037 54.0053 15.3976C53.565 16.3884 53.1674 17.2875 53.1154 17.3945C53.0665 17.5016 53.0267 17.5933 53.0267 17.6025C53.0267 17.6086 52.9717 17.734 52.9044 17.8777C52.8371 18.0215 52.7821 18.1468 52.7821 18.153C52.7821 18.1621 52.727 18.2845 52.6598 18.4282C52.5925 18.5719 52.5374 18.6973 52.5374 18.7034C52.5374 18.7095 52.4946 18.8074 52.4426 18.9205C52.3907 19.0368 52.1858 19.4924 51.987 19.9389C51.5894 20.8319 51.5099 21.0092 51.357 21.3395C51.2989 21.4649 51.253 21.5689 51.253 21.575C51.253 21.5811 51.1919 21.7126 51.1185 21.8716C51.0451 22.0276 50.9411 22.26 50.8861 22.3854C50.8004 22.578 50.516 23.208 50.1735 23.945C49.5803 25.2355 49.146 26.0551 48.6934 26.734C48.4243 27.1407 48.1735 27.2875 47.565 27.3976C47.4335 27.4221 43.3234 27.4313 33.2225 27.4313H19.0665L19.0298 27.3487C19.0115 27.2998 18.987 27.2203 18.9778 27.1713C18.9503 27.0551 18.9105 26.8991 18.8677 26.7432C18.8494 26.6759 18.8219 26.5719 18.8066 26.5138C18.7913 26.4557 18.7638 26.3517 18.7454 26.2845C18.7271 26.2172 18.6995 26.1132 18.6842 26.0551C18.669 25.997 18.6414 25.893 18.6231 25.8258C18.6047 25.7585 18.5772 25.6545 18.5619 25.5964C18.5466 25.5383 18.5191 25.4343 18.5008 25.367C18.4824 25.2998 18.4549 25.1958 18.4396 25.1377C18.4274 25.0796 18.3937 24.9511 18.3662 24.8533C18.3234 24.6973 18.2653 24.4894 18.1949 24.2355C18.1797 24.1835 18.1491 24.0673 18.1246 23.9756C18.0971 23.8839 18.0543 23.7248 18.0268 23.6239C17.9595 23.3823 17.935 23.2936 17.8769 23.0826C17.8494 22.9848 17.8066 22.8288 17.7821 22.7371C17.7576 22.6453 17.7148 22.4924 17.6904 22.4007C17.6659 22.3089 17.6231 22.153 17.5956 22.0551C17.568 21.9603 17.5375 21.838 17.5222 21.789C17.5069 21.7371 17.4763 21.6178 17.4488 21.5199C17.4212 21.4251 17.3784 21.2661 17.3509 21.1683C17.3234 21.0735 17.2897 20.9481 17.2745 20.893C17.2592 20.841 17.2347 20.7493 17.2194 20.6942C17.2041 20.6423 17.1674 20.5138 17.1399 20.4129C17.1124 20.312 17.0634 20.1316 17.0298 20.0153C16.9962 19.8961 16.9564 19.7462 16.9381 19.679C16.9197 19.6117 16.8922 19.523 16.88 19.4802C16.8555 19.4037 16.8372 19.3364 16.7271 18.9297C16.617 18.523 16.5986 18.4557 16.5742 18.3793C16.5619 18.3364 16.5344 18.2478 16.516 18.1805C16.4977 18.1132 16.4427 17.9053 16.3907 17.7218C16.2867 17.3456 16.2408 17.1835 16.2041 17.049C16.1888 16.997 16.1216 16.7585 16.0543 16.5138C15.9258 16.049 15.88 15.8869 15.8372 15.734C15.8219 15.682 15.7668 15.4893 15.7179 15.3059C15.5772 14.789 15.5589 14.7309 15.5344 14.6484C15.5099 14.5719 15.4916 14.5046 15.3815 14.0979C15.2714 13.6912 15.2531 13.6239 15.2286 13.5474C15.2164 13.5046 15.1888 13.4159 15.1705 13.3487C15.1521 13.2814 15.0818 13.0276 15.0145 12.7829C14.9472 12.5383 14.8769 12.2844 14.8586 12.2172C14.8402 12.1499 14.8127 12.0612 14.8005 12.0184C14.7882 11.9756 14.7607 11.8869 14.7423 11.8196C14.724 11.7523 14.6537 11.4985 14.5864 11.2539C14.5191 11.0092 14.4488 10.7554 14.4304 10.6881C14.4121 10.6208 14.3846 10.5321 14.3723 10.4893C14.3601 10.4465 14.3326 10.3578 14.3173 10.2906C14.2989 10.2233 14.2561 10.0704 14.2225 9.95416C14.1888 9.8349 14.1307 9.63612 14.0971 9.51074C13.9778 9.07037 13.9686 9.03673 13.9442 8.96028C13.932 8.91747 13.9044 8.82878 13.8891 8.7615C13.8708 8.69422 13.828 8.54132 13.7943 8.42511C13.7607 8.30584 13.7026 8.10707 13.669 7.98168C13.5497 7.54132 13.5405 7.50768 13.5161 7.43122C13.5038 7.38841 13.4763 7.29361 13.4549 7.21716C13.4335 7.14071 13.406 7.0459 13.3937 7.00309C13.3815 6.96028 13.354 6.87159 13.3356 6.80431C13.3173 6.73703 13.2775 6.58413 13.2439 6.46792C13.2102 6.34865 13.1613 6.17128 13.1338 6.07037C13.0604 5.81043 13.0268 5.68505 12.9962 5.58107C12.9809 5.52908 12.9564 5.4404 12.9381 5.38229C12.9228 5.32419 12.88 5.17128 12.8433 5.0459C12.8096 4.92052 12.7515 4.71257 12.7179 4.58718C12.6537 4.35171 12.617 4.21715 12.565 4.04284C12.5344 3.93581 12.513 3.8563 12.4182 3.51685C12.3815 3.39146 12.3264 3.18351 12.2898 3.05813C12.1888 2.70033 12.1797 2.65752 12.1216 2.44651C11.9595 1.82571 11.4824 1.16516 10.9381 0.801243C10.6995 0.642223 10.2164 0.397572 10.143 0.397572C10.1154 0.397572 10.0849 0.382282 10.0757 0.366993C10.0665 0.348644 10.0176 0.336411 9.96865 0.336411C9.91972 0.336411 9.87079 0.321121 9.86162 0.305828C9.85244 0.287479 9.80351 0.275249 9.75764 0.275249C9.71177 0.275249 9.66284 0.263016 9.64449 0.247726C9.6292 0.232437 9.55581 0.211029 9.47935 0.201855C9.4029 0.189621 9.25305 0.168217 9.14296 0.152924C9.03287 0.134575 8.77905 0.110111 8.58027 0.0978775C8.34786 0.0795288 8.21024 0.0581245 8.20107 0.0367165C8.19189 0.00919342 7.29893 1.90735e-05 4.5711 1.90735e-05C1.38456 1.90735e-05 0.950305 0.00613403 0.935015 0.0458908Z" fill="black"/>
<path d="M22.5687 37.5537C22.5259 37.566 22.4402 37.5782 22.3791 37.5813C22.2476 37.5843 21.9815 37.6424 21.6359 37.7403C20.0366 38.199 18.7338 39.2938 17.9968 40.7984C17.7338 41.3428 17.587 41.8198 17.4586 42.5507C17.4096 42.8412 17.4096 43.8045 17.4586 44.1287C17.6696 45.4835 18.2139 46.5721 19.1405 47.4926C19.7032 48.0523 20.3607 48.4804 21.1314 48.7832C21.1742 48.8015 21.2323 48.826 21.2598 48.8413C21.2904 48.8566 21.3424 48.8688 21.3729 48.8688C21.4066 48.8688 21.4433 48.881 21.4525 48.8994C21.4616 48.9147 21.5106 48.93 21.5595 48.93C21.6084 48.93 21.6543 48.9422 21.6635 48.9575C21.6726 48.9728 21.7246 48.9911 21.7797 49.0003C21.8347 49.0095 21.9509 49.0339 22.0335 49.0523C22.3821 49.1287 22.6788 49.1532 23.2567 49.1501C23.9203 49.1501 24.2353 49.1165 24.7399 48.9911C24.8164 48.9728 24.9142 48.9483 24.9632 48.9391C25.009 48.93 25.0549 48.9116 25.0641 48.8963C25.0733 48.881 25.1069 48.8688 25.1405 48.8688C25.1711 48.8688 25.2231 48.8566 25.2537 48.8413C25.3026 48.8168 25.376 48.7862 25.5442 48.7189C26.2751 48.4284 27.0794 47.8504 27.6451 47.2113C28.3638 46.3978 28.8347 45.4162 29.0274 44.3122C29.0763 44.0523 29.0763 42.6455 29.0274 42.3856C28.7919 41.0492 28.1497 39.8871 27.1711 39.0155C26.8775 38.7556 26.5014 38.4773 26.2078 38.306C25.9448 38.1531 25.3729 37.8901 25.3057 37.8901C25.2843 37.8901 25.2537 37.8749 25.2445 37.8596C25.2353 37.8412 25.1925 37.829 25.1528 37.829C25.113 37.829 25.0733 37.8167 25.0641 37.8015C25.0549 37.7862 25.009 37.7678 24.9632 37.7586C24.9142 37.7495 24.8164 37.725 24.7399 37.7067C24.5106 37.6485 24.3362 37.6119 24.1436 37.5813C23.9112 37.5415 22.6696 37.5201 22.5687 37.5537ZM23.8745 39.9727C24.1619 40.04 24.2659 40.0675 24.3179 40.095C24.3485 40.1103 24.3852 40.1226 24.4035 40.1226C24.4219 40.1226 24.5534 40.1776 24.6971 40.2449C25.6054 40.67 26.324 41.5324 26.5687 42.4926C26.6543 42.8321 26.6665 42.9391 26.6665 43.3489C26.6665 43.7587 26.6543 43.8657 26.5687 44.2052C26.3057 45.2357 25.5075 46.144 24.5106 46.5477C24.3974 46.5936 24.0824 46.6884 23.9142 46.7281C23.694 46.7832 22.8225 46.7862 22.6145 46.7312C22.2598 46.6425 22.2139 46.6302 22.165 46.6027C22.1344 46.5874 22.0977 46.5752 22.0794 46.5752C22.0457 46.5752 21.6757 46.4009 21.5106 46.3061C21.0121 46.0217 20.4005 45.3581 20.1742 44.8535C20.0396 44.5599 19.9999 44.4468 19.9448 44.2357C19.9265 44.1685 19.8959 44.0523 19.8775 43.9758C19.8286 43.7923 19.8286 42.9269 19.8775 42.7189C19.9234 42.5232 20.0213 42.1807 20.058 42.0951C20.3271 41.4498 20.8255 40.8443 21.3821 40.4804C21.5289 40.3856 21.6543 40.3061 21.6635 40.3061C21.6726 40.3061 21.7644 40.2663 21.8714 40.2174C22.1222 40.1042 22.2629 40.0583 22.6145 39.9727C22.7888 39.933 23.7002 39.933 23.8745 39.9727Z" fill="black"/>
<path d="M46.357 37.5389C46.3448 37.548 46.2408 37.5694 46.1277 37.5847C45.9289 37.6092 45.8249 37.6306 45.5191 37.7009C45.3968 37.7285 44.9625 37.8691 44.8463 37.9181C44.6292 38.0098 44.091 38.282 43.984 38.3554C43.9136 38.4012 43.8463 38.441 43.8341 38.441C43.7821 38.441 43.2011 38.9058 42.9381 39.1596C42.1369 39.9333 41.6598 40.759 41.3142 41.9731C41.302 42.022 41.2745 42.1596 41.2561 42.2789C41.2347 42.3951 41.2072 42.5694 41.1919 42.6642C41.1522 42.8844 41.1522 43.814 41.1919 44.0342C41.2072 44.129 41.2347 44.3003 41.2561 44.4195C41.2959 44.6764 41.3051 44.707 41.4672 45.2116C41.6201 45.6825 41.935 46.3186 42.2256 46.7284C42.461 47.0648 43.1491 47.7681 43.4855 48.0189C44.0176 48.4134 44.7271 48.7681 45.3203 48.9333C45.9564 49.1137 46.25 49.1504 47.0023 49.1504C47.5925 49.1504 47.8249 49.132 48.2255 49.0525C48.3173 49.0342 48.4396 49.0128 48.4946 49.0005C48.5497 48.9914 48.6017 48.973 48.6108 48.9577C48.62 48.9424 48.6598 48.9302 48.6995 48.9302C48.7393 48.9302 48.7821 48.9149 48.7913 48.8996C48.8004 48.8813 48.8432 48.869 48.883 48.869C48.9228 48.869 48.9656 48.8568 48.9747 48.8385C48.9839 48.8232 49.0206 48.8079 49.0543 48.8079C49.0848 48.8079 49.1368 48.7957 49.1674 48.7804C49.1949 48.762 49.3631 48.6825 49.5405 48.5999C50.1796 48.2972 50.6261 47.9761 51.1766 47.4195C51.9533 46.6397 52.4762 45.6795 52.7178 44.5877C52.8157 44.1382 52.8279 44.0189 52.8279 43.3492C52.8279 42.6795 52.8157 42.5602 52.7178 42.1107C52.3814 40.5969 51.4181 39.2147 50.1521 38.4288C49.7148 38.1566 49.2377 37.9242 48.9197 37.8233C48.5802 37.7193 48.1368 37.6123 47.8433 37.5664C47.6689 37.5419 46.3784 37.5144 46.357 37.5389ZM47.6261 39.9731C47.6934 39.9914 47.8066 40.019 47.8738 40.0373C48.2439 40.1321 48.4946 40.2483 48.8677 40.4868C49.4579 40.8661 49.9594 41.4868 50.2041 42.1413C50.2653 42.3033 50.2836 42.3706 50.3723 42.707C50.4243 42.915 50.4243 43.8263 50.3692 44.0067C50.3478 44.0832 50.3172 44.1994 50.2989 44.2666C50.0451 45.2452 49.2194 46.1718 48.2714 46.5357C48.0359 46.6244 47.9717 46.6458 47.6292 46.7314C47.4274 46.7834 46.5375 46.7865 46.3662 46.7345C46.2959 46.7131 46.1797 46.6825 46.1093 46.6642C45.883 46.603 45.8035 46.5724 45.4885 46.4195C44.7576 46.0648 44.1705 45.444 43.8555 44.6948C43.7118 44.3523 43.7057 44.34 43.6843 44.2361C43.6751 44.1841 43.6506 44.0679 43.6292 43.9761C43.5833 43.7529 43.5833 42.9333 43.6292 42.7223C43.6506 42.6306 43.6751 42.5113 43.6843 42.4624C43.6965 42.4104 43.7148 42.3431 43.7301 42.3095C43.7424 42.2758 43.7852 42.1657 43.8249 42.0648C44.0329 41.5174 44.458 40.9792 44.9931 40.5786C45.2225 40.4073 45.7576 40.1229 45.8524 40.1229C45.8769 40.1229 45.9075 40.1076 45.9167 40.0924C45.9258 40.074 45.9656 40.0618 45.9992 40.0618C46.0359 40.0618 46.1063 40.0495 46.1582 40.0343C46.2102 40.0159 46.302 39.9914 46.3601 39.9762C46.5099 39.9333 47.4732 39.9333 47.6261 39.9731Z" fill="black"/>
</svg>
