<svg width="62" height="62" viewBox="0 0 62 62" fill="none" xmlns="http://www.w3.org/2000/svg">
<path d="M62 31C62 48.1182 48.1182 62 31 62C13.8818 62 0 48.1182 0 31C0 13.8818 13.8818 0 31 0C48.1182 0 62 13.8818 62 31Z" fill="#2A2A2A"/>
<path d="M12.3624 21.4904C14.1096 21.4904 17.8399 21.4904 19.0932 21.4904C19.3512 21.4904 19.5871 21.6452 19.6977 21.8811C21.2458 25.2428 23.1331 28.2875 25.4037 30.971C25.5954 31.288 26.0672 31.2511 26.2147 30.9046C26.9224 29.1795 28.2347 24.9848 25.6986 21.999C25.4701 21.7336 25.5659 21.3134 25.8829 21.1807C28.4485 20.1118 30.955 19.9569 33.4026 21.048C33.9186 21.2766 34.2504 21.7852 34.2504 22.3529L34.8254 30.9931C34.8254 31.3764 35.1792 31.6861 35.5552 31.605C38.3714 31.0078 40.0301 26.791 41.6668 22.3898C41.8658 21.8442 42.3819 21.483 42.9569 21.483H49.1569C49.6656 21.483 50.071 21.9327 49.9826 22.434C49.4002 25.5598 46.2596 29.6071 44.6156 31.5608C44.048 32.2316 44.0406 33.2195 44.6083 33.8904L50.1521 40.4885C50.5502 40.9603 50.2111 41.6901 49.5919 41.6901H42.5735C41.9985 41.6901 41.4456 41.4468 41.0549 41.0266L36.145 36.9424C35.887 36.6623 35.4078 36.5665 35.1719 36.854C34.56 37.5912 34.6116 38.5053 34.3241 40.5769C34.2356 41.2257 33.6532 41.6901 32.9971 41.6901H28.1978C27.5122 41.6901 26.8413 41.55 26.2221 41.2552C23.4722 39.9503 15.9452 35.3206 11.721 22.375C11.5735 21.9401 11.9053 21.4904 12.3624 21.4904Z" fill="white"/>
</svg>
