<svg width="52" height="52" viewBox="0 0 52 52" fill="none" xmlns="http://www.w3.org/2000/svg">
<path d="M51.2098 26.4125C51.2098 40.5418 39.7518 51.9998 25.6225 51.9998C11.4932 51.9998 0.0351562 40.5418 0.0351562 26.4125C0.0351562 12.2832 11.4932 0.825195 25.6225 0.825195C39.7518 0.825195 51.2098 12.2832 51.2098 26.4125Z" fill="white"/>
<path d="M11.7305 41.6001L14.1523 34.0791C10.5926 28.8338 11.1098 21.7144 15.4545 17.0107C17.9554 14.3029 21.3569 12.7269 25.0383 12.5748C28.7319 12.4348 32.2429 13.7188 34.9507 16.2197C37.6585 18.7206 39.2345 22.1221 39.3867 25.8035C39.5388 29.4849 38.2427 33.0081 35.7418 35.7159C31.4153 40.4075 24.369 41.5027 18.8438 38.3994L11.7305 41.6001ZM25.6103 14.0291C25.4399 14.0291 25.2695 14.0352 25.0991 14.0413C21.8072 14.1751 18.7647 15.5808 16.5315 18.0026C12.5763 22.2925 12.1686 28.8217 15.5579 33.5314L15.7709 33.8296L14.134 38.9166L18.9412 36.7565L19.2697 36.9512C24.2533 39.9389 30.7277 39.0018 34.6708 34.7241C36.904 32.3023 38.0601 29.1563 37.9263 25.8644C37.7924 22.5724 36.3868 19.5299 33.965 17.2967C31.6648 15.1792 28.7197 14.0291 25.6103 14.0291Z" fill="#2A2A2A"/>
<path d="M24.4173 27.5932C24.9162 28.0922 25.9263 29.0414 26.6139 29.2118C27.3015 29.3822 27.8127 28.9988 28.3481 28.5364C28.6281 28.293 28.7558 28.0131 29.4434 27.8914C30.1554 27.7636 32.1573 29.0962 32.6381 29.6621C34.0984 31.3963 32.7902 33.3313 30.8126 33.5017C28.3725 33.7086 25.117 31.4815 22.823 29.1875C20.529 26.8934 18.3079 23.638 18.5088 21.1979C18.673 19.2264 20.6142 17.912 22.3484 19.3724C22.9204 19.8531 24.2469 21.8551 24.1191 22.567C23.9974 23.2546 23.7175 23.3763 23.4741 23.6623C23.0116 24.2039 22.6283 24.7089 22.7987 25.3965C22.969 26.0841 23.9183 27.0942 24.4173 27.5932Z" fill="#2A2A2A"/>
</svg>
