<svg width="62" height="62" viewBox="0 0 62 62" fill="none" xmlns="http://www.w3.org/2000/svg">
<path d="M62 31C62 48.1182 48.1182 62 31 62C13.8818 62 0 48.1182 0 31C0 13.8818 13.8818 0 31 0C48.1182 0 62 13.8818 62 31Z" fill="#169B00"/>
<path d="M14.1699 49.4005L17.104 40.2885C12.7913 33.9336 13.418 25.3082 18.6817 19.6095C21.7117 16.3289 25.8327 14.4195 30.2929 14.2352C34.7678 14.0656 39.0215 15.6212 42.3021 18.6511C45.5828 21.6811 47.4922 25.8021 47.6765 30.2623C47.8608 34.7225 46.2905 38.991 43.2605 42.2716C38.0189 47.9555 29.4819 49.2825 22.788 45.5227L14.1699 49.4005ZM30.9859 15.9971C30.7794 15.9971 30.573 16.0045 30.3666 16.0119C26.3782 16.1741 22.6922 17.877 19.9866 20.8112C15.1947 26.0086 14.7007 33.9189 18.807 39.625L19.065 39.9862L17.0819 46.1493L22.906 43.5322L23.304 43.7681C29.3419 47.3879 37.1859 46.2525 41.963 41.0699C44.6686 38.1358 46.0693 34.3244 45.9071 30.336C45.745 26.3477 44.042 22.6616 41.1079 19.956C38.3212 17.3905 34.753 15.9971 30.9859 15.9971Z" fill="white"/>
<path d="M29.5409 32.4307C30.1454 33.0352 31.3692 34.1853 32.2023 34.3917C33.0353 34.5981 33.6546 34.1337 34.3033 33.5734C34.6425 33.2785 34.7973 32.9394 35.6303 32.7919C36.4929 32.6371 38.9183 34.2516 39.5007 34.9372C41.27 37.0383 39.685 39.3827 37.2891 39.5891C34.3328 39.8397 30.3887 37.1415 27.6094 34.3622C24.8301 31.5829 22.1392 27.6388 22.3825 24.6825C22.5816 22.2939 24.9333 20.7016 27.0344 22.4709C27.7274 23.0533 29.3345 25.4787 29.1797 26.3413C29.0322 27.1743 28.6931 27.3218 28.3982 27.6683C27.8379 28.3244 27.3735 28.9363 27.5799 29.7693C27.7863 30.6024 28.9364 31.8262 29.5409 32.4307Z" fill="white"/>
</svg>
